{
copyright = "Copyright (c) 2015, Cadson Demak (info@cadsondemak.com)";
customParameters = (
{
name = vendorID;
value = CDK;
},
{
name = description;
value = "Copyright (c) 2015, Cadson Demak (info@cadsondemak.com)";
},
{
name = license;

glyphs = (
{
glyphname = A;
lastChange = "2015-10-24 17:50:51 +0000";
layers = (
{
layerId = "51D8E656-CCF3-4A73-A171-84F1BD8DE29C";
name = "Regular Italic";
paths = (
{
closed = 1;
nodes = (
"120 0 LINE",
"219 166 LINE",
"478 166 LINE",
"507 0 LINE",
"615 0 LINE",
"507 644 LINE",
"385 644 LINE",
"3 0 LINE"
);
},
{
closed = 1;
nodes = (
"428 545 LINE",
"478 250 LINE",
"254 250 LINE"
);
}
);
width = 699;
}
);
leftKerningGroup = A;
note = A;
rightKerningGroup = A;
unicode = 0041;
},
{
glyphname = Aacute;
lastChange = "2015-10-24 17:50:52 +0000";
layers = (
{
layerId = "51D8E656-CCF3-4A73-A171-84F1BD8DE29C";
name = "Regular Italic";
paths = (
{
closed = 1;
nodes = (
"120 0 LINE",
"219 166 LINE",
"478 166 LINE",
"507 0 LINE",
"615 0 LINE",
"507 644 LINE",
"385 644 LINE",
"3 0 LINE"
);
},
{
closed = 1;
nodes = (
"428 545 LINE",
"478 250 LINE",
"254 250 LINE"
);
},
{
closed = 1;
nodes = (
"502 688 LINE",
"624 865 LINE",
"528 865 LINE",
"415 688 LINE"
);
}
);
width = 699;
}
);
leftKerningGroup = A;
note = Aacute;
rightKerningGroup = A;
unicode = 00C1;
},
{
glyphname = Abreve;
lastChange = "2015-10-24 17:50:50 +0000";
layers = (
{
layerId = "51D8E656-CCF3-4A73-A171-84F1BD8DE29C";
name = "Regular Italic";
paths = (
{
closed = 1;
nodes = (
"120 0 LINE",
"219 166 LINE",
"478 166 LINE",
"507 0 LINE",
"615 0 LINE",
"507 644 LINE",
"385 644 LINE",
"3 0 LINE"
);
},
{
closed = 1;
nodes = (
"428 545 LINE",
"478 250 LINE",
"254 250 LINE"
);
},
{
closed = 1;
nodes = (
"542 688 OFFCURVE",
"609 743 OFFCURVE",
"627 829 CURVE",
"550 829 LINE",
"540 783 OFFCURVE",
"509 753 OFFCURVE",
"464 753 CURVE SMOOTH",
"413 753 OFFCURVE",
"403 783 OFFCURVE",
"413 829 CURVE",
"343 829 LINE",
"325 743 OFFCURVE",
"365 688 OFFCURVE",
"453 688 CURVE SMOOTH"
);
}
);
width = 699;
}
);
leftKerningGroup = A;
note = Abreve;
rightKerningGroup = A;
unicode = 0102;
},
{
glyphname = Abreveacute;
lastChange = "2015-10-24 17:50:52 +0000";
layers = (
{
layerId = "51D8E656-CCF3-4A73-A171-84F1BD8DE29C";
name = "Regular Italic";
paths = (
{
closed = 1;
nodes = (
"120 0 LINE",
"219 166 LINE",
"478 166 LINE",
"507 0 LINE",
"615 0 LINE",
"507 644 LINE",
"385 644 LINE",
"3 0 LINE"
);
},
{
closed = 1;
nodes = (
"428 545 LINE",
"478 250 LINE",
"254 250 LINE"
);
},
{
closed = 1;
nodes = (
"550 688 OFFCURVE",
"620 729 OFFCURVE",
"642 836 CURVE",
"574 836 LINE",
"562 777 OFFCURVE",
"521 747 OFFCURVE",
"466 747 CURVE SMOOTH",
"401 747 OFFCURVE",
"382 777 OFFCURVE",
"394 836 CURVE",
"330 836 LINE",
"308 729 OFFCURVE",
"368 688 OFFCURVE",
"455 688 CURVE SMOOTH"
);
},
{
closed = 1;
nodes = (
"510 805 LINE",
"609 938 LINE",
"525 938 LINE",
"433 805 LINE"
);
}
);
width = 699;
}
);
leftKerningGroup = A;
note = Abreveacute;
rightKerningGroup = A;
unicode = 1EAE;
},
{
glyphname = Abrevedotbelow;
lastChange = "2015-10-24 17:50:52 +0000";
layers = (
{
layerId = "51D8E656-CCF3-4A73-A171-84F1BD8DE29C";
name = "Regular Italic";
paths = (
{
closed = 1;
nodes = (
"120 0 LINE",
"219 166 LINE",
"478 166 LINE",
"507 0 LINE",
"615 0 LINE",
"507 644 LINE",
"385 644 LINE",
"3 0 LINE"
);
},
{
closed = 1;
nodes = (
"320 -173 LINE",
"338 -85 LINE",
"244 -85 LINE",
"226 -173 LINE"
);
},
{
closed = 1;
nodes = (
"428 545 LINE",
"478 250 LINE",
"254 250 LINE"
);
},
{
closed = 1;
nodes = (
"541 688 OFFCURVE",
"608 743 OFFCURVE",
"626 829 CURVE",
"549 829 LINE",
"539 783 OFFCURVE",
"508 753 OFFCURVE",
"463 753 CURVE SMOOTH",
"412 753 OFFCURVE",
"402 783 OFFCURVE",
"412 829 CURVE",
"342 829 LINE",
"324 743 OFFCURVE",
"364 688 OFFCURVE",
"452 688 CURVE SMOOTH"
);
}
);
width = 699;
}
);
leftKerningGroup = A;
note = Abrevedotbelow;
rightKerningGroup = A;
unicode = 1EB6;
},
{
glyphname = Abrevegrave;
lastChange = "2015-10-24 17:50:51 +0000";
layers = (
{
layerId = "51D8E656-CCF3-4A73-A171-84F1BD8DE29C";
name = "Regular Italic";
paths = (
{
closed = 1;
nodes = (
"120 0 LINE",
"219 166 LINE",
"478 166 LINE",
"507 0 LINE",
"615 0 LINE",
"507 644 LINE",
"385 644 LINE",
"3 0 LINE"
);
},
{
closed = 1;
nodes = (
"428 545 LINE",
"478 250 LINE",
"254 250 LINE"
);
},
{
closed = 1;
nodes = (
"550 688 OFFCURVE",
"620 729 OFFCURVE",
"642 836 CURVE",
"574 836 LINE",
"562 777 OFFCURVE",
"521 747 OFFCURVE",
"466 747 CURVE SMOOTH",
"401 747 OFFCURVE",
"382 777 OFFCURVE",
"394 836 CURVE",
"330 836 LINE",
"308 729 OFFCURVE",
"368 688 OFFCURVE",
"455 688 CURVE SMOOTH"
);
},
{
closed = 1;
nodes = (
"527 805 LINE",
"491 938 LINE",
"407 938 LINE",
"450 805 LINE"
);
}
);
width = 699;
}
);
leftKerningGroup = A;
note = Abrevegrave;
rightKerningGroup = A;
unicode = 1EB0;
},
{
glyphname = Abrevehookabove;
lastChange = "2015-10-24 17:50:54 +0000";
layers = (
{
layerId = "51D8E656-CCF3-4A73-A171-84F1BD8DE29C";
name = "Regular Italic";
paths = (
{
closed = 1;
nodes = (
"120 0 LINE",
"219 166 LINE",
"478 166 LINE",
"507 0 LINE",
"615 0 LINE",
"507 644 LINE",
"385 644 LINE",
"3 0 LINE"
);
},
{
closed = 1;
nodes = (
"428 545 LINE",
"478 250 LINE",
"254 250 LINE"
);
},
{
closed = 1;
nodes = (
"550 688 OFFCURVE",
"620 729 OFFCURVE",
"642 836 CURVE",
"574 836 LINE",
"562 777 OFFCURVE",
"521 747 OFFCURVE",
"466 747 CURVE SMOOTH",
"401 747 OFFCURVE",
"382 777 OFFCURVE",
"394 836 CURVE",
"330 836 LINE",
"308 729 OFFCURVE",
"368 688 OFFCURVE",
"455 688 CURVE SMOOTH"
);
},
{
closed = 1;
nodes = (
"513 810 LINE",
"520 843 LINE",
"578 853 OFFCURVE",
"605 875 OFFCURVE",
"614 919 CURVE SMOOTH",
"624 966 OFFCURVE",
"594 996 OFFCURVE",
"531 996 CURVE SMOOTH",
"500 996 OFFCURVE",
"469 991 OFFCURVE",
"448 984 CURVE",
"437 933 LINE",
"455 940 OFFCURVE",
"474 945 OFFCURVE",
"495 945 CURVE SMOOTH",
"530 945 OFFCURVE",
"545 938 OFFCURVE",
"540 912 CURVE",
"534 886 OFFCURVE",
"514 872 OFFCURVE",
"449 869 CURVE",
"437 810 LINE"
);
}
);
width = 699;
}
);
leftKerningGroup = A;
note = Abrevehookabove;
rightKerningGroup = A;
unicode = 1EB2;
},
{
glyphname = Abrevetilde;
lastChange = "2015-10-24 17:50:51 +0000";
layers = (
{
layerId = "51D8E656-CCF3-4A73-A171-84F1BD8DE29C";
name = "Regular Italic";
paths = (
{
closed = 1;
nodes = (
"120 0 LINE",
"219 166 LINE",
"478 166 LINE",
"507 0 LINE",
"615 0 LINE",
"507 644 LINE",
"385 644 LINE",
"3 0 LINE"
);
},
{
closed = 1;
nodes = (
"428 545 LINE",
"478 250 LINE",
"254 250 LINE"
);
},
{
closed = 1;
nodes = (
"550 688 OFFCURVE",
"620 729 OFFCURVE",
"642 836 CURVE",
"574 836 LINE",
"562 777 OFFCURVE",
"521 747 OFFCURVE",
"466 747 CURVE SMOOTH",
"401 747 OFFCURVE",
"382 777 OFFCURVE",
"394 836 CURVE",
"330 836 LINE",
"308 729 OFFCURVE",
"368 688 OFFCURVE",
"455 688 CURVE SMOOTH"
);
},
{
closed = 1;
nodes = (
"603 857 OFFCURVE",
"634 869 OFFCURVE",
"651 886 CURVE",
"665 958 LINE",
"644 934 OFFCURVE",
"616 922 OFFCURVE",
"582 922 CURVE SMOOTH",
"531 922 OFFCURVE",
"499 960 OFFCURVE",
"443 960 CURVE SMOOTH",
"411 960 OFFCURVE",
"375 948 OFFCURVE",
"355 931 CURVE",
"340 860 LINE",
"367 884 OFFCURVE",
"397 894 OFFCURVE",
"430 894 CURVE SMOOTH",
"475 894 OFFCURVE",
"516 857 OFFCURVE",
"569 857 CURVE SMOOTH"
);
}
);
width = 699;
}
);
leftKerningGroup = A;
note = Abrevetilde;
rightKerningGroup = A;
unicode = 1EB4;
},
{
glyphname = Acaron;
lastChange = "2015-10-24 17:50:51 +0000";
layers = (
{
layerId = "51D8E656-CCF3-4A73-A171-84F1BD8DE29C";
name = "Regular Italic";
paths = (
{
closed = 1;
nodes = (
"120 0 LINE",
"219 166 LINE",
"478 166 LINE",
"507 0 LINE",
"615 0 LINE",
"507 644 LINE",
"385 644 LINE",
"3 0 LINE"
);
},
{
closed = 1;
nodes = (
"428 545 LINE",
"478 250 LINE",
"254 250 LINE"
);
},
{
closed = 1;
nodes = (
"491 687 LINE",
"650 848 LINE",
"560 848 LINE",
"463 747 LINE",
"410 848 LINE",
"325 848 LINE",
"415 687 LINE"
);
}
);
width = 699;
}
);
leftKerningGroup = A;
note = Acaron;
rightKerningGroup = A;
unicode = 01CD;
},
{
glyphname = Acircumflex;
lastChange = "2015-10-24 17:50:51 +0000";
layers = (
{
layerId = "51D8E656-CCF3-4A73-A171-84F1BD8DE29C";
name = "Regular Italic";
paths = (
{
closed = 1;
nodes = (
"120 0 LINE",
"219 166 LINE",
"478 166 LINE",
"507 0 LINE",
"615 0 LINE",
"507 644 LINE",
"385 644 LINE",
"3 0 LINE"
);
},
{
closed = 1;
nodes = (
"428 545 LINE",
"478 250 LINE",
"254 250 LINE"
);
},
{
closed = 1;
nodes = (
"382 687 LINE",
"477 788 LINE",
"532 687 LINE",
"616 687 LINE",
"525 848 LINE",
"449 848 LINE",
"291 687 LINE"
);
}
);
width = 699;
}
);
leftKerningGroup = A;
note = Acircumflex;
rightKerningGroup = A;
unicode = 00C2;
},
{
glyphname = Acircumflexacute;
lastChange = "2015-10-24 17:50:54 +0000";
layers = (
{
layerId = "51D8E656-CCF3-4A73-A171-84F1BD8DE29C";
name = "Regular Italic";
paths = (
{
closed = 1;
nodes = (
"120 0 LINE",
"219 166 LINE",
"478 166 LINE",
"507 0 LINE",
"615 0 LINE",
"507 644 LINE",
"385 644 LINE",
"3 0 LINE"
);
},
{
closed = 1;
nodes = (
"428 545 LINE",
"478 250 LINE",
"254 250 LINE"
);
},
{
closed = 1;
nodes = (
"383 687 LINE",
"471 769 LINE",
"525 687 LINE",
"611 687 LINE",
"519 814 LINE",
"435 814 LINE",
"289 687 LINE"
);
},
{
closed = 1;
nodes = (
"642 800 LINE",
"740 933 LINE",
"657 933 LINE",
"565 800 LINE"
);
}
);
width = 699;
}
);
leftKerningGroup = A;
note = Acircumflexacute;
rightKerningGroup = A;
unicode = 1EA4;
},
{
glyphname = Acircumflexdotbelow;
lastChange = "2015-10-24 17:50:52 +0000";
layers = (
{
layerId = "51D8E656-CCF3-4A73-A171-84F1BD8DE29C";
name = "Regular Italic";
paths = (
{
closed = 1;
nodes = (
"120 0 LINE",
"219 166 LINE",
"478 166 LINE",
"507 0 LINE",
"615 0 LINE",
"507 644 LINE",
"385 644 LINE",
"3 0 LINE"
);
},
{
closed = 1;
nodes = (
"320 -173 LINE",
"338 -85 LINE",
"244 -85 LINE",
"226 -173 LINE"
);
},
{
closed = 1;
nodes = (
"428 545 LINE",
"478 250 LINE",
"254 250 LINE"
);
},
{
closed = 1;
nodes = (
"382 687 LINE",
"477 788 LINE",
"532 687 LINE",
"616 687 LINE",
"525 848 LINE",
"449 848 LINE",
"291 687 LINE"
);
}
);
width = 699;
}
);
leftKerningGroup = A;
note = Acircumflexdotbelow;
rightKerningGroup = A;
unicode = 1EAC;
},
{
glyphname = Acircumflexgrave;
lastChange = "2015-10-24 17:50:52 +0000";
layers = (
{
layerId = "51D8E656-CCF3-4A73-A171-84F1BD8DE29C";
name = "Regular Italic";
paths = (
{
closed = 1;
nodes = (
"120 0 LINE",
"219 166 LINE",
"478 166 LINE",
"507 0 LINE",
"615 0 LINE",
"507 644 LINE",
"385 644 LINE",
"3 0 LINE"
);
},
{
closed = 1;
nodes = (
"428 545 LINE",
"478 250 LINE",
"254 250 LINE"
);
},
{
closed = 1;
nodes = (
"386 800 LINE",
"351 933 LINE",
"267 933 LINE",
"309 800 LINE"
);
},
{
closed = 1;
nodes = (
"384 687 LINE",
"473 769 LINE",
"526 687 LINE",
"612 687 LINE",
"522 814 LINE",
"437 814 LINE",
"292 687 LINE"
);
}
);
width = 699;
}
);
leftKerningGroup = A;
note = Acircumflexgrave;
rightKerningGroup = A;
unicode = 1EA6;
},
{
glyphname = Acircumflexhookabove;
lastChange = "2015-10-24 17:50:53 +0000";
layers = (
{
layerId = "51D8E656-CCF3-4A73-A171-84F1BD8DE29C";
name = "Regular Italic";
paths = (
{
closed = 1;
nodes = (
"120 0 LINE",
"219 166 LINE",
"478 166 LINE",
"507 0 LINE",
"615 0 LINE",
"507 644 LINE",
"385 644 LINE",
"3 0 LINE"
);
},
{
closed = 1;
nodes = (
"428 545 LINE",
"478 250 LINE",
"254 250 LINE"
);
},
{
closed = 1;
nodes = (
"386 687 LINE",
"475 769 LINE",
"528 687 LINE",
"614 687 LINE",
"523 814 LINE",
"438 814 LINE",
"293 687 LINE"
);
},
{
closed = 1;
nodes = (
"649 779 LINE",
"656 813 LINE",
"712 821 OFFCURVE",
"740 846 OFFCURVE",
"750 890 CURVE SMOOTH",
"760 937 OFFCURVE",
"728 968 OFFCURVE",
"663 968 CURVE SMOOTH",
"630 968 OFFCURVE",
"606 963 OFFCURVE",
"585 956 CURVE",
"573 903 LINE",
"591 910 OFFCURVE",
"610 915 OFFCURVE",
"631 915 CURVE SMOOTH",
"663 915 OFFCURVE",
"676 906 OFFCURVE",
"671 884 CURVE SMOOTH",
"666 860 OFFCURVE",
"651 848 OFFCURVE",
"587 845 CURVE",
"573 779 LINE"
);
}
);
width = 699;
}
);
leftKerningGroup = A;
note = Acircumflexhookabove;
rightKerningGroup = A;
unicode = 1EA8;
},
{
glyphname = Acircumflextilde;
lastChange = "2015-10-24 17:50:53 +0000";
layers = (
{
layerId = "51D8E656-CCF3-4A73-A171-84F1BD8DE29C";
name = "Regular Italic";
paths = (
{
closed = 1;
nodes = (
"120 0 LINE",
"219 166 LINE",
"478 166 LINE",
"507 0 LINE",
"615 0 LINE",
"507 644 LINE",
"385 644 LINE",
"3 0 LINE"
);
},
{
closed = 1;
nodes = (
"428 545 LINE",
"478 250 LINE",
"254 250 LINE"
);
},
{
closed = 1;
nodes = (
"387 687 LINE",
"476 769 LINE",
"529 687 LINE",
"615 687 LINE",
"524 814 LINE",
"439 814 LINE",
"294 687 LINE"
);
},
{
closed = 1;
nodes = (
"600 822 OFFCURVE",
"631 835 OFFCURVE",
"647 852 CURVE",
"663 923 LINE",
"641 900 OFFCURVE",
"613 888 OFFCURVE",
"579 888 CURVE SMOOTH",
"528 888 OFFCURVE",
"496 925 OFFCURVE",
"440 925 CURVE SMOOTH",
"408 925 OFFCURVE",
"372 913 OFFCURVE",
"352 896 CURVE",
"337 825 LINE",
"364 850 OFFCURVE",
"394 860 OFFCURVE",
"427 860 CURVE SMOOTH",
"472 860 OFFCURVE",
"513 822 OFFCURVE",
"566 822 CURVE SMOOTH"
);
}
);
width = 699;
}
);
leftKerningGroup = A;
note = Acircumflextilde;
rightKerningGroup = A;
unicode = 1EAA;
},
{
glyphname = Adieresis;
lastChange = "2015-10-24 17:50:53 +0000";
layers = (
{
layerId = "51D8E656-CCF3-4A73-A171-84F1BD8DE29C";
name = "Regular Italic";
paths = (
{
closed = 1;
nodes = (
"120 0 LINE",
"219 166 LINE",
"478 166 LINE",
"507 0 LINE",
"615 0 LINE",
"507 644 LINE",
"385 644 LINE",
"3 0 LINE"
);
},
{
closed = 1;
nodes = (
"428 545 LINE",
"478 250 LINE",
"254 250 LINE"
);
},
{
closed = 1;
nodes = (
"411 711 LINE",
"430 797 LINE",
"339 797 LINE",
"320 711 LINE"
);
},
{
closed = 1;
nodes = (
"597 711 LINE",
"616 797 LINE",
"524 797 LINE",
"505 711 LINE"
);
}
);
width = 699;
}
);
leftKerningGroup = A;
note = Adieresis;
rightKerningGroup = A;
unicode = 00C4;
},
{
glyphname = Adotbelow;
lastChange = "2015-10-24 17:50:54 +0000";
layers = (
{
layerId = "51D8E656-CCF3-4A73-A171-84F1BD8DE29C";
name = "Regular Italic";
paths = (
{
closed = 1;
nodes = (
"120 0 LINE",
"219 166 LINE",
"478 166 LINE",
"507 0 LINE",
"615 0 LINE",
"507 644 LINE",
"385 644 LINE",
"3 0 LINE"
);
},
{
closed = 1;
nodes = (
"320 -173 LINE",
"338 -85 LINE",
"244 -85 LINE",
"226 -173 LINE"
);
},
{
closed = 1;
nodes = (
"428 545 LINE",
"478 250 LINE",
"254 250 LINE"
);
}
);
width = 699;
}
);
leftKerningGroup = A;
note = Adotbelow;
rightKerningGroup = A;
unicode = 1EA0;
},
{
glyphname = Agrave;
lastChange = "2015-10-24 17:50:51 +0000";
layers = (
{
layerId = "51D8E656-CCF3-4A73-A171-84F1BD8DE29C";
name = "Regular Italic";
paths = (
{
closed = 1;
nodes = (
"120 0 LINE",
"219 166 LINE",
"478 166 LINE",
"507 0 LINE",
"615 0 LINE",
"507 644 LINE",
"385 644 LINE",
"3 0 LINE"
);
},
{
closed = 1;
nodes = (
"428 545 LINE",
"478 250 LINE",
"254 250 LINE"
);
},
{
closed = 1;
nodes = (
"491 688 LINE",
"453 865 LINE",
"358 865 LINE",
"403 688 LINE"
);
}
);
width = 699;
}
);
leftKerningGroup = A;
note = Agrave;
rightKerningGroup = A;
unicode = 00C0;
},
{
glyphname = Ahookabove;
lastChange = "2015-10-24 17:50:52 +0000";
layers = (
{
layerId = "51D8E656-CCF3-4A73-A171-84F1BD8DE29C";
name = "Regular Italic";
paths = (
{
closed = 1;
nodes = (
"120 0 LINE",
"219 166 LINE",
"478 166 LINE",
"507 0 LINE",
"615 0 LINE",
"507 644 LINE",
"385 644 LINE",
"3 0 LINE"
);
},
{
closed = 1;
nodes = (
"428 545 LINE",
"478 250 LINE",
"254 250 LINE"
);
},
{
closed = 1;
nodes = (
"498 688 LINE",
"508 735 LINE",
"576 745 OFFCURVE",
"605 774 OFFCURVE",
"616 829 CURVE SMOOTH",
"629 886 OFFCURVE",
"592 922 OFFCURVE",
"510 922 CURVE SMOOTH",
"476 922 OFFCURVE",
"438 917 OFFCURVE",
"414 909 CURVE",
"402 850 LINE",
"420 857 OFFCURVE",
"448 862 OFFCURVE",
"468 862 CURVE SMOOTH",
"516 862 OFFCURVE",
"540 850 OFFCURVE",
"534 820 CURVE SMOOTH",
"527 787 OFFCURVE",
"508 774 OFFCURVE",
"431 770 CURVE",
"413 688 LINE"
);
}
);
width = 699;
}
);
leftKerningGroup = A;
note = Ahookabove;
rightKerningGroup = A;
unicode = 1EA2;
},
{
glyphname = Amacron;
lastChange = "2015-10-24 17:50:54 +0000";
layers = (
{
layerId = "51D8E656-CCF3-4A73-A171-84F1BD8DE29C";
name = "Regular Italic";
paths = (
{
closed = 1;
nodes = (
"120 0 LINE",
"219 166 LINE",
"478 166 LINE",
"507 0 LINE",
"615 0 LINE",
"507 644 LINE",
"385 644 LINE",
"3 0 LINE"
);
},
{
closed = 1;
nodes = (
"428 545 LINE",
"478 250 LINE",
"254 250 LINE"
);
},
{
closed = 1;
nodes = (
"607 709 LINE",
"622 780 LINE",
"325 780 LINE",
"310 709 LINE"
);
}
);
width = 699;
}
);
leftKerningGroup = A;
note = Amacron;
rightKerningGroup = A;
unicode = 0100;
},
{
glyphname = Aogonek;
lastChange = "2015-10-24 17:50:52 +0000";
layers = (
{
layerId = "51D8E656-CCF3-4A73-A171-84F1BD8DE29C";
name = "Regular Italic";
paths = (
{
closed = 1;
nodes = (
"549 -220 OFFCURVE",
"580 -215 OFFCURVE",
"599 -207 CURVE",
"613 -141 LINE",
"599 -148 OFFCURVE",
"577 -152 OFFCURVE",
"561 -152 CURVE SMOOTH",
"531 -152 OFFCURVE",
"516 -143 OFFCURVE",
"523 -112 CURVE SMOOTH",
"531 -72 OFFCURVE",
"556 -33 OFFCURVE",
"615 0 CURVE",
"507 644 LINE",
"385 644 LINE",
"3 0 LINE",
"120 0 LINE",
"219 166 LINE",
"478 166 LINE",
"507 0 LINE",
"465 -45 OFFCURVE",
"443 -75 OFFCURVE",
"432 -131 CURVE SMOOTH",
"420 -193 OFFCURVE",
"463 -220 OFFCURVE",
"520 -220 CURVE SMOOTH"
);
},
{
closed = 1;
nodes = (
"428 545 LINE",
"478 250 LINE",
"254 250 LINE"
);
}
);
width = 684;
}
);
leftKerningGroup = A;
note = Aogonek;
rightKerningGroup = A;
unicode = 0104;
},
{
glyphname = Aring;
lastChange = "2015-10-24 17:50:53 +0000";
layers = (
{
layerId = "51D8E656-CCF3-4A73-A171-84F1BD8DE29C";
name = "Regular Italic";
paths = (
{
closed = 1;
nodes = (
"120 0 LINE",
"219 166 LINE",
"478 166 LINE",
"507 0 LINE",
"615 0 LINE",
"511 620 LINE",
"545 641 OFFCURVE",
"569 675 OFFCURVE",
"577 714 CURVE SMOOTH",
"591 778 OFFCURVE",
"555 828 OFFCURVE",
"483 828 CURVE SMOOTH",
"407 828 OFFCURVE",
"357 778 OFFCURVE",
"343 714 CURVE SMOOTH",
"335 675 OFFCURVE",
"345 641 OFFCURVE",
"371 620 CURVE",
"3 0 LINE"
);
},
{
closed = 1;
nodes = (
"428 545 LINE",
"478 250 LINE",
"254 250 LINE"
);
},
{
closed = 1;
nodes = (
"406 655 OFFCURVE",
"393 681 OFFCURVE",
"400 714 CURVE SMOOTH",
"407 747 OFFCURVE",
"437 773 OFFCURVE",
"472 773 CURVE SMOOTH",
"514 773 OFFCURVE",
"527 747 OFFCURVE",
"520 714 CURVE SMOOTH",
"513 681 OFFCURVE",
"484 655 OFFCURVE",
"447 655 CURVE SMOOTH"
);
}
);
width = 699;
}
);
leftKerningGroup = A;
note = Aring;
rightKerningGroup = A;
unicode = 00C5;
},
{
glyphname = Aringacute;
lastChange = "2015-10-24 17:50:52 +0000";
layers = (
{
layerId = "51D8E656-CCF3-4A73-A171-84F1BD8DE29C";
name = "Regular Italic";
paths = (
{
closed = 1;
nodes = (
"120 0 LINE",
"219 166 LINE",
"478 166 LINE",
"507 0 LINE",
"615 0 LINE",
"511 620 LINE",
"545 641 OFFCURVE",
"569 675 OFFCURVE",
"577 714 CURVE SMOOTH",
"591 778 OFFCURVE",
"555 828 OFFCURVE",
"483 828 CURVE SMOOTH",
"407 828 OFFCURVE",
"357 778 OFFCURVE",
"343 714 CURVE SMOOTH",
"335 675 OFFCURVE",
"345 641 OFFCURVE",
"371 620 CURVE",
"3 0 LINE"
);
},
{
closed = 1;
nodes = (
"428 545 LINE",
"478 250 LINE",
"254 250 LINE"
);
},
{
closed = 1;
nodes = (
"406 655 OFFCURVE",
"393 681 OFFCURVE",
"400 714 CURVE SMOOTH",
"407 747 OFFCURVE",
"437 773 OFFCURVE",
"472 773 CURVE SMOOTH",
"514 773 OFFCURVE",
"527 747 OFFCURVE",
"520 714 CURVE SMOOTH",
"513 681 OFFCURVE",
"484 655 OFFCURVE",
"447 655 CURVE SMOOTH"
);
},
{
closed = 1;
nodes = (
"520 853 LINE",
"642 1030 LINE",
"546 1030 LINE",
"433 853 LINE"
);
}
);
width = 699;
}
);
leftKerningGroup = A;
note = Aringacute;
rightKerningGroup = A;
unicode = 01FA;
},
{
glyphname = Atilde;
lastChange = "2015-10-24 17:50:53 +0000";
layers = (
{
layerId = "51D8E656-CCF3-4A73-A171-84F1BD8DE29C";
name = "Regular Italic";
paths = (
{
closed = 1;
nodes = (
"120 0 LINE",
"219 166 LINE",
"478 166 LINE",
"507 0 LINE",
"615 0 LINE",
"507 644 LINE",
"385 644 LINE",
"3 0 LINE"
);
},
{
closed = 1;
nodes = (
"428 545 LINE",
"478 250 LINE",
"254 250 LINE"
);
},
{
closed = 1;
nodes = (
"572 695 OFFCURVE",
"605 708 OFFCURVE",
"622 726 CURVE",
"639 806 LINE",
"616 782 OFFCURVE",
"587 769 OFFCURVE",
"551 769 CURVE SMOOTH",
"498 769 OFFCURVE",
"464 808 OFFCURVE",
"406 808 CURVE SMOOTH",
"373 808 OFFCURVE",
"336 796 OFFCURVE",
"315 778 CURVE",
"298 698 LINE",
"327 724 OFFCURVE",
"358 734 OFFCURVE",
"393 734 CURVE SMOOTH",
"439 734 OFFCURVE",
"481 695 OFFCURVE",
"536 695 CURVE SMOOTH"
);
}
);
width = 699;
}
);
leftKerningGroup = A;
note = Atilde;
rightKerningGroup = A;
unicode = 00C3;
},
{
glyphname = AE;
lastChange = "2015-10-24 17:50:52 +0000";
layers = (
{
layerId = "51D8E656-CCF3-4A73-A171-84F1BD8DE29C";
name = "Regular Italic";
paths = (
{
closed = 1;
nodes = (
"120 0 LINE",
"219 167 LINE",
"401 167 LINE",
"366 0 LINE",
"761 0 LINE",
"778 84 LINE",
"491 84 LINE",
"533 280 LINE",
"783 280 LINE",
"801 364 LINE",
"551 364 LINE",
"592 559 LINE",
"879 559 LINE",
"897 644 LINE",
"385 644 LINE",
"3 0 LINE"
);
},
{
closed = 1;
nodes = (
"446 561 LINE",
"485 561 LINE",
"419 251 LINE",
"265 251 LINE"
);
}
);
width = 844;
}
);
leftKerningGroup = A;
note = AE;
rightKerningGroup = E;
unicode = 00C6;
},
{
glyphname = AEacute;
lastChange = "2015-10-24 17:50:52 +0000";
layers = (
{
layerId = "51D8E656-CCF3-4A73-A171-84F1BD8DE29C";
name = "Regular Italic";
paths = (
{
closed = 1;
nodes = (
"120 0 LINE",
"219 167 LINE",
"401 167 LINE",
"366 0 LINE",
"761 0 LINE",
"778 84 LINE",
"491 84 LINE",
"533 280 LINE",
"783 280 LINE",
"801 364 LINE",
"551 364 LINE",
"592 559 LINE",
"879 559 LINE",
"897 644 LINE",
"385 644 LINE",
"3 0 LINE"
);
},
{
closed = 1;
nodes = (
"446 561 LINE",
"485 561 LINE",
"419 251 LINE",
"265 251 LINE"
);
},
{
closed = 1;
nodes = (
"619 688 LINE",
"741 865 LINE",
"645 865 LINE",
"532 688 LINE"
);
}
);
width = 844;
}
);
leftKerningGroup = A;
note = AEacute;
rightKerningGroup = E;
unicode = 01FC;
},
{
glyphname = B;
lastChange = "2015-10-24 17:50:54 +0000";
layers = (
{
layerId = "51D8E656-CCF3-4A73-A171-84F1BD8DE29C";
name = "Regular Italic";
paths = (
{
closed = 1;
nodes = (
"349 0 LINE SMOOTH",
"479 0 OFFCURVE",
"560 61 OFFCURVE",
"587 186 CURVE SMOOTH",
"605 272 OFFCURVE",
"574 313 OFFCURVE",
"516 331 CURVE",
"568 355 OFFCURVE",
"608 402 OFFCURVE",
"623 472 CURVE SMOOTH",
"646 581 OFFCURVE",
"588 644 OFFCURVE",
"471 644 CURVE SMOOTH",
"159 644 LINE",
"23 0 LINE"
);
},
{
closed = 1;
nodes = (
"193 289 LINE",
"376 289 LINE SMOOTH",
"469 289 OFFCURVE",
"492 256 OFFCURVE",
"478 190 CURVE SMOOTH",
"461 109 OFFCURVE",
"420 80 OFFCURVE",
"343 80 CURVE SMOOTH",
"149 80 LINE"
);
},
{
closed = 1;
nodes = (
"251 562 LINE",
"427 562 LINE SMOOTH",
"525 562 OFFCURVE",
"534 529 OFFCURVE",
"520 463 CURVE SMOOTH",
"508 406 OFFCURVE",
"471 369 OFFCURVE",
"398 369 CURVE SMOOTH",
"210 369 LINE"
);
}
);
width = 631;
}
);
note = B;
unicode = 0042;
},
{
glyphname = C;
lastChange = "2015-10-24 17:50:51 +0000";
layers = (
{
layerId = "51D8E656-CCF3-4A73-A171-84F1BD8DE29C";
name = "Regular Italic";
paths = (
{
closed = 1;
nodes = (
"397 -10 OFFCURVE",
"460 0 OFFCURVE",
"517 17 CURVE",
"538 113 LINE",
"478 92 OFFCURVE",
"412 82 OFFCURVE",
"351 82 CURVE SMOOTH",
"189 82 OFFCURVE",
"147 161 OFFCURVE",
"179 312 CURVE SMOOTH",
"213 473 OFFCURVE",
"291 561 OFFCURVE",
"451 561 CURVE SMOOTH",
"517 561 OFFCURVE",
"575 549 OFFCURVE",
"625 528 CURVE",
"645 623 LINE",
"595 642 OFFCURVE",
"538 654 OFFCURVE",
"463 654 CURVE SMOOTH",
"229 654 OFFCURVE",
"114 523 OFFCURVE",
"69 312 CURVE SMOOTH",
"27 115 OFFCURVE",
"127 -10 OFFCURVE",
"322 -10 CURVE SMOOTH"
);
}
);
width = 597;
}
);
leftKerningGroup = C;
note = C;
rightKerningGroup = C;
unicode = 0043;
},
{
glyphname = Cacute;
lastChange = "2015-10-24 17:50:53 +0000";
layers = (
{
layerId = "51D8E656-CCF3-4A73-A171-84F1BD8DE29C";
name = "Regular Italic";
paths = (
{
closed = 1;
nodes = (
"397 -10 OFFCURVE",
"460 0 OFFCURVE",
"517 17 CURVE",
"538 113 LINE",
"478 92 OFFCURVE",
"412 82 OFFCURVE",
"351 82 CURVE SMOOTH",
"189 82 OFFCURVE",
"147 161 OFFCURVE",
"179 312 CURVE SMOOTH",
"213 473 OFFCURVE",
"291 561 OFFCURVE",
"451 561 CURVE SMOOTH",
"517 561 OFFCURVE",
"575 549 OFFCURVE",
"625 528 CURVE",
"645 623 LINE",
"595 642 OFFCURVE",
"538 654 OFFCURVE",
"463 654 CURVE SMOOTH",
"229 654 OFFCURVE",
"114 523 OFFCURVE",
"69 312 CURVE SMOOTH",
"27 115 OFFCURVE",
"127 -10 OFFCURVE",
"322 -10 CURVE SMOOTH"
);
},
{
closed = 1;
nodes = (
"495 688 LINE",
"617 865 LINE",
"521 865 LINE",
"408 688 LINE"
);
}
);
width = 597;
}
);
leftKerningGroup = C;
note = Cacute;
rightKerningGroup = C;
unicode = 0106;
},
{
glyphname = Ccaron;
lastChange = "2015-10-24 17:50:52 +0000";
layers = (
{
layerId = "51D8E656-CCF3-4A73-A171-84F1BD8DE29C";
name = "Regular Italic";
paths = (
{
closed = 1;
nodes = (
"397 -10 OFFCURVE",
"460 0 OFFCURVE",
"517 17 CURVE",
"538 113 LINE",
"478 92 OFFCURVE",
"412 82 OFFCURVE",
"351 82 CURVE SMOOTH",
"189 82 OFFCURVE",
"147 161 OFFCURVE",
"179 312 CURVE SMOOTH",
"213 473 OFFCURVE",
"291 561 OFFCURVE",
"451 561 CURVE SMOOTH",
"517 561 OFFCURVE",
"575 549 OFFCURVE",
"625 528 CURVE",
"645 623 LINE",
"595 642 OFFCURVE",
"538 654 OFFCURVE",
"463 654 CURVE SMOOTH",
"229 654 OFFCURVE",
"114 523 OFFCURVE",
"69 312 CURVE SMOOTH",
"27 115 OFFCURVE",
"127 -10 OFFCURVE",
"322 -10 CURVE SMOOTH"
);
},
{
closed = 1;
nodes = (
"507 687 LINE",
"666 848 LINE",
"576 848 LINE",
"479 747 LINE",
"426 848 LINE",
"341 848 LINE",
"431 687 LINE"
);
}
);
width = 597;
}
);
leftKerningGroup = C;
note = Ccaron;
rightKerningGroup = C;
unicode = 010C;
},
{
glyphname = Ccedilla;
lastChange = "2015-10-24 17:50:51 +0000";
layers = (
{
layerId = "51D8E656-CCF3-4A73-A171-84F1BD8DE29C";
name = "Regular Italic";
paths = (
{
closed = 1;
nodes = (
"346 -240 OFFCURVE",
"400 -203 OFFCURVE",
"414 -137 CURVE SMOOTH",
"426 -81 OFFCURVE",
"397 -47 OFFCURVE",
"326 -47 CURVE",
"346 -10 LINE",
"410 -8 OFFCURVE",
"466 2 OFFCURVE",
"517 17 CURVE",
"538 113 LINE",
"478 92 OFFCURVE",
"412 82 OFFCURVE",
"351 82 CURVE SMOOTH",
"189 82 OFFCURVE",
"147 161 OFFCURVE",
"179 312 CURVE SMOOTH",
"213 473 OFFCURVE",
"291 561 OFFCURVE",
"451 561 CURVE SMOOTH",
"517 561 OFFCURVE",
"575 549 OFFCURVE",
"625 528 CURVE",
"645 623 LINE",
"595 642 OFFCURVE",
"538 654 OFFCURVE",
"463 654 CURVE SMOOTH",
"229 654 OFFCURVE",
"114 523 OFFCURVE",
"69 312 CURVE SMOOTH",
"30 132 OFFCURVE",
"111 11 OFFCURVE",
"274 -7 CURVE",
"229 -95 LINE",
"269 -95 LINE SMOOTH",
"321 -95 OFFCURVE",
"348 -99 OFFCURVE",
"341 -136 CURVE SMOOTH",
"333 -173 OFFCURVE",
"307 -181 OFFCURVE",
"247 -181 CURVE SMOOTH",
"226 -181 OFFCURVE",
"204 -178 OFFCURVE",
"187 -173 CURVE",
"174 -232 LINE",
"188 -236 OFFCURVE",
"223 -240 OFFCURVE",
"245 -240 CURVE SMOOTH"
);
}
);
width = 597;
}
);
leftKerningGroup = C;
note = Ccedilla;
rightKerningGroup = C;
unicode = 00C7;
},
{
glyphname = Ccircumflex;
lastChange = "2015-10-24 17:50:53 +0000";
layers = (
{
layerId = "51D8E656-CCF3-4A73-A171-84F1BD8DE29C";
name = "Regular Italic";
paths = (
{
closed = 1;
nodes = (
"397 -10 OFFCURVE",
"460 0 OFFCURVE",
"517 17 CURVE",
"538 113 LINE",
"478 92 OFFCURVE",
"412 82 OFFCURVE",
"351 82 CURVE SMOOTH",
"189 82 OFFCURVE",
"147 161 OFFCURVE",
"179 312 CURVE SMOOTH",
"213 473 OFFCURVE",
"291 561 OFFCURVE",
"451 561 CURVE SMOOTH",
"517 561 OFFCURVE",
"575 549 OFFCURVE",
"625 528 CURVE",
"645 623 LINE",
"595 642 OFFCURVE",
"538 654 OFFCURVE",
"463 654 CURVE SMOOTH",
"229 654 OFFCURVE",
"114 523 OFFCURVE",
"69 312 CURVE SMOOTH",
"27 115 OFFCURVE",
"127 -10 OFFCURVE",
"322 -10 CURVE SMOOTH"
);
},
{
closed = 1;
nodes = (
"370 687 LINE",
"465 788 LINE",
"520 687 LINE",
"604 687 LINE",
"513 848 LINE",
"437 848 LINE",
"279 687 LINE"
);
}
);
width = 597;
}
);
leftKerningGroup = C;
note = Ccircumflex;
rightKerningGroup = C;
unicode = 0108;
},
{
glyphname = Cdotaccent;
lastChange = "2015-10-24 17:50:52 +0000";
layers = (
{
layerId = "51D8E656-CCF3-4A73-A171-84F1BD8DE29C";
name = "Regular Italic";
paths = (
{
closed = 1;
nodes = (
"397 -10 OFFCURVE",
"460 0 OFFCURVE",
"517 17 CURVE",
"538 113 LINE",
"478 92 OFFCURVE",
"412 82 OFFCURVE",
"351 82 CURVE SMOOTH",
"189 82 OFFCURVE",
"147 161 OFFCURVE",
"179 312 CURVE SMOOTH",
"213 473 OFFCURVE",
"291 561 OFFCURVE",
"451 561 CURVE SMOOTH",
"517 561 OFFCURVE",
"575 549 OFFCURVE",
"625 528 CURVE",
"645 623 LINE",
"595 642 OFFCURVE",
"538 654 OFFCURVE",
"463 654 CURVE SMOOTH",
"229 654 OFFCURVE",
"114 523 OFFCURVE",
"69 312 CURVE SMOOTH",
"27 115 OFFCURVE",
"127 -10 OFFCURVE",
"322 -10 CURVE SMOOTH"
);
},
{
closed = 1;
nodes = (
"510 711 LINE",
"529 799 LINE",
"437 799 LINE",
"418 711 LINE"
);
}
);
width = 597;
}
);
leftKerningGroup = C;
note = Cdotaccent;
rightKerningGroup = C;
unicode = 010A;
},
{
glyphname = D;
lastChange = "2015-10-24 17:50:52 +0000";
layers = (
{
layerId = "51D8E656-CCF3-4A73-A171-84F1BD8DE29C";
name = "Regular Italic";
paths = (
{
closed = 1;
nodes = (
"287 0 LINE SMOOTH",
"480 0 OFFCURVE",
"585 98 OFFCURVE",
"632 318 CURVE SMOOTH",
"681 546 OFFCURVE",
"603 644 OFFCURVE",
"420 644 CURVE SMOOTH",
"159 644 LINE",
"23 0 LINE"
);
},
{
closed = 1;
nodes = (
"250 559 LINE",
"385 559 LINE SMOOTH",
"542 559 OFFCURVE",
"563 507 OFFCURVE",
"523 318 CURVE SMOOTH",
"482 127 OFFCURVE",
"415 84 OFFCURVE",
"284 84 CURVE SMOOTH",
"149 84 LINE"
);
}
);
width = 649;
}
);
note = D;
rightKerningGroup = D;
unicode = 0044;
},
{
glyphname = Eth;
lastChange = "2015-10-24 17:50:52 +0000";
layers = (
{
layerId = "51D8E656-CCF3-4A73-A171-84F1BD8DE29C";
name = "Regular Italic";
paths = (
{
closed = 1;
nodes = (
"327 0 LINE SMOOTH",
"520 0 OFFCURVE",
"625 98 OFFCURVE",
"672 318 CURVE SMOOTH",
"721 546 OFFCURVE",
"643 644 OFFCURVE",
"460 644 CURVE SMOOTH",
"199 644 LINE",
"138 358 LINE",
"69 358 LINE",
"51 274 LINE",
"121 274 LINE",
"63 0 LINE"
);
},
{
closed = 1;
nodes = (
"229 274 LINE",
"395 274 LINE",
"413 358 LINE",
"247 358 LINE",
"290 559 LINE",
"425 559 LINE SMOOTH",
"582 559 OFFCURVE",
"603 507 OFFCURVE",
"563 318 CURVE SMOOTH",
"522 127 OFFCURVE",
"455 84 OFFCURVE",
"324 84 CURVE SMOOTH",
"189 84 LINE"
);
}
);
width = 689;
}
);
note = Eth;
rightKerningGroup = D;
unicode = 00D0;
},
{
glyphname = Dcaron;
lastChange = "2015-10-24 17:50:52 +0000";
layers = (
{
layerId = "51D8E656-CCF3-4A73-A171-84F1BD8DE29C";
name = "Regular Italic";
paths = (
{
closed = 1;
nodes = (
"287 0 LINE SMOOTH",
"480 0 OFFCURVE",
"585 98 OFFCURVE",
"632 318 CURVE SMOOTH",
"681 546 OFFCURVE",
"603 644 OFFCURVE",
"420 644 CURVE SMOOTH",
"159 644 LINE",
"23 0 LINE"
);
},
{
closed = 1;
nodes = (
"250 559 LINE",
"385 559 LINE SMOOTH",
"542 559 OFFCURVE",
"563 507 OFFCURVE",
"523 318 CURVE SMOOTH",
"482 127 OFFCURVE",
"415 84 OFFCURVE",
"284 84 CURVE SMOOTH",
"149 84 LINE"
);
},
{
closed = 1;
nodes = (
"447 698 LINE",
"606 859 LINE",
"516 859 LINE",
"419 758 LINE",
"366 859 LINE",
"281 859 LINE",
"371 698 LINE"
);
}
);
width = 649;
}
);
note = Dcaron;
rightKerningGroup = D;
unicode = 010E;
},
{
glyphname = Dcroat;
lastChange = "2015-10-24 17:50:51 +0000";
layers = (
{
layerId = "51D8E656-CCF3-4A73-A171-84F1BD8DE29C";
name = "Regular Italic";
paths = (
{
closed = 1;
nodes = (
"317 0 LINE SMOOTH",
"510 0 OFFCURVE",
"615 98 OFFCURVE",
"662 318 CURVE SMOOTH",
"711 546 OFFCURVE",
"633 644 OFFCURVE",
"450 644 CURVE SMOOTH",
"189 644 LINE",
"128 358 LINE",
"59 358 LINE",
"41 274 LINE",
"111 274 LINE",
"53 0 LINE"
);
},
{
closed = 1;
nodes = (
"219 274 LINE",
"385 274 LINE",
"403 358 LINE",
"237 358 LINE",
"280 559 LINE",
"415 559 LINE SMOOTH",
"572 559 OFFCURVE",
"593 507 OFFCURVE",
"553 318 CURVE SMOOTH",
"512 127 OFFCURVE",
"445 84 OFFCURVE",
"314 84 CURVE SMOOTH",
"179 84 LINE"
);
}
);
width = 679;
}
);
note = Dcroat;
rightKerningGroup = D;
unicode = 0110;
},
{
glyphname = Ddotbelow;
lastChange = "2015-10-24 17:50:52 +0000";
layers = (
{
layerId = "51D8E656-CCF3-4A73-A171-84F1BD8DE29C";
name = "Regular Italic";
paths = (
{
closed = 1;
nodes = (
"287 0 LINE SMOOTH",
"480 0 OFFCURVE",
"585 98 OFFCURVE",
"632 318 CURVE SMOOTH",
"681 546 OFFCURVE",
"603 644 OFFCURVE",
"420 644 CURVE SMOOTH",
"159 644 LINE",
"23 0 LINE"
);
},
{
closed = 1;
nodes = (
"289 -173 LINE",
"307 -85 LINE",
"213 -85 LINE",
"195 -173 LINE"
);
},
{
closed = 1;
nodes = (
"250 559 LINE",
"385 559 LINE SMOOTH",
"542 559 OFFCURVE",
"563 507 OFFCURVE",
"523 318 CURVE SMOOTH",
"482 127 OFFCURVE",
"415 84 OFFCURVE",
"284 84 CURVE SMOOTH",
"149 84 LINE"
);
}
);
width = 649;
}
);
note = Ddotbelow;
rightKerningGroup = D;
unicode = 1E0C;
},
{
glyphname = Dlinebelow;
lastChange = "2015-10-24 17:50:54 +0000";
layers = (
{
layerId = "51D8E656-CCF3-4A73-A171-84F1BD8DE29C";
name = "Regular Italic";
paths = (
{
closed = 1;
nodes = (
"287 0 LINE SMOOTH",
"480 0 OFFCURVE",
"585 98 OFFCURVE",
"632 318 CURVE SMOOTH",
"681 546 OFFCURVE",
"603 644 OFFCURVE",
"420 644 CURVE SMOOTH",
"159 644 LINE",
"23 0 LINE"
);
},
{
closed = 1;
nodes = (
"353 -164 LINE",
"368 -93 LINE",
"71 -93 LINE",
"56 -164 LINE"
);
},
{
closed = 1;
nodes = (
"250 559 LINE",
"385 559 LINE SMOOTH",
"542 559 OFFCURVE",
"563 507 OFFCURVE",
"523 318 CURVE SMOOTH",
"482 127 OFFCURVE",
"415 84 OFFCURVE",
"284 84 CURVE SMOOTH",
"149 84 LINE"
);
}
);
width = 649;
}
);
note = Dlinebelow;
rightKerningGroup = D;
unicode = 1E0E;
},
{
glyphname = E;
lastChange = "2015-10-24 17:50:54 +0000";
layers = (
{
layerId = "51D8E656-CCF3-4A73-A171-84F1BD8DE29C";
name = "Regular Italic";
paths = (
{
closed = 1;
nodes = (
"472 0 LINE",
"489 84 LINE",
"149 84 LINE",
"191 280 LINE",
"494 280 LINE",
"512 364 LINE",
"209 364 LINE",
"250 559 LINE",
"590 559 LINE",
"608 644 LINE",
"159 644 LINE",
"23 0 LINE"
);
}
);
width = 550;
}
);
leftKerningGroup = E;
note = E;
rightKerningGroup = E;
unicode = 0045;
},
{
glyphname = Eacute;
lastChange = "2015-10-24 17:50:53 +0000";
layers = (
{
layerId = "51D8E656-CCF3-4A73-A171-84F1BD8DE29C";
name = "Regular Italic";
paths = (
{
closed = 1;
nodes = (
"472 0 LINE",
"489 84 LINE",
"149 84 LINE",
"191 280 LINE",
"494 280 LINE",
"512 364 LINE",
"209 364 LINE",
"250 559 LINE",
"590 559 LINE",
"608 644 LINE",
"159 644 LINE",
"23 0 LINE"
);
},
{
closed = 1;
nodes = (
"423 688 LINE",
"545 865 LINE",
"449 865 LINE",
"336 688 LINE"
);
}
);
width = 550;
}
);
leftKerningGroup = E;
note = Eacute;
rightKerningGroup = E;
unicode = 00C9;
},
{
glyphname = Ebreve;
lastChange = "2015-10-24 17:50:54 +0000";
layers = (
{
layerId = "51D8E656-CCF3-4A73-A171-84F1BD8DE29C";
name = "Regular Italic";
paths = (
{
closed = 1;
nodes = (
"472 0 LINE",
"489 84 LINE",
"149 84 LINE",
"191 280 LINE",
"494 280 LINE",
"512 364 LINE",
"209 364 LINE",
"250 559 LINE",
"590 559 LINE",
"608 644 LINE",
"159 644 LINE",
"23 0 LINE"
);
},
{
closed = 1;
nodes = (
"483 688 OFFCURVE",
"550 743 OFFCURVE",
"568 829 CURVE",
"491 829 LINE",
"481 783 OFFCURVE",
"450 753 OFFCURVE",
"405 753 CURVE SMOOTH",
"354 753 OFFCURVE",
"344 783 OFFCURVE",
"354 829 CURVE",
"284 829 LINE",
"266 743 OFFCURVE",
"306 688 OFFCURVE",
"394 688 CURVE SMOOTH"
);
}
);
width = 555;
}
);
leftKerningGroup = E;
note = Ebreve;
rightKerningGroup = E;
unicode = 0114;
},
{
glyphname = Ecaron;
lastChange = "2015-10-24 17:50:52 +0000";
layers = (
{
layerId = "51D8E656-CCF3-4A73-A171-84F1BD8DE29C";
name = "Regular Italic";
paths = (
{
closed = 1;
nodes = (
"472 0 LINE",
"489 84 LINE",
"149 84 LINE",
"191 280 LINE",
"494 280 LINE",
"512 364 LINE",
"209 364 LINE",
"250 559 LINE",
"590 559 LINE",
"608 644 LINE",
"159 644 LINE",
"23 0 LINE"
);
},
{
closed = 1;
nodes = (
"434 687 LINE",
"593 848 LINE",
"503 848 LINE",
"406 747 LINE",
"353 848 LINE",
"268 848 LINE",
"358 687 LINE"
);
}
);
width = 555;
}
);
leftKerningGroup = E;
note = Ecaron;
rightKerningGroup = E;
unicode = 011A;
},
{
glyphname = Ecircumflex;
lastChange = "2015-10-24 17:50:52 +0000";
layers = (
{
layerId = "51D8E656-CCF3-4A73-A171-84F1BD8DE29C";
name = "Regular Italic";
paths = (
{
closed = 1;
nodes = (
"472 0 LINE",
"489 84 LINE",
"149 84 LINE",
"191 280 LINE",
"494 280 LINE",
"512 364 LINE",
"209 364 LINE",
"250 559 LINE",
"590 559 LINE",
"608 644 LINE",
"159 644 LINE",
"23 0 LINE"
);
},
{
closed = 1;
nodes = (
"314 687 LINE",
"409 788 LINE",
"464 687 LINE",
"548 687 LINE",
"457 848 LINE",
"381 848 LINE",
"223 687 LINE"
);
}
);
width = 555;
}
);
leftKerningGroup = E;
note = Ecircumflex;
rightKerningGroup = E;
unicode = 00CA;
},
{
glyphname = Ecircumflexacute;
lastChange = "2015-10-24 17:50:52 +0000";
layers = (
{
layerId = "51D8E656-CCF3-4A73-A171-84F1BD8DE29C";
name = "Regular Italic";
paths = (
{
closed = 1;
nodes = (
"472 0 LINE",
"489 84 LINE",
"149 84 LINE",
"191 280 LINE",
"494 280 LINE",
"512 364 LINE",
"209 364 LINE",
"250 559 LINE",
"590 559 LINE",
"608 644 LINE",
"159 644 LINE",
"23 0 LINE"
);
},
{
closed = 1;
nodes = (
"320 686 LINE",
"408 768 LINE",
"462 686 LINE",
"548 686 LINE",
"456 813 LINE",
"372 813 LINE",
"226 686 LINE"
);
},
{
closed = 1;
nodes = (
"579 799 LINE",
"677 932 LINE",
"594 932 LINE",
"502 799 LINE"
);
}
);
width = 553;
}
);
leftKerningGroup = E;
note = Ecircumflexacute;
rightKerningGroup = E;
unicode = 1EBE;
},
{
glyphname = Ecircumflexdotbelow;
lastChange = "2015-10-24 17:50:52 +0000";
layers = (
{
layerId = "51D8E656-CCF3-4A73-A171-84F1BD8DE29C";
name = "Regular Italic";
paths = (
{
closed = 1;
nodes = (
"472 0 LINE",
"489 84 LINE",
"149 84 LINE",
"191 280 LINE",
"494 280 LINE",
"512 364 LINE",
"209 364 LINE",
"250 559 LINE",
"590 559 LINE",
"608 644 LINE",
"159 644 LINE",
"23 0 LINE"
);
},
{
closed = 1;
nodes = (
"247 -173 LINE",
"265 -85 LINE",
"171 -85 LINE",
"153 -173 LINE"
);
},
{
closed = 1;
nodes = (
"310 687 LINE",
"405 788 LINE",
"460 687 LINE",
"544 687 LINE",
"453 848 LINE",
"377 848 LINE",
"219 687 LINE"
);
}
);
width = 555;
}
);
leftKerningGroup = E;
note = Ecircumflexdotbelow;
rightKerningGroup = E;
unicode = 1EC6;
},
{
glyphname = Ecircumflexgrave;
lastChange = "2015-10-24 17:50:54 +0000";
layers = (
{
layerId = "51D8E656-CCF3-4A73-A171-84F1BD8DE29C";
name = "Regular Italic";
paths = (
{
closed = 1;
nodes = (
"472 0 LINE",
"489 84 LINE",
"149 84 LINE",
"191 280 LINE",
"494 280 LINE",
"512 364 LINE",
"209 364 LINE",
"250 559 LINE",
"590 559 LINE",
"608 644 LINE",
"159 644 LINE",
"23 0 LINE"
);
},
{
closed = 1;
nodes = (
"330 799 LINE",
"295 932 LINE",
"211 932 LINE",
"253 799 LINE"
);
},
{
closed = 1;
nodes = (
"328 686 LINE",
"417 768 LINE",
"470 686 LINE",
"556 686 LINE",
"466 813 LINE",
"381 813 LINE",
"236 686 LINE"
);
}
);
width = 555;
}
);
leftKerningGroup = E;
note = Ecircumflexgrave;
rightKerningGroup = E;
unicode = 1EC0;
},
{
glyphname = Ecircumflexhookabove;
lastChange = "2015-10-24 17:50:54 +0000";
layers = (
{
layerId = "51D8E656-CCF3-4A73-A171-84F1BD8DE29C";
name = "Regular Italic";
paths = (
{
closed = 1;
nodes = (
"472 0 LINE",
"489 84 LINE",
"149 84 LINE",
"191 280 LINE",
"494 280 LINE",
"512 364 LINE",
"209 364 LINE",
"250 559 LINE",
"590 559 LINE",
"608 644 LINE",
"159 644 LINE",
"23 0 LINE"
);
},
{
closed = 1;
nodes = (
"322 686 LINE",
"411 768 LINE",
"464 686 LINE",
"550 686 LINE",
"459 813 LINE",
"374 813 LINE",
"229 686 LINE"
);
},
{
closed = 1;
nodes = (
"585 778 LINE",
"592 812 LINE",
"648 820 OFFCURVE",
"676 845 OFFCURVE",
"686 889 CURVE SMOOTH",
"696 936 OFFCURVE",
"664 967 OFFCURVE",
"599 967 CURVE SMOOTH",
"566 967 OFFCURVE",
"542 962 OFFCURVE",
"521 955 CURVE",
"509 902 LINE",
"527 909 OFFCURVE",
"546 914 OFFCURVE",
"567 914 CURVE SMOOTH",
"599 914 OFFCURVE",
"612 905 OFFCURVE",
"607 883 CURVE SMOOTH",
"602 859 OFFCURVE",
"587 847 OFFCURVE",
"523 844 CURVE",
"509 778 LINE"
);
}
);
width = 554;
}
);
leftKerningGroup = E;
note = Ecircumflexhookabove;
rightKerningGroup = E;
unicode = 1EC2;
},
{
glyphname = Ecircumflextilde;
lastChange = "2015-10-24 17:50:54 +0000";
layers = (
{
layerId = "51D8E656-CCF3-4A73-A171-84F1BD8DE29C";
name = "Regular Italic";
paths = (
{
closed = 1;
nodes = (
"472 0 LINE",
"489 84 LINE",
"149 84 LINE",
"191 280 LINE",
"494 280 LINE",
"512 364 LINE",
"209 364 LINE",
"250 559 LINE",
"590 559 LINE",
"608 644 LINE",
"159 644 LINE",
"23 0 LINE"
);
},
{
closed = 1;
nodes = (
"324 687 LINE",
"413 769 LINE",
"466 687 LINE",
"552 687 LINE",
"461 814 LINE",
"376 814 LINE",
"231 687 LINE"
);
},
{
closed = 1;
nodes = (
"537 822 OFFCURVE",
"568 835 OFFCURVE",
"584 852 CURVE",
"600 923 LINE",
"578 900 OFFCURVE",
"550 888 OFFCURVE",
"516 888 CURVE SMOOTH",
"465 888 OFFCURVE",
"433 925 OFFCURVE",
"377 925 CURVE SMOOTH",
"345 925 OFFCURVE",
"309 913 OFFCURVE",
"289 896 CURVE",
"274 825 LINE",
"301 850 OFFCURVE",
"331 860 OFFCURVE",
"364 860 CURVE SMOOTH",
"409 860 OFFCURVE",
"450 822 OFFCURVE",
"503 822 CURVE SMOOTH"
);
}
);
width = 555;
}
);
leftKerningGroup = E;
note = Ecircumflextilde;
rightKerningGroup = E;
unicode = 1EC4;
},
{
glyphname = Edieresis;
lastChange = "2015-10-24 17:50:52 +0000";
layers = (
{
layerId = "51D8E656-CCF3-4A73-A171-84F1BD8DE29C";
name = "Regular Italic";
paths = (
{
closed = 1;
nodes = (
"472 0 LINE",
"489 84 LINE",
"149 84 LINE",
"191 280 LINE",
"494 280 LINE",
"512 364 LINE",
"209 364 LINE",
"250 559 LINE",
"590 559 LINE",
"608 644 LINE",
"159 644 LINE",
"23 0 LINE"
);
},
{
closed = 1;
nodes = (
"348 712 LINE",
"367 798 LINE",
"276 798 LINE",
"257 712 LINE"
);
},
{
closed = 1;
nodes = (
"534 712 LINE",
"553 798 LINE",
"461 798 LINE",
"442 712 LINE"
);
}
);
width = 555;
}
);
leftKerningGroup = E;
note = Edieresis;
rightKerningGroup = E;
unicode = 00CB;
},
{
glyphname = Edotaccent;
lastChange = "2015-10-24 17:50:53 +0000";
layers = (
{
layerId = "51D8E656-CCF3-4A73-A171-84F1BD8DE29C";
name = "Regular Italic";
paths = (
{
closed = 1;
nodes = (
"472 0 LINE",
"489 84 LINE",
"149 84 LINE",
"191 280 LINE",
"494 280 LINE",
"512 364 LINE",
"209 364 LINE",
"250 559 LINE",
"590 559 LINE",
"608 644 LINE",
"159 644 LINE",
"23 0 LINE"
);
},
{
closed = 1;
nodes = (
"439 711 LINE",
"458 799 LINE",
"366 799 LINE",
"347 711 LINE"
);
}
);
width = 555;
}
);
leftKerningGroup = E;
note = Edotaccent;
rightKerningGroup = E;
unicode = 0116;
},
{
glyphname = Edotbelow;
lastChange = "2015-10-24 17:50:53 +0000";
layers = (
{
layerId = "51D8E656-CCF3-4A73-A171-84F1BD8DE29C";
name = "Regular Italic";
paths = (
{
closed = 1;
nodes = (
"472 0 LINE",
"489 84 LINE",
"149 84 LINE",
"191 280 LINE",
"494 280 LINE",
"512 364 LINE",
"209 364 LINE",
"250 559 LINE",
"590 559 LINE",
"608 644 LINE",
"159 644 LINE",
"23 0 LINE"
);
},
{
closed = 1;
nodes = (
"251 -173 LINE",
"269 -85 LINE",
"175 -85 LINE",
"157 -173 LINE"
);
}
);
width = 555;
}
);
leftKerningGroup = E;
note = Edotbelow;
rightKerningGroup = E;
unicode = 1EB8;
},
{
glyphname = Egrave;
lastChange = "2015-10-24 17:50:54 +0000";
layers = (
{
layerId = "51D8E656-CCF3-4A73-A171-84F1BD8DE29C";
name = "Regular Italic";
paths = (
{
closed = 1;
nodes = (
"472 0 LINE",
"489 84 LINE",
"149 84 LINE",
"191 280 LINE",
"494 280 LINE",
"512 364 LINE",
"209 364 LINE",
"250 559 LINE",
"590 559 LINE",
"608 644 LINE",
"159 644 LINE",
"23 0 LINE"
);
},
{
closed = 1;
nodes = (
"446 688 LINE",
"408 865 LINE",
"313 865 LINE",
"358 688 LINE"
);
}
);
width = 555;
}
);
leftKerningGroup = E;
note = Egrave;
rightKerningGroup = E;
unicode = 00C8;
},
{
glyphname = Ehookabove;
lastChange = "2015-10-24 17:50:54 +0000";
layers = (
{
layerId = "51D8E656-CCF3-4A73-A171-84F1BD8DE29C";
name = "Regular Italic";
paths = (
{
closed = 1;
nodes = (
"472 0 LINE",
"489 84 LINE",
"149 84 LINE",
"191 280 LINE",
"494 280 LINE",
"512 364 LINE",
"209 364 LINE",
"250 559 LINE",
"590 559 LINE",
"608 644 LINE",
"159 644 LINE",
"23 0 LINE"
);
},
{
closed = 1;
nodes = (
"428 687 LINE",
"438 734 LINE",
"506 744 OFFCURVE",
"535 773 OFFCURVE",
"546 828 CURVE SMOOTH",
"559 885 OFFCURVE",
"522 921 OFFCURVE",
"440 921 CURVE SMOOTH",
"406 921 OFFCURVE",
"368 916 OFFCURVE",
"344 908 CURVE",
"332 849 LINE",
"350 856 OFFCURVE",
"378 861 OFFCURVE",
"398 861 CURVE SMOOTH",
"446 861 OFFCURVE",
"470 849 OFFCURVE",
"464 819 CURVE SMOOTH",
"457 786 OFFCURVE",
"438 773 OFFCURVE",
"361 769 CURVE",
"343 687 LINE"
);
}
);
width = 555;
}
);
leftKerningGroup = E;
note = Ehookabove;
rightKerningGroup = E;
unicode = 1EBA;
},
{
glyphname = Emacron;
lastChange = "2015-10-24 17:50:54 +0000";
layers = (
{
layerId = "51D8E656-CCF3-4A73-A171-84F1BD8DE29C";
name = "Regular Italic";
paths = (
{
closed = 1;
nodes = (
"472 0 LINE",
"489 84 LINE",
"149 84 LINE",
"191 280 LINE",
"494 280 LINE",
"512 364 LINE",
"209 364 LINE",
"250 559 LINE",
"590 559 LINE",
"608 644 LINE",
"159 644 LINE",
"23 0 LINE"
);
},
{
closed = 1;
nodes = (
"538 721 LINE",
"553 792 LINE",
"256 792 LINE",
"241 721 LINE"
);
}
);
width = 555;
}
);
leftKerningGroup = E;
note = Emacron;
rightKerningGroup = E;
unicode = 0112;
},
{
glyphname = Eogonek;
lastChange = "2015-10-24 17:50:54 +0000";
layers = (
{
layerId = "51D8E656-CCF3-4A73-A171-84F1BD8DE29C";
name = "Regular Italic";
paths = (
{
closed = 1;
nodes = (
"365 -220 OFFCURVE",
"396 -215 OFFCURVE",
"415 -207 CURVE",
"429 -141 LINE",
"415 -148 OFFCURVE",
"393 -152 OFFCURVE",
"377 -152 CURVE SMOOTH",
"347 -152 OFFCURVE",
"332 -143 OFFCURVE",
"339 -112 CURVE SMOOTH",
"347 -72 OFFCURVE",
"381 -33 OFFCURVE",
"431 0 CURVE",
"472 0 LINE",
"489 84 LINE",
"149 84 LINE",
"191 280 LINE",
"494 280 LINE",
"512 364 LINE",
"209 364 LINE",
"250 559 LINE",
"590 559 LINE",
"608 644 LINE",
"159 644 LINE",
"23 0 LINE",
"349 0 LINE",
"298 -31 OFFCURVE",
"259 -80 OFFCURVE",
"248 -131 CURVE SMOOTH",
"235 -193 OFFCURVE",
"279 -220 OFFCURVE",
"336 -220 CURVE SMOOTH"
);
}
);
width = 555;
}
);
leftKerningGroup = E;
note = Eogonek;
rightKerningGroup = E;
unicode = 0118;
},
{
glyphname = Etilde;
lastChange = "2015-10-24 17:50:52 +0000";
layers = (
{
layerId = "51D8E656-CCF3-4A73-A171-84F1BD8DE29C";
name = "Regular Italic";
paths = (
{
closed = 1;
nodes = (
"472 0 LINE",
"489 84 LINE",
"149 84 LINE",
"191 280 LINE",
"494 280 LINE",
"512 364 LINE",
"209 364 LINE",
"250 559 LINE",
"590 559 LINE",
"608 644 LINE",
"159 644 LINE",
"23 0 LINE"
);
},
{
closed = 1;
nodes = (
"507 703 OFFCURVE",
"540 716 OFFCURVE",
"557 734 CURVE",
"574 814 LINE",
"551 790 OFFCURVE",
"522 777 OFFCURVE",
"486 777 CURVE SMOOTH",
"433 777 OFFCURVE",
"399 816 OFFCURVE",
"341 816 CURVE SMOOTH",
"308 816 OFFCURVE",
"271 804 OFFCURVE",
"250 786 CURVE",
"233 706 LINE",
"262 732 OFFCURVE",
"293 742 OFFCURVE",
"328 742 CURVE SMOOTH",
"374 742 OFFCURVE",
"416 703 OFFCURVE",
"471 703 CURVE SMOOTH"
);
}
);
width = 555;
}
);
leftKerningGroup = E;
note = Etilde;
rightKerningGroup = E;
unicode = 1EBC;
},
{
glyphname = F;
lastChange = "2015-10-24 17:50:51 +0000";
layers = (
{
layerId = "51D8E656-CCF3-4A73-A171-84F1BD8DE29C";
name = "Regular Italic";
paths = (
{
closed = 1;
nodes = (
"132 0 LINE",
"191 280 LINE",
"483 280 LINE",
"501 364 LINE",
"209 364 LINE",
"250 559 LINE",
"579 559 LINE",
"597 644 LINE",
"159 644 LINE",
"23 0 LINE"
);
}
);
width = 524;
}
);
note = F;
unicode = 0046;
},
{
glyphname = G;
lastChange = "2015-10-24 17:50:54 +0000";
layers = (
{
layerId = "51D8E656-CCF3-4A73-A171-84F1BD8DE29C";
name = "Regular Italic";
paths = (
{
closed = 1;
nodes = (
"439 -10 OFFCURVE",
"519 16 OFFCURVE",
"567 43 CURVE",
"633 353 LINE",
"379 353 LINE",
"363 282 LINE",
"524 282 LINE",
"486 102 LINE",
"446 88 OFFCURVE",
"402 82 OFFCURVE",
"343 82 CURVE SMOOTH",
"190 82 OFFCURVE",
"146 152 OFFCURVE",
"178 309 CURVE SMOOTH",
"211 472 OFFCURVE",
"296 561 OFFCURVE",
"454 561 CURVE SMOOTH",
"519 561 OFFCURVE",
"579 551 OFFCURVE",
"629 531 CURVE",
"649 625 LINE",
"598 644 OFFCURVE",
"541 654 OFFCURVE",
"465 654 CURVE SMOOTH",
"237 654 OFFCURVE",
"113 521 OFFCURVE",
"68 309 CURVE SMOOTH",
"27 113 OFFCURVE",
"116 -10 OFFCURVE",
"320 -10 CURVE SMOOTH"
);
}
);
width = 641;
}
);
leftKerningGroup = G;
note = G;
unicode = 0047;
},
{
glyphname = Gbreve;
lastChange = "2015-10-24 17:50:51 +0000";
layers = (
{
layerId = "51D8E656-CCF3-4A73-A171-84F1BD8DE29C";
name = "Regular Italic";
paths = (
{
closed = 1;
nodes = (
"439 -10 OFFCURVE",
"519 16 OFFCURVE",
"567 43 CURVE",
"633 353 LINE",
"379 353 LINE",
"363 282 LINE",
"524 282 LINE",
"486 102 LINE",
"446 88 OFFCURVE",
"402 82 OFFCURVE",
"343 82 CURVE SMOOTH",
"190 82 OFFCURVE",
"146 152 OFFCURVE",
"178 309 CURVE SMOOTH",
"211 472 OFFCURVE",
"296 561 OFFCURVE",
"454 561 CURVE SMOOTH",
"519 561 OFFCURVE",
"579 551 OFFCURVE",
"629 531 CURVE",
"649 625 LINE",
"598 644 OFFCURVE",
"541 654 OFFCURVE",
"465 654 CURVE SMOOTH",
"237 654 OFFCURVE",
"113 521 OFFCURVE",
"68 309 CURVE SMOOTH",
"27 113 OFFCURVE",
"116 -10 OFFCURVE",
"320 -10 CURVE SMOOTH"
);
},
{
closed = 1;
nodes = (
"552 688 OFFCURVE",
"619 743 OFFCURVE",
"637 829 CURVE",
"560 829 LINE",
"550 783 OFFCURVE",
"519 753 OFFCURVE",
"474 753 CURVE SMOOTH",
"423 753 OFFCURVE",
"413 783 OFFCURVE",
"423 829 CURVE",
"353 829 LINE",
"335 743 OFFCURVE",
"375 688 OFFCURVE",
"463 688 CURVE SMOOTH"
);
}
);
width = 641;
}
);
leftKerningGroup = G;
note = Gbreve;
unicode = 011E;
},
{
glyphname = Gcaron;
lastChange = "2015-10-24 17:50:53 +0000";
layers = (
{
layerId = "51D8E656-CCF3-4A73-A171-84F1BD8DE29C";
name = "Regular Italic";
paths = (
{
closed = 1;
nodes = (
"439 -10 OFFCURVE",
"519 16 OFFCURVE",
"567 43 CURVE",
"633 353 LINE",
"379 353 LINE",
"363 282 LINE",
"524 282 LINE",
"486 102 LINE",
"446 88 OFFCURVE",
"402 82 OFFCURVE",
"343 82 CURVE SMOOTH",
"190 82 OFFCURVE",
"146 152 OFFCURVE",
"178 309 CURVE SMOOTH",
"211 472 OFFCURVE",
"296 561 OFFCURVE",
"454 561 CURVE SMOOTH",
"519 561 OFFCURVE",
"579 551 OFFCURVE",
"629 531 CURVE",
"649 625 LINE",
"598 644 OFFCURVE",
"541 654 OFFCURVE",
"465 654 CURVE SMOOTH",
"237 654 OFFCURVE",
"113 521 OFFCURVE",
"68 309 CURVE SMOOTH",
"27 113 OFFCURVE",
"116 -10 OFFCURVE",
"320 -10 CURVE SMOOTH"
);
},
{
closed = 1;
nodes = (
"501 686 LINE",
"660 847 LINE",
"570 847 LINE",
"473 746 LINE",
"420 847 LINE",
"335 847 LINE",
"425 686 LINE"
);
}
);
width = 641;
}
);
leftKerningGroup = G;
note = Gcaron;
unicode = 01E6;
},
{
glyphname = Gcircumflex;
lastChange = "2015-10-24 17:50:52 +0000";
layers = (
{
layerId = "51D8E656-CCF3-4A73-A171-84F1BD8DE29C";
name = "Regular Italic";
paths = (
{
closed = 1;
nodes = (
"439 -10 OFFCURVE",
"519 16 OFFCURVE",
"567 43 CURVE",
"633 353 LINE",
"379 353 LINE",
"363 282 LINE",
"524 282 LINE",
"486 102 LINE",
"446 88 OFFCURVE",
"402 82 OFFCURVE",
"343 82 CURVE SMOOTH",
"190 82 OFFCURVE",
"146 152 OFFCURVE",
"178 309 CURVE SMOOTH",
"211 472 OFFCURVE",
"296 561 OFFCURVE",
"454 561 CURVE SMOOTH",
"519 561 OFFCURVE",
"579 551 OFFCURVE",
"629 531 CURVE",
"649 625 LINE",
"598 644 OFFCURVE",
"541 654 OFFCURVE",
"465 654 CURVE SMOOTH",
"237 654 OFFCURVE",
"113 521 OFFCURVE",
"68 309 CURVE SMOOTH",
"27 113 OFFCURVE",
"116 -10 OFFCURVE",
"320 -10 CURVE SMOOTH"
);
},
{
closed = 1;
nodes = (
"391 687 LINE",
"486 788 LINE",
"541 687 LINE",
"625 687 LINE",
"534 848 LINE",
"458 848 LINE",
"300 687 LINE"
);
}
);
width = 641;
}
);
leftKerningGroup = G;
note = Gcircumflex;
unicode = 011C;
},
{
glyphname = Gcommaaccent;
lastChange = "2015-10-24 17:50:51 +0000";
layers = (
{
layerId = "51D8E656-CCF3-4A73-A171-84F1BD8DE29C";
name = "Regular Italic";
paths = (
{
closed = 1;
nodes = (
"439 -10 OFFCURVE",
"519 16 OFFCURVE",
"567 43 CURVE",
"633 353 LINE",
"379 353 LINE",
"363 282 LINE",
"524 282 LINE",
"486 102 LINE",
"446 88 OFFCURVE",
"402 82 OFFCURVE",
"343 82 CURVE SMOOTH",
"190 82 OFFCURVE",
"146 152 OFFCURVE",
"178 309 CURVE SMOOTH",
"211 472 OFFCURVE",
"296 561 OFFCURVE",
"454 561 CURVE SMOOTH",
"519 561 OFFCURVE",
"579 551 OFFCURVE",
"629 531 CURVE",
"649 625 LINE",
"598 644 OFFCURVE",
"541 654 OFFCURVE",
"465 654 CURVE SMOOTH",
"237 654 OFFCURVE",
"113 521 OFFCURVE",
"68 309 CURVE SMOOTH",
"27 113 OFFCURVE",
"116 -10 OFFCURVE",
"320 -10 CURVE SMOOTH"
);
},
{
closed = 1;
nodes = (
"283 -231 LINE",
"370 -42 LINE",
"280 -42 LINE",
"211 -231 LINE"
);
}
);
width = 641;
}
);
leftKerningGroup = G;
note = Gcommaaccent;
unicode = 0122;
},
{
glyphname = Gdotaccent;
lastChange = "2015-10-24 17:50:54 +0000";
layers = (
{
layerId = "51D8E656-CCF3-4A73-A171-84F1BD8DE29C";
name = "Regular Italic";
paths = (
{
closed = 1;
nodes = (
"439 -10 OFFCURVE",
"519 16 OFFCURVE",
"567 43 CURVE",
"633 353 LINE",
"379 353 LINE",
"363 282 LINE",
"524 282 LINE",
"486 102 LINE",
"446 88 OFFCURVE",
"402 82 OFFCURVE",
"343 82 CURVE SMOOTH",
"190 82 OFFCURVE",
"146 152 OFFCURVE",
"178 309 CURVE SMOOTH",
"211 472 OFFCURVE",
"296 561 OFFCURVE",
"454 561 CURVE SMOOTH",
"519 561 OFFCURVE",
"579 551 OFFCURVE",
"629 531 CURVE",
"649 625 LINE",
"598 644 OFFCURVE",
"541 654 OFFCURVE",
"465 654 CURVE SMOOTH",
"237 654 OFFCURVE",
"113 521 OFFCURVE",
"68 309 CURVE SMOOTH",
"27 113 OFFCURVE",
"116 -10 OFFCURVE",
"320 -10 CURVE SMOOTH"
);
},
{
closed = 1;
nodes = (
"519 711 LINE",
"538 799 LINE",
"446 799 LINE",
"427 711 LINE"
);
}
);
width = 641;
}
);
leftKerningGroup = G;
note = Gdotaccent;
unicode = 0120;
},
{
glyphname = Gmacron;
lastChange = "2015-10-24 17:50:52 +0000";
layers = (
{
layerId = "51D8E656-CCF3-4A73-A171-84F1BD8DE29C";
name = "Regular Italic";
paths = (
{
closed = 1;
nodes = (
"439 -10 OFFCURVE",
"519 16 OFFCURVE",
"567 43 CURVE",
"633 353 LINE",
"379 353 LINE",
"363 282 LINE",
"524 282 LINE",
"486 102 LINE",
"446 88 OFFCURVE",
"402 82 OFFCURVE",
"343 82 CURVE SMOOTH",
"190 82 OFFCURVE",
"146 152 OFFCURVE",
"178 309 CURVE SMOOTH",
"211 472 OFFCURVE",
"296 561 OFFCURVE",
"454 561 CURVE SMOOTH",
"519 561 OFFCURVE",
"579 551 OFFCURVE",
"629 531 CURVE",
"649 625 LINE",
"598 644 OFFCURVE",
"541 654 OFFCURVE",
"465 654 CURVE SMOOTH",
"237 654 OFFCURVE",
"113 521 OFFCURVE",
"68 309 CURVE SMOOTH",
"27 113 OFFCURVE",
"116 -10 OFFCURVE",
"320 -10 CURVE SMOOTH"
);
},
{
closed = 1;
nodes = (
"621 717 LINE",
"636 788 LINE",
"339 788 LINE",
"324 717 LINE"
);
}
);
width = 641;
}
);
leftKerningGroup = G;
note = Gmacron;
unicode = 1E20;
},
{
glyphname = H;
lastChange = "2015-10-24 17:50:51 +0000";
layers = (
{
layerId = "51D8E656-CCF3-4A73-A171-84F1BD8DE29C";
name = "Regular Italic";
paths = (
{
closed = 1;
nodes = (
"132 0 LINE",
"191 280 LINE",
"501 280 LINE",
"442 0 LINE",
"551 0 LINE",
"687 644 LINE",
"578 644 LINE",
"519 364 LINE",
"209 364 LINE",
"268 644 LINE",
"159 644 LINE",
"23 0 LINE"
);
}
);
width = 654;
}
);
note = H;
unicode = 0048;
},
{
glyphname = Hbar;
lastChange = "2015-10-24 17:50:54 +0000";
layers = (
{
layerId = "51D8E656-CCF3-4A73-A171-84F1BD8DE29C";
name = "Regular Italic";
paths = (
{
closed = 1;
nodes = (
"132 0 LINE",
"191 280 LINE",
"501 280 LINE",
"442 0 LINE",
"551 0 LINE",
"647 457 LINE",
"699 457 LINE",
"717 542 LINE",
"665 542 LINE",
"687 644 LINE",
"578 644 LINE",
"556 542 LINE",
"246 542 LINE",
"268 644 LINE",
"159 644 LINE",
"137 542 LINE",
"88 542 LINE",
"70 457 LINE",
"119 457 LINE",
"23 0 LINE"
);
},
{
closed = 1;
nodes = (
"228 457 LINE",
"538 457 LINE",
"519 364 LINE",
"209 364 LINE"
);
}
);
width = 655;
}
);
note = Hbar;
unicode = 0126;
},
{
glyphname = Hbrevebelow;
lastChange = "2015-10-24 17:50:52 +0000";
layers = (
{
layerId = "51D8E656-CCF3-4A73-A171-84F1BD8DE29C";
name = "Regular Italic";
paths = (
{
closed = 1;
nodes = (
"137 0 LINE",
"196 280 LINE",
"506 280 LINE",
"447 0 LINE",
"556 0 LINE",
"692 644 LINE",
"583 644 LINE",
"524 364 LINE",
"214 364 LINE",
"273 644 LINE",
"164 644 LINE",
"28 0 LINE"
);
},
{
closed = 1;
nodes = (
"335 -207 OFFCURVE",
"401 -152 OFFCURVE",
"420 -65 CURVE",
"343 -65 LINE",
"333 -112 OFFCURVE",
"302 -142 OFFCURVE",
"257 -142 CURVE SMOOTH",
"207 -142 OFFCURVE",
"197 -112 OFFCURVE",
"207 -65 CURVE",
"136 -65 LINE",
"117 -152 OFFCURVE",
"159 -207 OFFCURVE",
"247 -207 CURVE SMOOTH"
);
}
);
width = 654;
}
);
note = Hbrevebelow;
unicode = 1E2A;
},
{
glyphname = Hcircumflex;
lastChange = "2015-10-24 17:50:52 +0000";
layers = (
{
layerId = "51D8E656-CCF3-4A73-A171-84F1BD8DE29C";
name = "Regular Italic";
paths = (
{
closed = 1;
nodes = (
"137 0 LINE",
"196 280 LINE",
"506 280 LINE",
"447 0 LINE",
"556 0 LINE",
"692 644 LINE",
"583 644 LINE",
"524 364 LINE",
"214 364 LINE",
"273 644 LINE",
"164 644 LINE",
"28 0 LINE"
);
},
{
closed = 1;
nodes = (
"365 687 LINE",
"460 788 LINE",
"515 687 LINE",
"599 687 LINE",
"508 848 LINE",
"432 848 LINE",
"274 687 LINE"
);
}
);
width = 654;
}
);
note = Hcircumflex;
unicode = 0124;
},
{
glyphname = Hdotbelow;
lastChange = "2015-10-24 17:50:51 +0000";
layers = (
{
layerId = "51D8E656-CCF3-4A73-A171-84F1BD8DE29C";
name = "Regular Italic";
paths = (
{
closed = 1;
nodes = (
"137 0 LINE",
"196 280 LINE",
"506 280 LINE",
"447 0 LINE",
"556 0 LINE",
"692 644 LINE",
"583 644 LINE",
"524 364 LINE",
"214 364 LINE",
"273 644 LINE",
"164 644 LINE",
"28 0 LINE"
);
},
{
closed = 1;
nodes = (
"303 -173 LINE",
"321 -85 LINE",
"227 -85 LINE",
"209 -173 LINE"
);
}
);
width = 654;
}
);
note = Hdotbelow;
unicode = 1E24;
},
{
glyphname = I;
lastChange = "2015-10-24 17:50:53 +0000";
layers = (
{
layerId = "51D8E656-CCF3-4A73-A171-84F1BD8DE29C";
name = "Regular Italic";
paths = (
{
closed = 1;
nodes = (
"132 0 LINE",
"268 644 LINE",
"159 644 LINE",
"23 0 LINE"
);
}
);
width = 235;
}
);
note = I;
unicode = 0049;
},
{
glyphname = IJ;
lastChange = "2015-10-24 17:50:54 +0000";
layers = (
{
layerId = "51D8E656-CCF3-4A73-A171-84F1BD8DE29C";
name = "Regular Italic";
paths = (
{
closed = 1;
nodes = (
"488 -10 OFFCURVE",
"564 57 OFFCURVE",
"590 180 CURVE SMOOTH",
"688 644 LINE",
"579 644 LINE",
"485 198 LINE SMOOTH",
"467 117 OFFCURVE",
"429 82 OFFCURVE",
"340 82 CURVE SMOOTH",
"297 82 OFFCURVE",
"253 91 OFFCURVE",
"224 105 CURVE",
"204 13 LINE",
"239 -2 OFFCURVE",
"284 -10 OFFCURVE",
"339 -10 CURVE SMOOTH"
);
},
{
closed = 1;
nodes = (
"132 0 LINE",
"268 644 LINE",
"159 644 LINE",
"23 0 LINE"
);
}
);
width = 651;
}
);
note = IJ;
unicode = 0132;
},
{
glyphname = Iacute;
lastChange = "2015-10-24 17:50:52 +0000";
layers = (
{
layerId = "51D8E656-CCF3-4A73-A171-84F1BD8DE29C";
name = "Regular Italic";
paths = (
{
closed = 1;
nodes = (
"132 0 LINE",
"268 644 LINE",
"159 644 LINE",
"23 0 LINE"
);
},
{
closed = 1;
nodes = (
"263 688 LINE",
"385 865 LINE",
"289 865 LINE",
"176 688 LINE"
);
}
);
width = 236;
}
);
note = Iacute;
unicode = 00CD;
},
{
glyphname = Ibreve;
lastChange = "2015-10-24 17:50:53 +0000";
layers = (
{
layerId = "51D8E656-CCF3-4A73-A171-84F1BD8DE29C";
name = "Regular Italic";
paths = (
{
closed = 1;
nodes = (
"132 0 LINE",
"268 644 LINE",
"159 644 LINE",
"23 0 LINE"
);
},
{
closed = 1;
nodes = (
"313 698 OFFCURVE",
"380 753 OFFCURVE",
"398 839 CURVE",
"321 839 LINE",
"311 793 OFFCURVE",
"280 763 OFFCURVE",
"235 763 CURVE SMOOTH",
"184 763 OFFCURVE",
"174 793 OFFCURVE",
"184 839 CURVE",
"114 839 LINE",
"96 753 OFFCURVE",
"136 698 OFFCURVE",
"224 698 CURVE SMOOTH"
);
}
);
width = 236;
}
);
note = Ibreve;
unicode = 012C;
},
{
glyphname = Icaron;
lastChange = "2015-10-24 17:50:54 +0000";
layers = (
{
layerId = "51D8E656-CCF3-4A73-A171-84F1BD8DE29C";
name = "Regular Italic";
paths = (
{
closed = 1;
nodes = (
"143 0 LINE",
"279 644 LINE",
"170 644 LINE",
"34 0 LINE"
);
},
{
closed = 1;
nodes = (
"266 687 LINE",
"425 848 LINE",
"335 848 LINE",
"238 747 LINE",
"185 848 LINE",
"100 848 LINE",
"190 687 LINE"
);
}
);
width = 247;
}
);
note = Icaron;
unicode = 01CF;
},
{
glyphname = Icircumflex;
lastChange = "2015-10-24 17:50:54 +0000";
layers = (
{
layerId = "51D8E656-CCF3-4A73-A171-84F1BD8DE29C";
name = "Regular Italic";
paths = (
{
closed = 1;
nodes = (
"132 0 LINE",
"268 644 LINE",
"159 644 LINE",
"23 0 LINE"
);
},
{
closed = 1;
nodes = (
"151 687 LINE",
"246 788 LINE",
"301 687 LINE",
"385 687 LINE",
"294 848 LINE",
"218 848 LINE",
"60 687 LINE"
);
}
);
width = 235;
}
);
note = Icircumflex;
unicode = 00CE;
},
{
glyphname = Idieresis;
lastChange = "2015-10-24 17:50:51 +0000";
layers = (
{
layerId = "51D8E656-CCF3-4A73-A171-84F1BD8DE29C";
name = "Regular Italic";
paths = (
{
closed = 1;
nodes = (
"132 0 LINE",
"268 644 LINE",
"159 644 LINE",
"23 0 LINE"
);
},
{
closed = 1;
nodes = (
"181 715 LINE",
"200 801 LINE",
"109 801 LINE",
"90 715 LINE"
);
},
{
closed = 1;
nodes = (
"367 715 LINE",
"386 801 LINE",
"294 801 LINE",
"275 715 LINE"
);
}
);
width = 235;
}
);
note = Idieresis;
unicode = 00CF;
},
{
glyphname = Idotaccent;
lastChange = "2015-10-24 17:50:51 +0000";
layers = (
{
layerId = "51D8E656-CCF3-4A73-A171-84F1BD8DE29C";
name = "Regular Italic";
paths = (
{
closed = 1;
nodes = (
"132 0 LINE",
"268 644 LINE",
"159 644 LINE",
"23 0 LINE"
);
},
{
closed = 1;
nodes = (
"274 714 LINE",
"293 802 LINE",
"201 802 LINE",
"182 714 LINE"
);
}
);
width = 235;
}
);
note = Idotaccent;
unicode = 0130;
},
{
glyphname = Idotbelow;
lastChange = "2015-10-24 17:50:51 +0000";
layers = (
{
layerId = "51D8E656-CCF3-4A73-A171-84F1BD8DE29C";
name = "Regular Italic";
paths = (
{
closed = 1;
nodes = (
"132 0 LINE",
"268 644 LINE",
"159 644 LINE",
"23 0 LINE"
);
},
{
closed = 1;
nodes = (
"88 -173 LINE",
"106 -85 LINE",
"12 -85 LINE",
"-6 -173 LINE"
);
}
);
width = 235;
}
);
note = Idotbelow;
unicode = 1ECA;
},
{
glyphname = Igrave;
lastChange = "2015-10-24 17:50:52 +0000";
layers = (
{
layerId = "51D8E656-CCF3-4A73-A171-84F1BD8DE29C";
name = "Regular Italic";
paths = (
{
closed = 1;
nodes = (
"132 0 LINE",
"268 644 LINE",
"159 644 LINE",
"23 0 LINE"
);
},
{
closed = 1;
nodes = (
"268 688 LINE",
"230 865 LINE",
"135 865 LINE",
"180 688 LINE"
);
}
);
width = 235;
}
);
note = Igrave;
unicode = 00CC;
},
{
glyphname = Ihookabove;
lastChange = "2015-10-24 17:50:50 +0000";
layers = (
{
layerId = "51D8E656-CCF3-4A73-A171-84F1BD8DE29C";
name = "Regular Italic";
paths = (
{
closed = 1;
nodes = (
"132 0 LINE",
"268 644 LINE",
"159 644 LINE",
"23 0 LINE"
);
},
{
closed = 1;
nodes = (
"265 687 LINE",
"275 734 LINE",
"343 744 OFFCURVE",
"372 773 OFFCURVE",
"383 828 CURVE SMOOTH",
"396 885 OFFCURVE",
"359 921 OFFCURVE",
"277 921 CURVE SMOOTH",
"243 921 OFFCURVE",
"205 916 OFFCURVE",
"181 908 CURVE",
"169 849 LINE",
"187 856 OFFCURVE",
"215 861 OFFCURVE",
"235 861 CURVE SMOOTH",
"283 861 OFFCURVE",
"307 849 OFFCURVE",
"301 819 CURVE SMOOTH",
"294 786 OFFCURVE",
"275 773 OFFCURVE",
"198 769 CURVE",
"180 687 LINE"
);
}
);
width = 236;
}
);
note = Ihookabove;
unicode = 1EC8;
},
{
glyphname = Imacron;
lastChange = "2015-10-24 17:50:51 +0000";
layers = (
{
layerId = "51D8E656-CCF3-4A73-A171-84F1BD8DE29C";
name = "Regular Italic";
paths = (
{
closed = 1;
nodes = (
"132 0 LINE",
"268 644 LINE",
"159 644 LINE",
"23 0 LINE"
);
},
{
closed = 1;
nodes = (
"379 721 LINE",
"394 792 LINE",
"96 792 LINE",
"81 721 LINE"
);
}
);
width = 236;
}
);
note = Imacron;
unicode = 012A;
},
{
glyphname = Iogonek;
lastChange = "2015-10-24 17:50:53 +0000";
layers = (
{
layerId = "51D8E656-CCF3-4A73-A171-84F1BD8DE29C";
name = "Regular Italic";
paths = (
{
closed = 1;
nodes = (
"56 -220 OFFCURVE",
"87 -215 OFFCURVE",
"106 -207 CURVE",
"120 -141 LINE",
"106 -148 OFFCURVE",
"84 -152 OFFCURVE",
"68 -152 CURVE SMOOTH",
"38 -152 OFFCURVE",
"23 -143 OFFCURVE",
"30 -112 CURVE SMOOTH",
"38 -72 OFFCURVE",
"72 -33 OFFCURVE",
"122 0 CURVE",
"132 0 LINE",
"268 644 LINE",
"159 644 LINE",
"23 0 LINE",
"40 0 LINE",
"-11 -31 OFFCURVE",
"-50 -80 OFFCURVE",
"-61 -131 CURVE SMOOTH",
"-74 -193 OFFCURVE",
"-30 -220 OFFCURVE",
"27 -220 CURVE SMOOTH"
);
}
);
width = 236;
}
);
note = Iogonek;
unicode = 012E;
},
{
glyphname = Itilde;
lastChange = "2015-10-24 17:50:51 +0000";
layers = (
{
layerId = "51D8E656-CCF3-4A73-A171-84F1BD8DE29C";
name = "Regular Italic";
paths = (
{
closed = 1;
nodes = (
"132 0 LINE",
"268 644 LINE",
"159 644 LINE",
"23 0 LINE"
);
},
{
closed = 1;
nodes = (
"341 696 OFFCURVE",
"374 709 OFFCURVE",
"391 727 CURVE",
"408 807 LINE",
"385 783 OFFCURVE",
"356 770 OFFCURVE",
"320 770 CURVE SMOOTH",
"267 770 OFFCURVE",
"233 809 OFFCURVE",
"175 809 CURVE SMOOTH",
"142 809 OFFCURVE",
"105 797 OFFCURVE",
"84 779 CURVE",
"67 699 LINE",
"96 725 OFFCURVE",
"127 735 OFFCURVE",
"162 735 CURVE SMOOTH",
"208 735 OFFCURVE",
"250 696 OFFCURVE",
"305 696 CURVE SMOOTH"
);
}
);
width = 236;
}
);
note = Itilde;
unicode = 0128;
},
{
glyphname = J;
lastChange = "2015-10-24 17:50:52 +0000";
layers = (
{
layerId = "51D8E656-CCF3-4A73-A171-84F1BD8DE29C";
name = "Regular Italic";
paths = (
{
closed = 1;
nodes = (
"269 -10 OFFCURVE",
"345 57 OFFCURVE",
"371 180 CURVE SMOOTH",
"469 644 LINE",
"360 644 LINE",
"266 198 LINE SMOOTH",
"248 117 OFFCURVE",
"210 82 OFFCURVE",
"121 82 CURVE SMOOTH",
"78 82 OFFCURVE",
"34 91 OFFCURVE",
"5 105 CURVE",
"-15 13 LINE",
"20 -2 OFFCURVE",
"65 -10 OFFCURVE",
"120 -10 CURVE SMOOTH"
);
}
);
width = 431;
}
);
note = J;
unicode = 004A;
},
{
glyphname = Jcircumflex;
lastChange = "2015-10-24 17:50:54 +0000";
layers = (
{
layerId = "51D8E656-CCF3-4A73-A171-84F1BD8DE29C";
name = "Regular Italic";
paths = (
{
closed = 1;
nodes = (
"269 -10 OFFCURVE",
"345 57 OFFCURVE",
"371 180 CURVE SMOOTH",
"469 644 LINE",
"360 644 LINE",
"266 198 LINE SMOOTH",
"248 117 OFFCURVE",
"210 82 OFFCURVE",
"121 82 CURVE SMOOTH",
"78 82 OFFCURVE",
"34 91 OFFCURVE",
"5 105 CURVE",
"-15 13 LINE",
"20 -2 OFFCURVE",
"65 -10 OFFCURVE",
"120 -10 CURVE SMOOTH"
);
},
{
closed = 1;
nodes = (
"352 687 LINE",
"447 788 LINE",
"502 687 LINE",
"586 687 LINE",
"495 848 LINE",
"419 848 LINE",
"261 687 LINE"
);
}
);
width = 431;
}
);
note = Jcircumflex;
unicode = 0134;
},
{
glyphname = K;
lastChange = "2015-10-24 17:50:53 +0000";
layers = (
{
layerId = "51D8E656-CCF3-4A73-A171-84F1BD8DE29C";
name = "Regular Italic";
paths = (
{
closed = 1;
nodes = (
"132 0 LINE",
"177 213 LINE",
"293 315 LINE",
"426 0 LINE",
"542 0 LINE",
"376 384 LINE",
"668 644 LINE",
"542 644 LINE",
"205 348 LINE",
"268 644 LINE",
"159 644 LINE",
"23 0 LINE"
);
}
);
width = 625;
}
);
leftKerningGroup = K;
note = K;
rightKerningGroup = K;
unicode = 004B;
},
{
glyphname = Kcommaaccent;
lastChange = "2015-10-24 17:50:53 +0000";
layers = (
{
layerId = "51D8E656-CCF3-4A73-A171-84F1BD8DE29C";
name = "Regular Italic";
paths = (
{
closed = 1;
nodes = (
"132 0 LINE",
"177 213 LINE",
"293 315 LINE",
"426 0 LINE",
"542 0 LINE",
"376 384 LINE",
"668 644 LINE",
"542 644 LINE",
"205 348 LINE",
"268 644 LINE",
"159 644 LINE",
"23 0 LINE"
);
},
{
closed = 1;
nodes = (
"228 -226 LINE",
"315 -37 LINE",
"225 -37 LINE",
"156 -226 LINE"
);
}
);
width = 625;
}
);
leftKerningGroup = K;
note = Kcommaaccent;
rightKerningGroup = K;
unicode = 0136;
},
{
glyphname = L;
lastChange = "2015-10-24 17:50:53 +0000";
layers = (
{
layerId = "51D8E656-CCF3-4A73-A171-84F1BD8DE29C";
name = "Regular Italic";
paths = (
{
closed = 1;
nodes = (
"462 0 LINE",
"479 84 LINE",
"149 84 LINE",
"268 644 LINE",
"159 644 LINE",
"23 0 LINE"
);
}
);
width = 525;
}
);
note = L;
rightKerningGroup = L;
unicode = 004C;
},
{
glyphname = Lacute;
lastChange = "2015-10-24 17:50:54 +0000";
layers = (
{
layerId = "51D8E656-CCF3-4A73-A171-84F1BD8DE29C";
name = "Regular Italic";
paths = (
{
closed = 1;
nodes = (
"462 0 LINE",
"479 84 LINE",
"149 84 LINE",
"268 644 LINE",
"159 644 LINE",
"23 0 LINE"
);
},
{
closed = 1;
nodes = (
"264 688 LINE",
"386 865 LINE",
"290 865 LINE",
"177 688 LINE"
);
}
);
width = 525;
}
);
note = Lacute;
rightKerningGroup = L;
unicode = 0139;
},
{
glyphname = Lcaron;
lastChange = "2015-10-24 17:50:51 +0000";
layers = (
{
layerId = "51D8E656-CCF3-4A73-A171-84F1BD8DE29C";
name = "Regular Italic";
paths = (
{
closed = 1;
nodes = (
"462 0 LINE",
"479 84 LINE",
"149 84 LINE",
"268 644 LINE",
"159 644 LINE",
"23 0 LINE"
);
},
{
closed = 1;
nodes = (
"463 566 LINE",
"550 755 LINE",
"460 755 LINE",
"391 566 LINE"
);
}
);
width = 525;
}
);
note = Lcaron;
rightKerningGroup = L;
unicode = 013D;
},
{
glyphname = Lcommaaccent;
lastChange = "2015-10-24 17:50:53 +0000";
layers = (
{
layerId = "51D8E656-CCF3-4A73-A171-84F1BD8DE29C";
name = "Regular Italic";
paths = (
{
closed = 1;
nodes = (
"462 0 LINE",
"479 84 LINE",
"149 84 LINE",
"268 644 LINE",
"159 644 LINE",
"23 0 LINE"
);
},
{
closed = 1;
nodes = (
"202 -226 LINE",
"289 -37 LINE",
"199 -37 LINE",
"130 -226 LINE"
);
}
);
width = 525;
}
);
note = Lcommaaccent;
rightKerningGroup = L;
unicode = 013B;
},
{
glyphname = Ldot;
lastChange = "2015-10-24 17:50:52 +0000";
layers = (
{
layerId = "51D8E656-CCF3-4A73-A171-84F1BD8DE29C";
name = "Regular Italic";
paths = (
{
closed = 1;
nodes = (
"462 0 LINE",
"479 84 LINE",
"149 84 LINE",
"268 644 LINE",
"159 644 LINE",
"23 0 LINE"
);
},
{
closed = 1;
nodes = (
"424 267 LINE",
"443 355 LINE",
"351 355 LINE",
"332 267 LINE"
);
}
);
width = 525;
}
);
note = Ldot;
rightKerningGroup = L;
unicode = 013F;
},
{
glyphname = Ldotbelow;
lastChange = "2015-10-24 17:50:51 +0000";
layers = (
{
layerId = "51D8E656-CCF3-4A73-A171-84F1BD8DE29C";
name = "Regular Italic";
paths = (
{
closed = 1;
nodes = (
"462 0 LINE",
"479 84 LINE",
"149 84 LINE",
"268 644 LINE",
"159 644 LINE",
"23 0 LINE"
);
},
{
closed = 1;
nodes = (
"241 -173 LINE",
"259 -85 LINE",
"165 -85 LINE",
"147 -173 LINE"
);
}
);
width = 525;
}
);
note = Ldotbelow;
rightKerningGroup = L;
unicode = 1E36;
},
{
glyphname = Ldotbelowmacron;
lastChange = "2015-10-24 17:50:51 +0000";
layers = (
{
layerId = "51D8E656-CCF3-4A73-A171-84F1BD8DE29C";
name = "Regular Italic";
paths = (
{
closed = 1;
nodes = (
"470 0 LINE",
"487 84 LINE",
"157 84 LINE",
"276 644 LINE",
"167 644 LINE",
"31 0 LINE"
);
},
{
closed = 1;
nodes = (
"254 -173 LINE",
"272 -85 LINE",
"178 -85 LINE",
"160 -173 LINE"
);
},
{
closed = 1;
nodes = (
"396 717 LINE",
"411 788 LINE",
"114 788 LINE",
"99 717 LINE"
);
}
);
width = 533;
}
);
note = Ldotbelowmacron;
rightKerningGroup = L;
unicode = 1E38;
},
{
glyphname = Llinebelow;
lastChange = "2015-10-24 17:50:51 +0000";
layers = (
{
layerId = "51D8E656-CCF3-4A73-A171-84F1BD8DE29C";
name = "Regular Italic";
paths = (
{
closed = 1;
nodes = (
"462 0 LINE",
"479 84 LINE",
"149 84 LINE",
"268 644 LINE",
"159 644 LINE",
"23 0 LINE"
);
},
{
closed = 1;
nodes = (
"348 -146 LINE",
"363 -75 LINE",
"66 -75 LINE",
"51 -146 LINE"
);
}
);
width = 525;
}
);
note = Llinebelow;
rightKerningGroup = L;
unicode = 1E3A;
},
{
glyphname = Lslash;
lastChange = "2015-10-24 17:50:54 +0000";
layers = (
{
layerId = "51D8E656-CCF3-4A73-A171-84F1BD8DE29C";
name = "Regular Italic";
paths = (
{
closed = 1;
nodes = (
"462 0 LINE",
"479 84 LINE",
"149 84 LINE",
"198 315 LINE",
"340 372 LINE",
"357 456 LINE",
"216 399 LINE",
"268 644 LINE",
"159 644 LINE",
"97 351 LINE",
"2 313 LINE",
"-16 229 LINE",
"79 267 LINE",
"23 0 LINE"
);
}
);
width = 525;
}
);
note = Lslash;
rightKerningGroup = L;
unicode = 0141;
},
{
glyphname = M;
lastChange = "2015-10-24 17:50:51 +0000";
layers = (
{
layerId = "51D8E656-CCF3-4A73-A171-84F1BD8DE29C";
name = "Regular Italic";
paths = (
{
closed = 1;
nodes = (
"131 0 LINE",
"230 467 LINE",
"329 111 LINE",
"395 111 LINE",
"645 467 LINE",
"546 0 LINE",
"654 0 LINE",
"790 644 LINE",
"675 644 LINE",
"384 227 LINE",
"268 644 LINE",
"159 644 LINE",
"23 0 LINE"
);
}
);
width = 757;
}
);
note = M;
unicode = 004D;
},
{
glyphname = Mdotbelow;
lastChange = "2015-10-24 17:50:52 +0000";
layers = (
{
layerId = "51D8E656-CCF3-4A73-A171-84F1BD8DE29C";
name = "Regular Italic";
paths = (
{
closed = 1;
nodes = (
"131 0 LINE",
"230 467 LINE",
"329 111 LINE",
"395 111 LINE",
"645 467 LINE",
"546 0 LINE",
"654 0 LINE",
"790 644 LINE",
"675 644 LINE",
"384 227 LINE",
"268 644 LINE",
"159 644 LINE",
"23 0 LINE"
);
},
{
closed = 1;
nodes = (
"351 -173 LINE",
"369 -85 LINE",
"275 -85 LINE",
"257 -173 LINE"
);
}
);
width = 757;
}
);
note = Mdotbelow;
unicode = 1E42;
},
{
glyphname = N;
lastChange = "2015-10-24 17:50:52 +0000";
layers = (
{
layerId = "51D8E656-CCF3-4A73-A171-84F1BD8DE29C";
name = "Regular Italic";
paths = (
{
closed = 1;
nodes = (
"132 0 LINE",
"232 473 LINE",
"467 0 LINE",
"563 0 LINE",
"699 644 LINE",
"591 644 LINE",
"491 170 LINE",
"255 644 LINE",
"159 644 LINE",
"23 0 LINE"
);
}
);
width = 667;
}
);
note = N;
unicode = 004E;
},
{
glyphname = Nacute;
lastChange = "2015-10-24 17:50:51 +0000";
layers = (
{
layerId = "51D8E656-CCF3-4A73-A171-84F1BD8DE29C";
name = "Regular Italic";
paths = (
{
closed = 1;
nodes = (
"132 0 LINE",
"232 473 LINE",
"467 0 LINE",
"563 0 LINE",
"699 644 LINE",
"591 644 LINE",
"491 170 LINE",
"255 644 LINE",
"159 644 LINE",
"23 0 LINE"
);
},
{
closed = 1;
nodes = (
"476 688 LINE",
"598 865 LINE",
"502 865 LINE",
"389 688 LINE"
);
}
);
width = 667;
}
);
note = Nacute;
unicode = 0143;
},
{
glyphname = Ncaron;
lastChange = "2015-10-24 17:50:53 +0000";
layers = (
{
layerId = "51D8E656-CCF3-4A73-A171-84F1BD8DE29C";
name = "Regular Italic";
paths = (
{
closed = 1;
nodes = (
"132 0 LINE",
"232 473 LINE",
"467 0 LINE",
"563 0 LINE",
"699 644 LINE",
"591 644 LINE",
"491 170 LINE",
"255 644 LINE",
"159 644 LINE",
"23 0 LINE"
);
},
{
closed = 1;
nodes = (
"484 687 LINE",
"643 848 LINE",
"553 848 LINE",
"456 747 LINE",
"403 848 LINE",
"318 848 LINE",
"408 687 LINE"
);
}
);
width = 667;
}
);
note = Ncaron;
unicode = 0147;
},
{
glyphname = Ncommaaccent;
lastChange = "2015-10-24 17:50:50 +0000";
layers = (
{
layerId = "51D8E656-CCF3-4A73-A171-84F1BD8DE29C";
name = "Regular Italic";
paths = (
{
closed = 1;
nodes = (
"132 0 LINE",
"232 473 LINE",
"467 0 LINE",
"563 0 LINE",
"699 644 LINE",
"591 644 LINE",
"491 170 LINE",
"255 644 LINE",
"159 644 LINE",
"23 0 LINE"
);
},
{
closed = 1;
nodes = (
"253 -226 LINE",
"340 -37 LINE",
"250 -37 LINE",
"181 -226 LINE"
);
}
);
width = 667;
}
);
note = Ncommaaccent;
unicode = 0145;
},
{
glyphname = Ndotaccent;
lastChange = "2015-10-24 17:50:53 +0000";
layers = (
{
layerId = "51D8E656-CCF3-4A73-A171-84F1BD8DE29C";
name = "Regular Italic";
paths = (
{
closed = 1;
nodes = (
"132 0 LINE",
"232 473 LINE",
"467 0 LINE",
"563 0 LINE",
"699 644 LINE",
"591 644 LINE",
"491 170 LINE",
"255 644 LINE",
"159 644 LINE",
"23 0 LINE"
);
},
{
closed = 1;
nodes = (
"500 711 LINE",
"519 799 LINE",
"427 799 LINE",
"408 711 LINE"
);
}
);
width = 667;
}
);
note = Ndotaccent;
unicode = 1E44;
},
{
glyphname = Ndotbelow;
lastChange = "2015-10-24 17:50:51 +0000";
layers = (
{
layerId = "51D8E656-CCF3-4A73-A171-84F1BD8DE29C";
name = "Regular Italic";
paths = (
{
closed = 1;
nodes = (
"132 0 LINE",
"232 473 LINE",
"467 0 LINE",
"563 0 LINE",
"699 644 LINE",
"591 644 LINE",
"491 170 LINE",
"255 644 LINE",
"159 644 LINE",
"23 0 LINE"
);
},
{
closed = 1;
nodes = (
"305 -173 LINE",
"323 -85 LINE",
"229 -85 LINE",
"211 -173 LINE"
);
}
);
width = 667;
}
);
note = Ndotbelow;
unicode = 1E46;
},
{
glyphname = Eng;
lastChange = "2015-10-24 17:50:50 +0000";
layers = (
{
layerId = "51D8E656-CCF3-4A73-A171-84F1BD8DE29C";
name = "Regular Italic";
paths = (
{
closed = 1;
nodes = (
"465 -234 OFFCURVE",
"525 -176 OFFCURVE",
"544 -86 CURVE SMOOTH",
"699 644 LINE",
"591 644 LINE",
"491 170 LINE",
"255 644 LINE",
"159 644 LINE",
"23 0 LINE",
"132 0 LINE",
"232 473 LINE",
"458 17 LINE",
"438 -76 LINE SMOOTH",
"427 -128 OFFCURVE",
"402 -149 OFFCURVE",
"339 -149 CURVE SMOOTH",
"321 -149 OFFCURVE",
"300 -146 OFFCURVE",
"280 -139 CURVE",
"263 -218 LINE",
"289 -229 OFFCURVE",
"321 -234 OFFCURVE",
"359 -234 CURVE SMOOTH"
);
}
);
width = 667;
}
);
note = Eng;
unicode = 014A;
},
{
glyphname = Nlinebelow;
lastChange = "2015-10-24 17:50:53 +0000";
layers = (
{
layerId = "51D8E656-CCF3-4A73-A171-84F1BD8DE29C";
name = "Regular Italic";
paths = (
{
closed = 1;
nodes = (
"132 0 LINE",
"232 473 LINE",
"467 0 LINE",
"563 0 LINE",
"699 644 LINE",
"591 644 LINE",
"491 170 LINE",
"255 644 LINE",
"159 644 LINE",
"23 0 LINE"
);
},
{
closed = 1;
nodes = (
"415 -143 LINE",
"430 -72 LINE",
"133 -72 LINE",
"118 -143 LINE"
);
}
);
width = 667;
}
);
note = Nlinebelow;
unicode = 1E48;
},
{
glyphname = Ntilde;
lastChange = "2015-10-24 17:50:53 +0000";
layers = (
{
layerId = "51D8E656-CCF3-4A73-A171-84F1BD8DE29C";
name = "Regular Italic";
paths = (
{
closed = 1;
nodes = (
"132 0 LINE",
"232 473 LINE",
"467 0 LINE",
"563 0 LINE",
"699 644 LINE",
"591 644 LINE",
"491 170 LINE",
"255 644 LINE",
"159 644 LINE",
"23 0 LINE"
);
},
{
closed = 1;
nodes = (
"561 703 OFFCURVE",
"594 716 OFFCURVE",
"611 734 CURVE",
"628 814 LINE",
"605 790 OFFCURVE",
"576 777 OFFCURVE",
"540 777 CURVE SMOOTH",
"487 777 OFFCURVE",
"453 816 OFFCURVE",
"395 816 CURVE SMOOTH",
"362 816 OFFCURVE",
"325 804 OFFCURVE",
"304 786 CURVE",
"287 706 LINE",
"316 732 OFFCURVE",
"347 742 OFFCURVE",
"382 742 CURVE SMOOTH",
"428 742 OFFCURVE",
"470 703 OFFCURVE",
"525 703 CURVE SMOOTH"
);
}
);
width = 667;
}
);
note = Ntilde;
unicode = 00D1;
},
{
glyphname = O;
lastChange = "2015-10-24 17:50:52 +0000";
layers = (
{
layerId = "51D8E656-CCF3-4A73-A171-84F1BD8DE29C";
name = "Regular Italic";
paths = (
{
closed = 1;
nodes = (
"518 -10 OFFCURVE",
"632 94 OFFCURVE",
"681 320 CURVE SMOOTH",
"730 554 OFFCURVE",
"642 654 OFFCURVE",
"447 654 CURVE SMOOTH",
"236 654 OFFCURVE",
"120 554 OFFCURVE",
"71 320 CURVE SMOOTH",
"22 94 OFFCURVE",
"111 -10 OFFCURVE",
"305 -10 CURVE SMOOTH"
);
},
{
closed = 1;
nodes = (
"182 82 OFFCURVE",
"145 151 OFFCURVE",
"181 320 CURVE SMOOTH",
"218 498 OFFCURVE",
"300 561 OFFCURVE",
"427 561 CURVE SMOOTH",
"574 561 OFFCURVE",
"609 498 OFFCURVE",
"572 320 CURVE SMOOTH",
"536 151 OFFCURVE",
"453 82 OFFCURVE",
"325 82 CURVE SMOOTH"
);
}
);
width = 697;
}
);
leftKerningGroup = O;
note = O;
rightKerningGroup = O;
unicode = 004F;
},
{
glyphname = Oacute;
lastChange = "2015-10-24 17:50:52 +0000";
layers = (
{
layerId = "51D8E656-CCF3-4A73-A171-84F1BD8DE29C";
name = "Regular Italic";
paths = (
{
closed = 1;
nodes = (
"518 -10 OFFCURVE",
"632 94 OFFCURVE",
"681 320 CURVE SMOOTH",
"730 554 OFFCURVE",
"642 654 OFFCURVE",
"447 654 CURVE SMOOTH",
"236 654 OFFCURVE",
"120 554 OFFCURVE",
"71 320 CURVE SMOOTH",
"22 94 OFFCURVE",
"111 -10 OFFCURVE",
"305 -10 CURVE SMOOTH"
);
},
{
closed = 1;
nodes = (
"182 82 OFFCURVE",
"145 151 OFFCURVE",
"181 320 CURVE SMOOTH",
"218 498 OFFCURVE",
"300 561 OFFCURVE",
"427 561 CURVE SMOOTH",
"574 561 OFFCURVE",
"609 498 OFFCURVE",
"572 320 CURVE SMOOTH",
"536 151 OFFCURVE",
"453 82 OFFCURVE",
"325 82 CURVE SMOOTH"
);
},
{
closed = 1;
nodes = (
"493 688 LINE",
"615 865 LINE",
"519 865 LINE",
"406 688 LINE"
);
}
);
width = 697;
}
);
leftKerningGroup = O;
note = Oacute;
rightKerningGroup = O;
unicode = 00D3;
},
{
glyphname = Obreve;
lastChange = "2015-10-24 17:50:52 +0000";
layers = (
{
layerId = "51D8E656-CCF3-4A73-A171-84F1BD8DE29C";
name = "Regular Italic";
paths = (
{
closed = 1;
nodes = (
"518 -10 OFFCURVE",
"632 94 OFFCURVE",
"681 320 CURVE SMOOTH",
"730 554 OFFCURVE",
"642 654 OFFCURVE",
"447 654 CURVE SMOOTH",
"236 654 OFFCURVE",
"120 554 OFFCURVE",
"71 320 CURVE SMOOTH",
"22 94 OFFCURVE",
"111 -10 OFFCURVE",
"305 -10 CURVE SMOOTH"
);
},
{
closed = 1;
nodes = (
"182 82 OFFCURVE",
"145 151 OFFCURVE",
"181 320 CURVE SMOOTH",
"218 498 OFFCURVE",
"300 561 OFFCURVE",
"427 561 CURVE SMOOTH",
"574 561 OFFCURVE",
"609 498 OFFCURVE",
"572 320 CURVE SMOOTH",
"536 151 OFFCURVE",
"453 82 OFFCURVE",
"325 82 CURVE SMOOTH"
);
},
{
closed = 1;
nodes = (
"541 688 OFFCURVE",
"608 743 OFFCURVE",
"626 829 CURVE",
"549 829 LINE",
"539 783 OFFCURVE",
"508 753 OFFCURVE",
"463 753 CURVE SMOOTH",
"412 753 OFFCURVE",
"402 783 OFFCURVE",
"412 829 CURVE",
"342 829 LINE",
"324 743 OFFCURVE",
"364 688 OFFCURVE",
"452 688 CURVE SMOOTH"
);
}
);
width = 697;
}
);
leftKerningGroup = O;
note = Obreve;
rightKerningGroup = O;
unicode = 014E;
},
{
glyphname = Ocaron;
lastChange = "2015-10-24 17:50:51 +0000";
layers = (
{
layerId = "51D8E656-CCF3-4A73-A171-84F1BD8DE29C";
name = "Regular Italic";
paths = (
{
closed = 1;
nodes = (
"518 -10 OFFCURVE",
"632 94 OFFCURVE",
"681 320 CURVE SMOOTH",
"730 554 OFFCURVE",
"642 654 OFFCURVE",
"447 654 CURVE SMOOTH",
"236 654 OFFCURVE",
"120 554 OFFCURVE",
"71 320 CURVE SMOOTH",
"22 94 OFFCURVE",
"111 -10 OFFCURVE",
"305 -10 CURVE SMOOTH"
);
},
{
closed = 1;
nodes = (
"182 82 OFFCURVE",
"145 151 OFFCURVE",
"181 320 CURVE SMOOTH",
"218 498 OFFCURVE",
"300 561 OFFCURVE",
"427 561 CURVE SMOOTH",
"574 561 OFFCURVE",
"609 498 OFFCURVE",
"572 320 CURVE SMOOTH",
"536 151 OFFCURVE",
"453 82 OFFCURVE",
"325 82 CURVE SMOOTH"
);
},
{
closed = 1;
nodes = (
"491 687 LINE",
"650 848 LINE",
"560 848 LINE",
"463 747 LINE",
"410 848 LINE",
"325 848 LINE",
"415 687 LINE"
);
}
);
width = 697;
}
);
leftKerningGroup = O;
note = Ocaron;
rightKerningGroup = O;
unicode = 01D1;
},
{
glyphname = Ocircumflex;
lastChange = "2015-10-24 17:50:53 +0000";
layers = (
{
layerId = "51D8E656-CCF3-4A73-A171-84F1BD8DE29C";
name = "Regular Italic";
paths = (
{
closed = 1;
nodes = (
"518 -10 OFFCURVE",
"632 94 OFFCURVE",
"681 320 CURVE SMOOTH",
"730 554 OFFCURVE",
"642 654 OFFCURVE",
"447 654 CURVE SMOOTH",
"236 654 OFFCURVE",
"120 554 OFFCURVE",
"71 320 CURVE SMOOTH",
"22 94 OFFCURVE",
"111 -10 OFFCURVE",
"305 -10 CURVE SMOOTH"
);
},
{
closed = 1;
nodes = (
"182 82 OFFCURVE",
"145 151 OFFCURVE",
"181 320 CURVE SMOOTH",
"218 498 OFFCURVE",
"300 561 OFFCURVE",
"427 561 CURVE SMOOTH",
"574 561 OFFCURVE",
"609 498 OFFCURVE",
"572 320 CURVE SMOOTH",
"536 151 OFFCURVE",
"453 82 OFFCURVE",
"325 82 CURVE SMOOTH"
);
},
{
closed = 1;
nodes = (
"382 687 LINE",
"477 788 LINE",
"532 687 LINE",
"616 687 LINE",
"525 848 LINE",
"449 848 LINE",
"291 687 LINE"
);
}
);
width = 697;
}
);
leftKerningGroup = O;
note = Ocircumflex;
rightKerningGroup = O;
unicode = 00D4;
},
{
glyphname = Ocircumflexacute;
lastChange = "2015-10-24 17:50:51 +0000";
layers = (
{
layerId = "51D8E656-CCF3-4A73-A171-84F1BD8DE29C";
name = "Regular Italic";
paths = (
{
closed = 1;
nodes = (
"518 -10 OFFCURVE",
"632 94 OFFCURVE",
"681 320 CURVE SMOOTH",
"730 554 OFFCURVE",
"642 654 OFFCURVE",
"447 654 CURVE SMOOTH",
"236 654 OFFCURVE",
"120 554 OFFCURVE",
"71 320 CURVE SMOOTH",
"22 94 OFFCURVE",
"111 -10 OFFCURVE",
"305 -10 CURVE SMOOTH"
);
},
{
closed = 1;
nodes = (
"182 82 OFFCURVE",
"145 151 OFFCURVE",
"181 320 CURVE SMOOTH",
"218 498 OFFCURVE",
"300 561 OFFCURVE",
"427 561 CURVE SMOOTH",
"574 561 OFFCURVE",
"609 498 OFFCURVE",
"572 320 CURVE SMOOTH",
"536 151 OFFCURVE",
"453 82 OFFCURVE",
"325 82 CURVE SMOOTH"
);
},
{
closed = 1;
nodes = (
"390 687 LINE",
"478 769 LINE",
"532 687 LINE",
"618 687 LINE",
"526 814 LINE",
"442 814 LINE",
"296 687 LINE"
);
},
{
closed = 1;
nodes = (
"649 800 LINE",
"747 933 LINE",
"664 933 LINE",
"572 800 LINE"
);
}
);
width = 697;
}
);
leftKerningGroup = O;
note = Ocircumflexacute;
rightKerningGroup = O;
unicode = 1ED0;
},
{
glyphname = Ocircumflexdotbelow;
lastChange = "2015-10-24 17:50:53 +0000";
layers = (
{
layerId = "51D8E656-CCF3-4A73-A171-84F1BD8DE29C";
name = "Regular Italic";
paths = (
{
closed = 1;
nodes = (
"518 -10 OFFCURVE",
"632 94 OFFCURVE",
"681 320 CURVE SMOOTH",
"730 554 OFFCURVE",
"642 654 OFFCURVE",
"447 654 CURVE SMOOTH",
"236 654 OFFCURVE",
"120 554 OFFCURVE",
"71 320 CURVE SMOOTH",
"22 94 OFFCURVE",
"111 -10 OFFCURVE",
"305 -10 CURVE SMOOTH"
);
},
{
closed = 1;
nodes = (
"319 -173 LINE",
"337 -85 LINE",
"243 -85 LINE",
"225 -173 LINE"
);
},
{
closed = 1;
nodes = (
"182 82 OFFCURVE",
"145 151 OFFCURVE",
"181 320 CURVE SMOOTH",
"218 498 OFFCURVE",
"300 561 OFFCURVE",
"427 561 CURVE SMOOTH",
"574 561 OFFCURVE",
"609 498 OFFCURVE",
"572 320 CURVE SMOOTH",
"536 151 OFFCURVE",
"453 82 OFFCURVE",
"325 82 CURVE SMOOTH"
);
},
{
closed = 1;
nodes = (
"383 692 LINE",
"478 793 LINE",
"533 692 LINE",
"617 692 LINE",
"526 853 LINE",
"450 853 LINE",
"292 692 LINE"
);
}
);
width = 697;
}
);
leftKerningGroup = O;
note = Ocircumflexdotbelow;
rightKerningGroup = O;
unicode = 1ED8;
},
{
glyphname = Ocircumflexgrave;
lastChange = "2015-10-24 17:50:53 +0000";
layers = (
{
layerId = "51D8E656-CCF3-4A73-A171-84F1BD8DE29C";
name = "Regular Italic";
paths = (
{
closed = 1;
nodes = (
"518 -10 OFFCURVE",
"632 94 OFFCURVE",
"681 320 CURVE SMOOTH",
"730 554 OFFCURVE",
"642 654 OFFCURVE",
"447 654 CURVE SMOOTH",
"236 654 OFFCURVE",
"120 554 OFFCURVE",
"71 320 CURVE SMOOTH",
"22 94 OFFCURVE",
"111 -10 OFFCURVE",
"305 -10 CURVE SMOOTH"
);
},
{
closed = 1;
nodes = (
"182 82 OFFCURVE",
"145 151 OFFCURVE",
"181 320 CURVE SMOOTH",
"218 498 OFFCURVE",
"300 561 OFFCURVE",
"427 561 CURVE SMOOTH",
"574 561 OFFCURVE",
"609 498 OFFCURVE",
"572 320 CURVE SMOOTH",
"536 151 OFFCURVE",
"453 82 OFFCURVE",
"325 82 CURVE SMOOTH"
);
},
{
closed = 1;
nodes = (
"380 800 LINE",
"345 933 LINE",
"261 933 LINE",
"303 800 LINE"
);
},
{
closed = 1;
nodes = (
"378 687 LINE",
"467 769 LINE",
"520 687 LINE",
"606 687 LINE",
"516 814 LINE",
"431 814 LINE",
"286 687 LINE"
);
}
);
width = 697;
}
);
leftKerningGroup = O;
note = Ocircumflexgrave;
rightKerningGroup = O;
unicode = 1ED2;
},
{
glyphname = Ocircumflexhookabove;
lastChange = "2015-10-24 17:50:51 +0000";
layers = (
{
layerId = "51D8E656-CCF3-4A73-A171-84F1BD8DE29C";
name = "Regular Italic";
paths = (
{
closed = 1;
nodes = (
"518 -10 OFFCURVE",
"632 94 OFFCURVE",
"681 320 CURVE SMOOTH",
"730 554 OFFCURVE",
"642 654 OFFCURVE",
"447 654 CURVE SMOOTH",
"236 654 OFFCURVE",
"120 554 OFFCURVE",
"71 320 CURVE SMOOTH",
"22 94 OFFCURVE",
"111 -10 OFFCURVE",
"305 -10 CURVE SMOOTH"
);
},
{
closed = 1;
nodes = (
"182 82 OFFCURVE",
"145 151 OFFCURVE",
"181 320 CURVE SMOOTH",
"218 498 OFFCURVE",
"300 561 OFFCURVE",
"427 561 CURVE SMOOTH",
"574 561 OFFCURVE",
"609 498 OFFCURVE",
"572 320 CURVE SMOOTH",
"536 151 OFFCURVE",
"453 82 OFFCURVE",
"325 82 CURVE SMOOTH"
);
},
{
closed = 1;
nodes = (
"384 687 LINE",
"473 769 LINE",
"526 687 LINE",
"612 687 LINE",
"521 814 LINE",
"436 814 LINE",
"291 687 LINE"
);
},
{
closed = 1;
nodes = (
"647 779 LINE",
"654 813 LINE",
"710 821 OFFCURVE",
"738 846 OFFCURVE",
"748 890 CURVE SMOOTH",
"758 937 OFFCURVE",
"726 968 OFFCURVE",
"661 968 CURVE SMOOTH",
"628 968 OFFCURVE",
"604 963 OFFCURVE",
"583 956 CURVE",
"571 903 LINE",
"589 910 OFFCURVE",
"608 915 OFFCURVE",
"629 915 CURVE SMOOTH",
"661 915 OFFCURVE",
"674 906 OFFCURVE",
"669 884 CURVE SMOOTH",
"664 860 OFFCURVE",
"649 848 OFFCURVE",
"585 845 CURVE",
"571 779 LINE"
);
}
);
width = 697;
}
);
leftKerningGroup = O;
note = Ocircumflexhookabove;
rightKerningGroup = O;
unicode = 1ED4;
},
{
glyphname = Ocircumflextilde;
lastChange = "2015-10-24 17:50:52 +0000";
layers = (
{
layerId = "51D8E656-CCF3-4A73-A171-84F1BD8DE29C";
name = "Regular Italic";
paths = (
{
closed = 1;
nodes = (
"518 -10 OFFCURVE",
"632 94 OFFCURVE",
"681 320 CURVE SMOOTH",
"730 554 OFFCURVE",
"642 654 OFFCURVE",
"447 654 CURVE SMOOTH",
"236 654 OFFCURVE",
"120 554 OFFCURVE",
"71 320 CURVE SMOOTH",
"22 94 OFFCURVE",
"111 -10 OFFCURVE",
"305 -10 CURVE SMOOTH"
);
},
{
closed = 1;
nodes = (
"182 82 OFFCURVE",
"145 151 OFFCURVE",
"181 320 CURVE SMOOTH",
"218 498 OFFCURVE",
"300 561 OFFCURVE",
"427 561 CURVE SMOOTH",
"574 561 OFFCURVE",
"609 498 OFFCURVE",
"572 320 CURVE SMOOTH",
"536 151 OFFCURVE",
"453 82 OFFCURVE",
"325 82 CURVE SMOOTH"
);
},
{
closed = 1;
nodes = (
"549 688 OFFCURVE",
"619 729 OFFCURVE",
"641 836 CURVE",
"573 836 LINE",
"561 777 OFFCURVE",
"520 747 OFFCURVE",
"465 747 CURVE SMOOTH",
"400 747 OFFCURVE",
"381 777 OFFCURVE",
"393 836 CURVE",
"329 836 LINE",
"307 729 OFFCURVE",
"367 688 OFFCURVE",
"454 688 CURVE SMOOTH"
);
},
{
closed = 1;
nodes = (
"602 857 OFFCURVE",
"633 869 OFFCURVE",
"650 886 CURVE",
"664 958 LINE",
"643 934 OFFCURVE",
"615 922 OFFCURVE",
"581 922 CURVE SMOOTH",
"530 922 OFFCURVE",
"498 960 OFFCURVE",
"442 960 CURVE SMOOTH",
"410 960 OFFCURVE",
"374 948 OFFCURVE",
"354 931 CURVE",
"339 860 LINE",
"366 884 OFFCURVE",
"396 894 OFFCURVE",
"429 894 CURVE SMOOTH",
"474 894 OFFCURVE",
"515 857 OFFCURVE",
"568 857 CURVE SMOOTH"
);
}
);
width = 697;
}
);
leftKerningGroup = O;
note = Ocircumflextilde;
rightKerningGroup = O;
unicode = 1ED6;
},
{
glyphname = Odieresis;
lastChange = "2015-10-24 17:50:54 +0000";
layers = (
{
layerId = "51D8E656-CCF3-4A73-A171-84F1BD8DE29C";
name = "Regular Italic";
paths = (
{
closed = 1;
nodes = (
"518 -10 OFFCURVE",
"632 94 OFFCURVE",
"681 320 CURVE SMOOTH",
"730 554 OFFCURVE",
"642 654 OFFCURVE",
"447 654 CURVE SMOOTH",
"236 654 OFFCURVE",
"120 554 OFFCURVE",
"71 320 CURVE SMOOTH",
"22 94 OFFCURVE",
"111 -10 OFFCURVE",
"305 -10 CURVE SMOOTH"
);
},
{
closed = 1;
nodes = (
"182 82 OFFCURVE",
"145 151 OFFCURVE",
"181 320 CURVE SMOOTH",
"218 498 OFFCURVE",
"300 561 OFFCURVE",
"427 561 CURVE SMOOTH",
"574 561 OFFCURVE",
"609 498 OFFCURVE",
"572 320 CURVE SMOOTH",
"536 151 OFFCURVE",
"453 82 OFFCURVE",
"325 82 CURVE SMOOTH"
);
},
{
closed = 1;
nodes = (
"411 712 LINE",
"430 798 LINE",
"339 798 LINE",
"320 712 LINE"
);
},
{
closed = 1;
nodes = (
"597 712 LINE",
"616 798 LINE",
"524 798 LINE",
"505 712 LINE"
);
}
);
width = 697;
}
);
leftKerningGroup = O;
note = Odieresis;
rightKerningGroup = O;
unicode = 00D6;
},
{
glyphname = Odotbelow;
lastChange = "2015-10-24 17:50:53 +0000";
layers = (
{
layerId = "51D8E656-CCF3-4A73-A171-84F1BD8DE29C";
name = "Regular Italic";
paths = (
{
closed = 1;
nodes = (
"518 -10 OFFCURVE",
"632 94 OFFCURVE",
"681 320 CURVE SMOOTH",
"730 554 OFFCURVE",
"642 654 OFFCURVE",
"447 654 CURVE SMOOTH",
"236 654 OFFCURVE",
"120 554 OFFCURVE",
"71 320 CURVE SMOOTH",
"22 94 OFFCURVE",
"111 -10 OFFCURVE",
"305 -10 CURVE SMOOTH"
);
},
{
closed = 1;
nodes = (
"319 -173 LINE",
"337 -85 LINE",
"243 -85 LINE",
"225 -173 LINE"
);
},
{
closed = 1;
nodes = (
"182 82 OFFCURVE",
"145 151 OFFCURVE",
"181 320 CURVE SMOOTH",
"218 498 OFFCURVE",
"300 561 OFFCURVE",
"427 561 CURVE SMOOTH",
"574 561 OFFCURVE",
"609 498 OFFCURVE",
"572 320 CURVE SMOOTH",
"536 151 OFFCURVE",
"453 82 OFFCURVE",
"325 82 CURVE SMOOTH"
);
}
);
width = 697;
}
);
leftKerningGroup = O;
note = Odotbelow;
rightKerningGroup = O;
unicode = 1ECC;
},
{
glyphname = Ograve;
lastChange = "2015-10-24 17:50:51 +0000";
layers = (
{
layerId = "51D8E656-CCF3-4A73-A171-84F1BD8DE29C";
name = "Regular Italic";
paths = (
{
closed = 1;
nodes = (
"518 -10 OFFCURVE",
"632 94 OFFCURVE",
"681 320 CURVE SMOOTH",
"730 554 OFFCURVE",
"642 654 OFFCURVE",
"447 654 CURVE SMOOTH",
"236 654 OFFCURVE",
"120 554 OFFCURVE",
"71 320 CURVE SMOOTH",
"22 94 OFFCURVE",
"111 -10 OFFCURVE",
"305 -10 CURVE SMOOTH"
);
},
{
closed = 1;
nodes = (
"182 82 OFFCURVE",
"145 151 OFFCURVE",
"181 320 CURVE SMOOTH",
"218 498 OFFCURVE",
"300 561 OFFCURVE",
"427 561 CURVE SMOOTH",
"574 561 OFFCURVE",
"609 498 OFFCURVE",
"572 320 CURVE SMOOTH",
"536 151 OFFCURVE",
"453 82 OFFCURVE",
"325 82 CURVE SMOOTH"
);
},
{
closed = 1;
nodes = (
"504 688 LINE",
"466 865 LINE",
"371 865 LINE",
"416 688 LINE"
);
}
);
width = 697;
}
);
leftKerningGroup = O;
note = Ograve;
rightKerningGroup = O;
unicode = 00D2;
},
{
glyphname = Ohookabove;
lastChange = "2015-10-24 17:50:50 +0000";
layers = (
{
layerId = "51D8E656-CCF3-4A73-A171-84F1BD8DE29C";
name = "Regular Italic";
paths = (
{
closed = 1;
nodes = (
"518 -10 OFFCURVE",
"632 94 OFFCURVE",
"681 320 CURVE SMOOTH",
"730 554 OFFCURVE",
"642 654 OFFCURVE",
"447 654 CURVE SMOOTH",
"236 654 OFFCURVE",
"120 554 OFFCURVE",
"71 320 CURVE SMOOTH",
"22 94 OFFCURVE",
"111 -10 OFFCURVE",
"305 -10 CURVE SMOOTH"
);
},
{
closed = 1;
nodes = (
"182 82 OFFCURVE",
"145 151 OFFCURVE",
"181 320 CURVE SMOOTH",
"218 498 OFFCURVE",
"300 561 OFFCURVE",
"427 561 CURVE SMOOTH",
"574 561 OFFCURVE",
"609 498 OFFCURVE",
"572 320 CURVE SMOOTH",
"536 151 OFFCURVE",
"453 82 OFFCURVE",
"325 82 CURVE SMOOTH"
);
},
{
closed = 1;
nodes = (
"498 687 LINE",
"508 734 LINE",
"576 744 OFFCURVE",
"605 773 OFFCURVE",
"616 828 CURVE SMOOTH",
"629 885 OFFCURVE",
"592 921 OFFCURVE",
"510 921 CURVE SMOOTH",
"476 921 OFFCURVE",
"438 916 OFFCURVE",
"414 908 CURVE",
"402 849 LINE",
"420 856 OFFCURVE",
"448 861 OFFCURVE",
"468 861 CURVE SMOOTH",
"516 861 OFFCURVE",
"540 849 OFFCURVE",
"534 819 CURVE SMOOTH",
"527 786 OFFCURVE",
"508 773 OFFCURVE",
"431 769 CURVE",
"413 687 LINE"
);
}
);
width = 697;
}
);
leftKerningGroup = O;
note = Ohookabove;
rightKerningGroup = O;
unicode = 1ECE;
},
{
glyphname = Ohorn;
lastChange = "2015-10-24 17:50:52 +0000";
layers = (
{
layerId = "51D8E656-CCF3-4A73-A171-84F1BD8DE29C";
name = "Regular Italic";
paths = (
{
closed = 1;
nodes = (
"510 -10 OFFCURVE",
"632 94 OFFCURVE",
"681 320 CURVE SMOOTH",
"696 395 OFFCURVE",
"699 455 OFFCURVE",
"688 503 CURVE",
"778 516 OFFCURVE",
"833 565 OFFCURVE",
"859 688 CURVE",
"775 688 LINE",
"757 604 OFFCURVE",
"728 578 OFFCURVE",
"655 577 CURVE",
"616 629 OFFCURVE",
"547 654 OFFCURVE",
"447 654 CURVE SMOOTH",
"243 654 OFFCURVE",
"120 554 OFFCURVE",
"71 320 CURVE SMOOTH",
"22 94 OFFCURVE",
"101 -10 OFFCURVE",
"305 -10 CURVE SMOOTH"
);
},
{
closed = 1;
nodes = (
"192 82 OFFCURVE",
"145 151 OFFCURVE",
"181 320 CURVE SMOOTH",
"218 498 OFFCURVE",
"294 561 OFFCURVE",
"427 561 CURVE SMOOTH",
"561 561 OFFCURVE",
"609 498 OFFCURVE",
"572 320 CURVE SMOOTH",
"536 151 OFFCURVE",
"459 82 OFFCURVE",
"325 82 CURVE SMOOTH"
);
}
);
width = 770;
}
);
leftKerningGroup = O;
note = Ohorn;
rightKerningGroup = O;
unicode = 01A0;
},
{
glyphname = Ohornacute;
lastChange = "2015-10-24 17:50:52 +0000";
layers = (
{
layerId = "51D8E656-CCF3-4A73-A171-84F1BD8DE29C";
name = "Regular Italic";
paths = (
{
closed = 1;
nodes = (
"510 -10 OFFCURVE",
"632 94 OFFCURVE",
"681 320 CURVE SMOOTH",
"696 395 OFFCURVE",
"699 455 OFFCURVE",
"688 503 CURVE",
"778 516 OFFCURVE",
"833 565 OFFCURVE",
"859 688 CURVE",
"775 688 LINE",
"757 604 OFFCURVE",
"728 578 OFFCURVE",
"655 577 CURVE",
"616 629 OFFCURVE",
"547 654 OFFCURVE",
"447 654 CURVE SMOOTH",
"243 654 OFFCURVE",
"120 554 OFFCURVE",
"71 320 CURVE SMOOTH",
"22 94 OFFCURVE",
"101 -10 OFFCURVE",
"305 -10 CURVE SMOOTH"
);
},
{
closed = 1;
nodes = (
"192 82 OFFCURVE",
"145 151 OFFCURVE",
"181 320 CURVE SMOOTH",
"218 498 OFFCURVE",
"294 561 OFFCURVE",
"427 561 CURVE SMOOTH",
"561 561 OFFCURVE",
"609 498 OFFCURVE",
"572 320 CURVE SMOOTH",
"536 151 OFFCURVE",
"459 82 OFFCURVE",
"325 82 CURVE SMOOTH"
);
},
{
closed = 1;
nodes = (
"508 688 LINE",
"630 865 LINE",
"534 865 LINE",
"421 688 LINE"
);
}
);
width = 770;
}
);
leftKerningGroup = O;
note = Ohornacute;
rightKerningGroup = O;
unicode = 1EDA;
},
{
glyphname = Ohorndotbelow;
lastChange = "2015-10-24 17:50:53 +0000";
layers = (
{
layerId = "51D8E656-CCF3-4A73-A171-84F1BD8DE29C";
name = "Regular Italic";
paths = (
{
closed = 1;
nodes = (
"510 -10 OFFCURVE",
"632 94 OFFCURVE",
"681 320 CURVE SMOOTH",
"696 395 OFFCURVE",
"699 455 OFFCURVE",
"688 503 CURVE",
"778 516 OFFCURVE",
"833 565 OFFCURVE",
"859 688 CURVE",
"775 688 LINE",
"757 604 OFFCURVE",
"728 578 OFFCURVE",
"655 577 CURVE",
"616 629 OFFCURVE",
"547 654 OFFCURVE",
"447 654 CURVE SMOOTH",
"243 654 OFFCURVE",
"120 554 OFFCURVE",
"71 320 CURVE SMOOTH",
"22 94 OFFCURVE",
"101 -10 OFFCURVE",
"305 -10 CURVE SMOOTH"
);
},
{
closed = 1;
nodes = (
"323 -173 LINE",
"341 -85 LINE",
"247 -85 LINE",
"229 -173 LINE"
);
},
{
closed = 1;
nodes = (
"192 82 OFFCURVE",
"145 151 OFFCURVE",
"181 320 CURVE SMOOTH",
"218 498 OFFCURVE",
"294 561 OFFCURVE",
"427 561 CURVE SMOOTH",
"561 561 OFFCURVE",
"609 498 OFFCURVE",
"572 320 CURVE SMOOTH",
"536 151 OFFCURVE",
"459 82 OFFCURVE",
"325 82 CURVE SMOOTH"
);
}
);
width = 770;
}
);
leftKerningGroup = O;
note = Ohorndotbelow;
rightKerningGroup = O;
unicode = 1EE2;
},
{
glyphname = Ohorngrave;
lastChange = "2015-10-24 17:50:51 +0000";
layers = (
{
layerId = "51D8E656-CCF3-4A73-A171-84F1BD8DE29C";
name = "Regular Italic";
paths = (
{
closed = 1;
nodes = (
"510 -10 OFFCURVE",
"632 94 OFFCURVE",
"681 320 CURVE SMOOTH",
"696 395 OFFCURVE",
"699 455 OFFCURVE",
"688 503 CURVE",
"778 516 OFFCURVE",
"833 565 OFFCURVE",
"859 688 CURVE",
"775 688 LINE",
"757 604 OFFCURVE",
"728 578 OFFCURVE",
"655 577 CURVE",
"616 629 OFFCURVE",
"547 654 OFFCURVE",
"447 654 CURVE SMOOTH",
"243 654 OFFCURVE",
"120 554 OFFCURVE",
"71 320 CURVE SMOOTH",
"22 94 OFFCURVE",
"101 -10 OFFCURVE",
"305 -10 CURVE SMOOTH"
);
},
{
closed = 1;
nodes = (
"192 82 OFFCURVE",
"145 151 OFFCURVE",
"181 320 CURVE SMOOTH",
"218 498 OFFCURVE",
"294 561 OFFCURVE",
"427 561 CURVE SMOOTH",
"561 561 OFFCURVE",
"609 498 OFFCURVE",
"572 320 CURVE SMOOTH",
"536 151 OFFCURVE",
"459 82 OFFCURVE",
"325 82 CURVE SMOOTH"
);
},
{
closed = 1;
nodes = (
"519 688 LINE",
"481 865 LINE",
"386 865 LINE",
"431 688 LINE"
);
}
);
width = 770;
}
);
leftKerningGroup = O;
note = Ohorngrave;
rightKerningGroup = O;
unicode = 1EDC;
},
{
glyphname = Ohornhookabove;
lastChange = "2015-10-24 17:50:51 +0000";
layers = (
{
layerId = "51D8E656-CCF3-4A73-A171-84F1BD8DE29C";
name = "Regular Italic";
paths = (
{
closed = 1;
nodes = (
"510 -10 OFFCURVE",
"632 94 OFFCURVE",
"681 320 CURVE SMOOTH",
"696 395 OFFCURVE",
"699 455 OFFCURVE",
"688 503 CURVE",
"778 516 OFFCURVE",
"833 565 OFFCURVE",
"859 688 CURVE",
"775 688 LINE",
"757 604 OFFCURVE",
"728 578 OFFCURVE",
"655 577 CURVE",
"616 629 OFFCURVE",
"547 654 OFFCURVE",
"447 654 CURVE SMOOTH",
"243 654 OFFCURVE",
"120 554 OFFCURVE",
"71 320 CURVE SMOOTH",
"22 94 OFFCURVE",
"101 -10 OFFCURVE",
"305 -10 CURVE SMOOTH"
);
},
{
closed = 1;
nodes = (
"192 82 OFFCURVE",
"145 151 OFFCURVE",
"181 320 CURVE SMOOTH",
"218 498 OFFCURVE",
"294 561 OFFCURVE",
"427 561 CURVE SMOOTH",
"561 561 OFFCURVE",
"609 498 OFFCURVE",
"572 320 CURVE SMOOTH",
"536 151 OFFCURVE",
"459 82 OFFCURVE",
"325 82 CURVE SMOOTH"
);
},
{
closed = 1;
nodes = (
"503 687 LINE",
"513 734 LINE",
"581 744 OFFCURVE",
"610 773 OFFCURVE",
"621 828 CURVE SMOOTH",
"634 885 OFFCURVE",
"597 921 OFFCURVE",
"515 921 CURVE SMOOTH",
"481 921 OFFCURVE",
"443 916 OFFCURVE",
"419 908 CURVE",
"407 849 LINE",
"425 856 OFFCURVE",
"453 861 OFFCURVE",
"473 861 CURVE SMOOTH",
"521 861 OFFCURVE",
"545 849 OFFCURVE",
"539 819 CURVE SMOOTH",
"532 786 OFFCURVE",
"513 773 OFFCURVE",
"436 769 CURVE",
"418 687 LINE"
);
}
);
width = 770;
}
);
leftKerningGroup = O;
note = Ohornhookabove;
rightKerningGroup = O;
unicode = 1EDE;
},
{
glyphname = Ohorntilde;
lastChange = "2015-10-24 17:50:50 +0000";
layers = (
{
layerId = "51D8E656-CCF3-4A73-A171-84F1BD8DE29C";
name = "Regular Italic";
paths = (
{
closed = 1;
nodes = (
"510 -10 OFFCURVE",
"632 94 OFFCURVE",
"681 320 CURVE SMOOTH",
"696 395 OFFCURVE",
"699 455 OFFCURVE",
"688 503 CURVE",
"778 516 OFFCURVE",
"833 565 OFFCURVE",
"859 688 CURVE",
"775 688 LINE",
"757 604 OFFCURVE",
"728 578 OFFCURVE",
"655 577 CURVE",
"616 629 OFFCURVE",
"547 654 OFFCURVE",
"447 654 CURVE SMOOTH",
"243 654 OFFCURVE",
"120 554 OFFCURVE",
"71 320 CURVE SMOOTH",
"22 94 OFFCURVE",
"101 -10 OFFCURVE",
"305 -10 CURVE SMOOTH"
);
},
{
closed = 1;
nodes = (
"192 82 OFFCURVE",
"145 151 OFFCURVE",
"181 320 CURVE SMOOTH",
"218 498 OFFCURVE",
"294 561 OFFCURVE",
"427 561 CURVE SMOOTH",
"561 561 OFFCURVE",
"609 498 OFFCURVE",
"572 320 CURVE SMOOTH",
"536 151 OFFCURVE",
"459 82 OFFCURVE",
"325 82 CURVE SMOOTH"
);
},
{
closed = 1;
nodes = (
"587 701 OFFCURVE",
"620 714 OFFCURVE",
"637 732 CURVE",
"654 812 LINE",
"631 788 OFFCURVE",
"602 775 OFFCURVE",
"566 775 CURVE SMOOTH",
"513 775 OFFCURVE",
"479 814 OFFCURVE",
"421 814 CURVE SMOOTH",
"388 814 OFFCURVE",
"351 802 OFFCURVE",
"330 784 CURVE",
"313 704 LINE",
"342 730 OFFCURVE",
"373 740 OFFCURVE",
"408 740 CURVE SMOOTH",
"454 740 OFFCURVE",
"496 701 OFFCURVE",
"551 701 CURVE SMOOTH"
);
}
);
width = 770;
}
);
leftKerningGroup = O;
note = Ohorntilde;
rightKerningGroup = O;
unicode = 1EE0;
},
{
glyphname = Ohungarumlaut;
lastChange = "2015-10-24 17:50:51 +0000";
layers = (
{
layerId = "51D8E656-CCF3-4A73-A171-84F1BD8DE29C";
name = "Regular Italic";
paths = (
{
closed = 1;
nodes = (
"518 -10 OFFCURVE",
"632 94 OFFCURVE",
"681 320 CURVE SMOOTH",
"730 554 OFFCURVE",
"642 654 OFFCURVE",
"447 654 CURVE SMOOTH",
"236 654 OFFCURVE",
"120 554 OFFCURVE",
"71 320 CURVE SMOOTH",
"22 94 OFFCURVE",
"111 -10 OFFCURVE",
"305 -10 CURVE SMOOTH"
);
},
{
closed = 1;
nodes = (
"182 82 OFFCURVE",
"145 151 OFFCURVE",
"181 320 CURVE SMOOTH",
"218 498 OFFCURVE",
"300 561 OFFCURVE",
"427 561 CURVE SMOOTH",
"574 561 OFFCURVE",
"609 498 OFFCURVE",
"572 320 CURVE SMOOTH",
"536 151 OFFCURVE",
"453 82 OFFCURVE",
"325 82 CURVE SMOOTH"
);
},
{
closed = 1;
nodes = (
"364 687 LINE",
"484 851 LINE",
"386 851 LINE",
"276 687 LINE"
);
},
{
closed = 1;
nodes = (
"580 687 LINE",
"701 851 LINE",
"602 851 LINE",
"492 687 LINE"
);
}
);
width = 697;
}
);
leftKerningGroup = O;
note = Ohungarumlaut;
rightKerningGroup = O;
unicode = 0150;
},
{
glyphname = Omacron;
lastChange = "2015-10-24 17:50:51 +0000";
layers = (
{
layerId = "51D8E656-CCF3-4A73-A171-84F1BD8DE29C";
name = "Regular Italic";
paths = (
{
closed = 1;
nodes = (
"518 -10 OFFCURVE",
"632 94 OFFCURVE",
"681 320 CURVE SMOOTH",
"730 554 OFFCURVE",
"642 654 OFFCURVE",
"447 654 CURVE SMOOTH",
"236 654 OFFCURVE",
"120 554 OFFCURVE",
"71 320 CURVE SMOOTH",
"22 94 OFFCURVE",
"111 -10 OFFCURVE",
"305 -10 CURVE SMOOTH"
);
},
{
closed = 1;
nodes = (
"182 82 OFFCURVE",
"145 151 OFFCURVE",
"181 320 CURVE SMOOTH",
"218 498 OFFCURVE",
"300 561 OFFCURVE",
"427 561 CURVE SMOOTH",
"574 561 OFFCURVE",
"609 498 OFFCURVE",
"572 320 CURVE SMOOTH",
"536 151 OFFCURVE",
"453 82 OFFCURVE",
"325 82 CURVE SMOOTH"
);
},
{
closed = 1;
nodes = (
"607 721 LINE",
"622 792 LINE",
"325 792 LINE",
"310 721 LINE"
);
}
);
width = 697;
}
);
leftKerningGroup = O;
note = Omacron;
rightKerningGroup = O;
unicode = 014C;
},
{
glyphname = Oslash;
lastChange = "2015-10-24 17:50:50 +0000";
layers = (
{
layerId = "51D8E656-CCF3-4A73-A171-84F1BD8DE29C";
name = "Regular Italic";
paths = (
{
closed = 1;
nodes = (
"187 -53 LINE",
"217 -1 LINE",
"243 -7 OFFCURVE",
"273 -10 OFFCURVE",
"305 -10 CURVE SMOOTH",
"518 -10 OFFCURVE",
"633 94 OFFCURVE",
"681 320 CURVE SMOOTH",
"716 487 OFFCURVE",
"681 586 OFFCURVE",
"587 628 CURVE",
"625 693 LINE",
"551 693 LINE",
"524 647 LINE",
"501 651 OFFCURVE",
"475 654 OFFCURVE",
"447 654 CURVE SMOOTH",
"236 654 OFFCURVE",
"121 554 OFFCURVE",
"71 320 CURVE SMOOTH",
"38 164 OFFCURVE",
"69 66 OFFCURVE",
"156 20 CURVE",
"113 -53 LINE"
);
},
{
closed = 1;
nodes = (
"164 145 OFFCURVE",
"158 213 OFFCURVE",
"181 320 CURVE SMOOTH",
"218 498 OFFCURVE",
"300 561 OFFCURVE",
"427 561 CURVE SMOOTH",
"443 561 OFFCURVE",
"458 560 OFFCURVE",
"472 558 CURVE",
"209 111 LINE"
);
},
{
closed = 1;
nodes = (
"304 82 OFFCURVE",
"286 83 OFFCURVE",
"269 86 CURVE",
"535 540 LINE",
"589 509 OFFCURVE",
"597 441 OFFCURVE",
"572 320 CURVE SMOOTH",
"536 151 OFFCURVE",
"453 82 OFFCURVE",
"325 82 CURVE SMOOTH"
);
}
);
width = 697;
}
);
leftKerningGroup = O;
note = Oslash;
rightKerningGroup = O;
unicode = 00D8;
},
{
glyphname = Oslashacute;
lastChange = "2015-10-24 17:50:52 +0000";
layers = (
{
layerId = "51D8E656-CCF3-4A73-A171-84F1BD8DE29C";
name = "Regular Italic";
paths = (
{
closed = 1;
nodes = (
"187 -53 LINE",
"217 -1 LINE",
"243 -7 OFFCURVE",
"273 -10 OFFCURVE",
"305 -10 CURVE SMOOTH",
"518 -10 OFFCURVE",
"633 94 OFFCURVE",
"681 320 CURVE SMOOTH",
"716 487 OFFCURVE",
"681 586 OFFCURVE",
"587 628 CURVE",
"625 693 LINE",
"551 693 LINE",
"524 647 LINE",
"501 651 OFFCURVE",
"475 654 OFFCURVE",
"447 654 CURVE SMOOTH",
"236 654 OFFCURVE",
"121 554 OFFCURVE",
"71 320 CURVE SMOOTH",
"38 164 OFFCURVE",
"69 66 OFFCURVE",
"156 20 CURVE",
"113 -53 LINE"
);
},
{
closed = 1;
nodes = (
"164 145 OFFCURVE",
"158 213 OFFCURVE",
"181 320 CURVE SMOOTH",
"218 498 OFFCURVE",
"300 561 OFFCURVE",
"427 561 CURVE SMOOTH",
"443 561 OFFCURVE",
"458 560 OFFCURVE",
"472 558 CURVE",
"209 111 LINE"
);
},
{
closed = 1;
nodes = (
"304 82 OFFCURVE",
"286 83 OFFCURVE",
"269 86 CURVE",
"535 540 LINE",
"589 509 OFFCURVE",
"597 441 OFFCURVE",
"572 320 CURVE SMOOTH",
"536 151 OFFCURVE",
"453 82 OFFCURVE",
"325 82 CURVE SMOOTH"
);
},
{
closed = 1;
nodes = (
"478 688 LINE",
"600 865 LINE",
"504 865 LINE",
"391 688 LINE"
);
}
);
width = 697;
}
);
leftKerningGroup = O;
note = Oslashacute;
rightKerningGroup = O;
unicode = 01FE;
},
{
glyphname = Otilde;
lastChange = "2015-10-24 17:50:51 +0000";
layers = (
{
layerId = "51D8E656-CCF3-4A73-A171-84F1BD8DE29C";
name = "Regular Italic";
paths = (
{
closed = 1;
nodes = (
"518 -10 OFFCURVE",
"632 94 OFFCURVE",
"681 320 CURVE SMOOTH",
"730 554 OFFCURVE",
"642 654 OFFCURVE",
"447 654 CURVE SMOOTH",
"236 654 OFFCURVE",
"120 554 OFFCURVE",
"71 320 CURVE SMOOTH",
"22 94 OFFCURVE",
"111 -10 OFFCURVE",
"305 -10 CURVE SMOOTH"
);
},
{
closed = 1;
nodes = (
"182 82 OFFCURVE",
"145 151 OFFCURVE",
"181 320 CURVE SMOOTH",
"218 498 OFFCURVE",
"300 561 OFFCURVE",
"427 561 CURVE SMOOTH",
"574 561 OFFCURVE",
"609 498 OFFCURVE",
"572 320 CURVE SMOOTH",
"536 151 OFFCURVE",
"453 82 OFFCURVE",
"325 82 CURVE SMOOTH"
);
},
{
closed = 1;
nodes = (
"571 695 OFFCURVE",
"604 708 OFFCURVE",
"621 726 CURVE",
"638 806 LINE",
"615 782 OFFCURVE",
"586 769 OFFCURVE",
"550 769 CURVE SMOOTH",
"497 769 OFFCURVE",
"463 808 OFFCURVE",
"405 808 CURVE SMOOTH",
"372 808 OFFCURVE",
"335 796 OFFCURVE",
"314 778 CURVE",
"297 698 LINE",
"326 724 OFFCURVE",
"357 734 OFFCURVE",
"392 734 CURVE SMOOTH",
"438 734 OFFCURVE",
"480 695 OFFCURVE",
"535 695 CURVE SMOOTH"
);
}
);
width = 697;
}
);
leftKerningGroup = O;
note = Otilde;
rightKerningGroup = O;
unicode = 00D5;
},
{
glyphname = OE;
lastChange = "2015-10-24 17:50:51 +0000";
layers = (
{
layerId = "51D8E656-CCF3-4A73-A171-84F1BD8DE29C";
name = "Regular Italic";
paths = (
{
closed = 1;
nodes = (
"388 -10 OFFCURVE",
"457 6 OFFCURVE",
"512 40 CURVE",
"504 0 LINE",
"953 0 LINE",
"970 84 LINE",
"630 84 LINE",
"672 280 LINE",
"975 280 LINE",
"993 364 LINE",
"690 364 LINE",
"731 559 LINE",
"1071 559 LINE",
"1089 644 LINE",
"640 644 LINE",
"631 600 LINE",
"589 637 OFFCURVE",
"526 654 OFFCURVE",
"446 654 CURVE SMOOTH",
"235 654 OFFCURVE",
"119 554 OFFCURVE",
"70 320 CURVE SMOOTH",
"21 94 OFFCURVE",
"110 -10 OFFCURVE",
"304 -10 CURVE SMOOTH"
);
},
{
closed = 1;
nodes = (
"181 82 OFFCURVE",
"144 151 OFFCURVE",
"180 320 CURVE SMOOTH",
"217 498 OFFCURVE",
"299 561 OFFCURVE",
"426 561 CURVE SMOOTH",
"573 561 OFFCURVE",
"608 498 OFFCURVE",
"571 320 CURVE SMOOTH",
"535 151 OFFCURVE",
"452 82 OFFCURVE",
"324 82 CURVE SMOOTH"
);
}
);
width = 1037;
}
);
leftKerningGroup = O;
note = OE;
rightKerningGroup = E;
unicode = 0152;
},
{
glyphname = P;
lastChange = "2015-10-24 17:50:52 +0000";
layers = (
{
layerId = "51D8E656-CCF3-4A73-A171-84F1BD8DE29C";
name = "Regular Italic";
paths = (
{
closed = 1;
nodes = (
"132 0 LINE",
"178 217 LINE",
"352 217 LINE SMOOTH",
"501 217 OFFCURVE",
"589 301 OFFCURVE",
"617 429 CURVE SMOOTH",
"643 553 OFFCURVE",
"590 644 OFFCURVE",
"446 644 CURVE SMOOTH",
"159 644 LINE",
"23 0 LINE"
);
},
{
closed = 1;
nodes = (
"250 559 LINE",
"417 559 LINE SMOOTH",
"509 559 OFFCURVE",
"526 522 OFFCURVE",
"508 429 CURVE SMOOTH",
"493 352 OFFCURVE",
"446 303 OFFCURVE",
"350 303 CURVE SMOOTH",
"196 303 LINE"
);
}
);
width = 590;
}
);
note = P;
unicode = 0050;
},
{
glyphname = Thorn;
lastChange = "2015-10-24 17:50:53 +0000";
layers = (
{
layerId = "51D8E656-CCF3-4A73-A171-84F1BD8DE29C";
name = "Regular Italic";
paths = (
{
closed = 1;
nodes = (
"132 0 LINE",
"154 107 LINE",
"328 107 LINE SMOOTH",
"477 107 OFFCURVE",
"566 192 OFFCURVE",
"594 320 CURVE SMOOTH",
"620 444 OFFCURVE",
"564 534 OFFCURVE",
"423 534 CURVE SMOOTH",
"245 534 LINE",
"268 644 LINE",
"159 644 LINE",
"23 0 LINE"
);
},
{
closed = 1;
nodes = (
"227 448 LINE",
"386 448 LINE SMOOTH",
"481 448 OFFCURVE",
"503 408 OFFCURVE",
"485 320 CURVE SMOOTH",
"469 243 OFFCURVE",
"413 193 OFFCURVE",
"327 193 CURVE SMOOTH",
"173 193 LINE"
);
}
);
width = 609;
}
);
note = Thorn;
unicode = 00DE;
},
{
glyphname = Q;
lastChange = "2015-10-24 17:50:53 +0000";
layers = (
{
layerId = "51D8E656-CCF3-4A73-A171-84F1BD8DE29C";
name = "Regular Italic";
paths = (
{
closed = 1;
nodes = (
"398 -172 OFFCURVE",
"437 -167 OFFCURVE",
"460 -160 CURVE",
"478 -79 LINE",
"455 -85 OFFCURVE",
"427 -89 OFFCURVE",
"405 -89 CURVE SMOOTH",
"352 -89 OFFCURVE",
"334 -79 OFFCURVE",
"348 -8 CURVE",
"533 5 OFFCURVE",
"635 109 OFFCURVE",
"681 320 CURVE SMOOTH",
"730 554 OFFCURVE",
"642 654 OFFCURVE",
"447 654 CURVE SMOOTH",
"236 654 OFFCURVE",
"120 554 OFFCURVE",
"71 320 CURVE SMOOTH",
"27 116 OFFCURVE",
"95 11 OFFCURVE",
"251 -7 CURVE",
"231 -112 OFFCURVE",
"268 -172 OFFCURVE",
"364 -172 CURVE SMOOTH"
);
},
{
closed = 1;
nodes = (
"182 82 OFFCURVE",
"145 151 OFFCURVE",
"181 320 CURVE SMOOTH",
"218 498 OFFCURVE",
"300 561 OFFCURVE",
"427 561 CURVE SMOOTH",
"574 561 OFFCURVE",
"609 498 OFFCURVE",
"572 320 CURVE SMOOTH",
"536 151 OFFCURVE",
"453 82 OFFCURVE",
"325 82 CURVE SMOOTH"
);
}
);
width = 697;
}
);
leftKerningGroup = O;
note = Q;
rightKerningGroup = O;
unicode = 0051;
},
{
glyphname = R;
lastChange = "2015-10-24 17:50:52 +0000";
layers = (
{
layerId = "51D8E656-CCF3-4A73-A171-84F1BD8DE29C";
name = "Regular Italic";
paths = (
{
closed = 1;
nodes = (
"132 0 LINE",
"180 228 LINE",
"301 228 LINE SMOOTH",
"350 228 OFFCURVE",
"362 214 OFFCURVE",
"370 180 CURVE SMOOTH",
"411 0 LINE",
"523 0 LINE",
"481 187 LINE SMOOTH",
"474 220 OFFCURVE",
"468 238 OFFCURVE",
"448 255 CURVE",
"543 279 OFFCURVE",
"599 347 OFFCURVE",
"619 438 CURVE SMOOTH",
"646 565 OFFCURVE",
"588 644 OFFCURVE",
"445 644 CURVE SMOOTH",
"159 644 LINE",
"23 0 LINE"
);
},
{
closed = 1;
nodes = (
"250 559 LINE",
"418 559 LINE SMOOTH",
"505 559 OFFCURVE",
"529 522 OFFCURVE",
"510 438 CURVE SMOOTH",
"491 352 OFFCURVE",
"443 316 OFFCURVE",
"357 316 CURVE SMOOTH",
"199 316 LINE"
);
}
);
width = 610;
}
);
note = R;
rightKerningGroup = R;
unicode = 0052;
},
{
glyphname = Racute;
lastChange = "2015-10-24 17:50:52 +0000";
layers = (
{
layerId = "51D8E656-CCF3-4A73-A171-84F1BD8DE29C";
name = "Regular Italic";
paths = (
{
closed = 1;
nodes = (
"132 0 LINE",
"180 228 LINE",
"301 228 LINE SMOOTH",
"350 228 OFFCURVE",
"362 214 OFFCURVE",
"370 180 CURVE SMOOTH",
"411 0 LINE",
"523 0 LINE",
"481 187 LINE SMOOTH",
"474 220 OFFCURVE",
"468 238 OFFCURVE",
"448 255 CURVE",
"543 279 OFFCURVE",
"599 347 OFFCURVE",
"619 438 CURVE SMOOTH",
"646 565 OFFCURVE",
"588 644 OFFCURVE",
"445 644 CURVE SMOOTH",
"159 644 LINE",
"23 0 LINE"
);
},
{
closed = 1;
nodes = (
"250 559 LINE",
"418 559 LINE SMOOTH",
"505 559 OFFCURVE",
"529 522 OFFCURVE",
"510 438 CURVE SMOOTH",
"491 352 OFFCURVE",
"443 316 OFFCURVE",
"357 316 CURVE SMOOTH",
"199 316 LINE"
);
},
{
closed = 1;
nodes = (
"432 688 LINE",
"554 865 LINE",
"458 865 LINE",
"345 688 LINE"
);
}
);
width = 610;
}
);
note = Racute;
rightKerningGroup = R;
unicode = 0154;
},
{
glyphname = Rcaron;
lastChange = "2015-10-24 17:50:54 +0000";
layers = (
{
layerId = "51D8E656-CCF3-4A73-A171-84F1BD8DE29C";
name = "Regular Italic";
paths = (
{
closed = 1;
nodes = (
"132 0 LINE",
"180 228 LINE",
"301 228 LINE SMOOTH",
"350 228 OFFCURVE",
"362 214 OFFCURVE",
"370 180 CURVE SMOOTH",
"411 0 LINE",
"523 0 LINE",
"481 187 LINE SMOOTH",
"474 220 OFFCURVE",
"468 238 OFFCURVE",
"448 255 CURVE",
"543 279 OFFCURVE",
"599 347 OFFCURVE",
"619 438 CURVE SMOOTH",
"646 565 OFFCURVE",
"588 644 OFFCURVE",
"445 644 CURVE SMOOTH",
"159 644 LINE",
"23 0 LINE"
);
},
{
closed = 1;
nodes = (
"250 559 LINE",
"418 559 LINE SMOOTH",
"505 559 OFFCURVE",
"529 522 OFFCURVE",
"510 438 CURVE SMOOTH",
"491 352 OFFCURVE",
"443 316 OFFCURVE",
"357 316 CURVE SMOOTH",
"199 316 LINE"
);
},
{
closed = 1;
nodes = (
"437 687 LINE",
"596 848 LINE",
"506 848 LINE",
"409 747 LINE",
"356 848 LINE",
"271 848 LINE",
"361 687 LINE"
);
}
);
width = 610;
}
);
note = Rcaron;
rightKerningGroup = R;
unicode = 0158;
},
{
glyphname = Rcommaaccent;
lastChange = "2015-10-24 17:50:53 +0000";
layers = (
{
layerId = "51D8E656-CCF3-4A73-A171-84F1BD8DE29C";
name = "Regular Italic";
paths = (
{
closed = 1;
nodes = (
"132 0 LINE",
"180 228 LINE",
"301 228 LINE SMOOTH",
"350 228 OFFCURVE",
"362 214 OFFCURVE",
"370 180 CURVE SMOOTH",
"411 0 LINE",
"523 0 LINE",
"481 187 LINE SMOOTH",
"474 220 OFFCURVE",
"468 238 OFFCURVE",
"448 255 CURVE",
"543 279 OFFCURVE",
"599 347 OFFCURVE",
"619 438 CURVE SMOOTH",
"646 565 OFFCURVE",
"588 644 OFFCURVE",
"445 644 CURVE SMOOTH",
"159 644 LINE",
"23 0 LINE"
);
},
{
closed = 1;
nodes = (
"202 -226 LINE",
"289 -37 LINE",
"199 -37 LINE",
"130 -226 LINE"
);
},
{
closed = 1;
nodes = (
"250 559 LINE",
"418 559 LINE SMOOTH",
"505 559 OFFCURVE",
"529 522 OFFCURVE",
"510 438 CURVE SMOOTH",
"491 352 OFFCURVE",
"443 316 OFFCURVE",
"357 316 CURVE SMOOTH",
"199 316 LINE"
);
}
);
width = 610;
}
);
note = Rcommaaccent;
rightKerningGroup = R;
unicode = 0156;
},
{
glyphname = Rdotbelow;
lastChange = "2015-10-24 17:50:52 +0000";
layers = (
{
layerId = "51D8E656-CCF3-4A73-A171-84F1BD8DE29C";
name = "Regular Italic";
paths = (
{
closed = 1;
nodes = (
"132 0 LINE",
"180 228 LINE",
"301 228 LINE SMOOTH",
"350 228 OFFCURVE",
"362 214 OFFCURVE",
"370 180 CURVE SMOOTH",
"411 0 LINE",
"523 0 LINE",
"481 187 LINE SMOOTH",
"474 220 OFFCURVE",
"468 238 OFFCURVE",
"448 255 CURVE",
"543 279 OFFCURVE",
"599 347 OFFCURVE",
"619 438 CURVE SMOOTH",
"646 565 OFFCURVE",
"588 644 OFFCURVE",
"445 644 CURVE SMOOTH",
"159 644 LINE",
"23 0 LINE"
);
},
{
closed = 1;
nodes = (
"277 -173 LINE",
"295 -85 LINE",
"201 -85 LINE",
"183 -173 LINE"
);
},
{
closed = 1;
nodes = (
"250 559 LINE",
"418 559 LINE SMOOTH",
"505 559 OFFCURVE",
"529 522 OFFCURVE",
"510 438 CURVE SMOOTH",
"491 352 OFFCURVE",
"443 316 OFFCURVE",
"357 316 CURVE SMOOTH",
"199 316 LINE"
);
}
);
width = 610;
}
);
note = Rdotbelow;
rightKerningGroup = R;
unicode = 1E5A;
},
{
glyphname = Rdotbelowmacron;
lastChange = "2015-10-24 17:50:52 +0000";
layers = (
{
layerId = "51D8E656-CCF3-4A73-A171-84F1BD8DE29C";
name = "Regular Italic";
paths = (
{
closed = 1;
nodes = (
"132 0 LINE",
"180 228 LINE",
"301 228 LINE SMOOTH",
"350 228 OFFCURVE",
"362 214 OFFCURVE",
"370 180 CURVE SMOOTH",
"411 0 LINE",
"523 0 LINE",
"481 187 LINE SMOOTH",
"474 220 OFFCURVE",
"468 238 OFFCURVE",
"448 255 CURVE",
"543 279 OFFCURVE",
"599 347 OFFCURVE",
"619 438 CURVE SMOOTH",
"646 565 OFFCURVE",
"588 644 OFFCURVE",
"445 644 CURVE SMOOTH",
"159 644 LINE",
"23 0 LINE"
);
},
{
closed = 1;
nodes = (
"263 -173 LINE",
"281 -85 LINE",
"187 -85 LINE",
"169 -173 LINE"
);
},
{
closed = 1;
nodes = (
"250 559 LINE",
"418 559 LINE SMOOTH",
"505 559 OFFCURVE",
"529 522 OFFCURVE",
"510 438 CURVE SMOOTH",
"491 352 OFFCURVE",
"443 316 OFFCURVE",
"357 316 CURVE SMOOTH",
"199 316 LINE"
);
},
{
closed = 1;
nodes = (
"553 717 LINE",
"568 788 LINE",
"271 788 LINE",
"256 717 LINE"
);
}
);
width = 610;
}
);
note = Rdotbelowmacron;
rightKerningGroup = R;
unicode = 1E5C;
},
{
glyphname = Rlinebelow;
lastChange = "2015-10-24 17:50:53 +0000";
layers = (
{
layerId = "51D8E656-CCF3-4A73-A171-84F1BD8DE29C";
name = "Regular Italic";
paths = (
{
closed = 1;
nodes = (
"132 0 LINE",
"180 228 LINE",
"301 228 LINE SMOOTH",
"350 228 OFFCURVE",
"362 214 OFFCURVE",
"370 180 CURVE SMOOTH",
"411 0 LINE",
"523 0 LINE",
"481 187 LINE SMOOTH",
"474 220 OFFCURVE",
"468 238 OFFCURVE",
"448 255 CURVE",
"543 279 OFFCURVE",
"599 347 OFFCURVE",
"619 438 CURVE SMOOTH",
"646 565 OFFCURVE",
"588 644 OFFCURVE",
"445 644 CURVE SMOOTH",
"159 644 LINE",
"23 0 LINE"
);
},
{
closed = 1;
nodes = (
"372 -143 LINE",
"387 -72 LINE",
"90 -72 LINE",
"75 -143 LINE"
);
},
{
closed = 1;
nodes = (
"250 559 LINE",
"418 559 LINE SMOOTH",
"505 559 OFFCURVE",
"529 522 OFFCURVE",
"510 438 CURVE SMOOTH",
"491 352 OFFCURVE",
"443 316 OFFCURVE",
"357 316 CURVE SMOOTH",
"199 316 LINE"
);
}
);
width = 610;
}
);
note = Rlinebelow;
rightKerningGroup = R;
unicode = 1E5E;
},
{
glyphname = S;
lastChange = "2015-10-24 17:50:53 +0000";
layers = (
{
layerId = "51D8E656-CCF3-4A73-A171-84F1BD8DE29C";
name = "Regular Italic";
paths = (
{
closed = 1;
nodes = (
"403 -10 OFFCURVE",
"484 59 OFFCURVE",
"508 172 CURVE SMOOTH",
"528 264 OFFCURVE",
"494 327 OFFCURVE",
"348 366 CURVE SMOOTH",
"232 397 OFFCURVE",
"201 415 OFFCURVE",
"213 473 CURVE SMOOTH",
"227 540 OFFCURVE",
"288 561 OFFCURVE",
"384 561 CURVE SMOOTH",
"443 561 OFFCURVE",
"500 551 OFFCURVE",
"546 532 CURVE",
"566 628 LINE",
"531 641 OFFCURVE",
"464 654 OFFCURVE",
"389 654 CURVE SMOOTH",
"214 654 OFFCURVE",
"127 586 OFFCURVE",
"103 473 CURVE SMOOTH",
"82 376 OFFCURVE",
"126 324 OFFCURVE",
"252 290 CURVE SMOOTH",
"374 257 OFFCURVE",
"412 238 OFFCURVE",
"398 172 CURVE SMOOTH",
"383 100 OFFCURVE",
"328 82 OFFCURVE",
"225 82 CURVE SMOOTH",
"159 82 OFFCURVE",
"94 96 OFFCURVE",
"42 118 CURVE",
"21 22 LINE",
"67 1 OFFCURVE",
"133 -10 OFFCURVE",
"215 -10 CURVE SMOOTH"
);
}
);
width = 555;
}
);
leftKerningGroup = S;
note = S;
rightKerningGroup = S;
unicode = 0053;
},
{
glyphname = Sacute;
lastChange = "2015-10-24 17:50:51 +0000";
layers = (
{
layerId = "51D8E656-CCF3-4A73-A171-84F1BD8DE29C";
name = "Regular Italic";
paths = (
{
closed = 1;
nodes = (
"403 -10 OFFCURVE",
"484 59 OFFCURVE",
"508 172 CURVE SMOOTH",
"528 264 OFFCURVE",
"494 327 OFFCURVE",
"348 366 CURVE SMOOTH",
"232 397 OFFCURVE",
"201 415 OFFCURVE",
"213 473 CURVE SMOOTH",
"227 540 OFFCURVE",
"288 561 OFFCURVE",
"384 561 CURVE SMOOTH",
"443 561 OFFCURVE",
"500 551 OFFCURVE",
"546 532 CURVE",
"566 628 LINE",
"531 641 OFFCURVE",
"464 654 OFFCURVE",
"389 654 CURVE SMOOTH",
"214 654 OFFCURVE",
"127 586 OFFCURVE",
"103 473 CURVE SMOOTH",
"82 376 OFFCURVE",
"126 324 OFFCURVE",
"252 290 CURVE SMOOTH",
"374 257 OFFCURVE",
"412 238 OFFCURVE",
"398 172 CURVE SMOOTH",
"383 100 OFFCURVE",
"328 82 OFFCURVE",
"225 82 CURVE SMOOTH",
"159 82 OFFCURVE",
"94 96 OFFCURVE",
"42 118 CURVE",
"21 22 LINE",
"67 1 OFFCURVE",
"133 -10 OFFCURVE",
"215 -10 CURVE SMOOTH"
);
},
{
closed = 1;
nodes = (
"410 691 LINE",
"532 868 LINE",
"436 868 LINE",
"323 691 LINE"
);
}
);
width = 555;
}
);
leftKerningGroup = S;
note = Sacute;
rightKerningGroup = S;
unicode = 015A;
},
{
glyphname = Scaron;
lastChange = "2015-10-24 17:50:53 +0000";
layers = (
{
layerId = "51D8E656-CCF3-4A73-A171-84F1BD8DE29C";
name = "Regular Italic";
paths = (
{
closed = 1;
nodes = (
"403 -10 OFFCURVE",
"484 59 OFFCURVE",
"508 172 CURVE SMOOTH",
"528 264 OFFCURVE",
"494 327 OFFCURVE",
"348 366 CURVE SMOOTH",
"232 397 OFFCURVE",
"201 415 OFFCURVE",
"213 473 CURVE SMOOTH",
"227 540 OFFCURVE",
"288 561 OFFCURVE",
"384 561 CURVE SMOOTH",
"443 561 OFFCURVE",
"500 551 OFFCURVE",
"546 532 CURVE",
"566 628 LINE",
"531 641 OFFCURVE",
"464 654 OFFCURVE",
"389 654 CURVE SMOOTH",
"214 654 OFFCURVE",
"127 586 OFFCURVE",
"103 473 CURVE SMOOTH",
"82 376 OFFCURVE",
"126 324 OFFCURVE",
"252 290 CURVE SMOOTH",
"374 257 OFFCURVE",
"412 238 OFFCURVE",
"398 172 CURVE SMOOTH",
"383 100 OFFCURVE",
"328 82 OFFCURVE",
"225 82 CURVE SMOOTH",
"159 82 OFFCURVE",
"94 96 OFFCURVE",
"42 118 CURVE",
"21 22 LINE",
"67 1 OFFCURVE",
"133 -10 OFFCURVE",
"215 -10 CURVE SMOOTH"
);
},
{
closed = 1;
nodes = (
"433 687 LINE",
"592 848 LINE",
"502 848 LINE",
"405 747 LINE",
"352 848 LINE",
"267 848 LINE",
"357 687 LINE"
);
}
);
width = 555;
}
);
leftKerningGroup = S;
note = Scaron;
rightKerningGroup = S;
unicode = 0160;
},
{
glyphname = Scedilla;
lastChange = "2015-10-24 17:50:53 +0000";
layers = (
{
layerId = "51D8E656-CCF3-4A73-A171-84F1BD8DE29C";
name = "Regular Italic";
paths = (
{
closed = 1;
nodes = (
"254 -240 OFFCURVE",
"308 -203 OFFCURVE",
"322 -137 CURVE SMOOTH",
"334 -81 OFFCURVE",
"305 -47 OFFCURVE",
"234 -47 CURVE",
"254 -9 LINE",
"414 0 OFFCURVE",
"485 67 OFFCURVE",
"508 172 CURVE SMOOTH",
"528 264 OFFCURVE",
"494 327 OFFCURVE",
"348 366 CURVE SMOOTH",
"232 397 OFFCURVE",
"201 415 OFFCURVE",
"213 473 CURVE SMOOTH",
"227 540 OFFCURVE",
"288 561 OFFCURVE",
"384 561 CURVE SMOOTH",
"443 561 OFFCURVE",
"500 551 OFFCURVE",
"546 532 CURVE",
"566 628 LINE",
"531 641 OFFCURVE",
"464 654 OFFCURVE",
"389 654 CURVE SMOOTH",
"214 654 OFFCURVE",
"127 586 OFFCURVE",
"103 473 CURVE SMOOTH",
"82 376 OFFCURVE",
"126 324 OFFCURVE",
"252 290 CURVE SMOOTH",
"374 257 OFFCURVE",
"412 238 OFFCURVE",
"398 172 CURVE SMOOTH",
"383 100 OFFCURVE",
"328 82 OFFCURVE",
"225 82 CURVE SMOOTH",
"159 82 OFFCURVE",
"94 96 OFFCURVE",
"42 118 CURVE",
"21 22 LINE",
"60 4 OFFCURVE",
"114 -7 OFFCURVE",
"181 -9 CURVE",
"137 -95 LINE",
"177 -95 LINE SMOOTH",
"229 -95 OFFCURVE",
"256 -99 OFFCURVE",
"249 -136 CURVE SMOOTH",
"241 -173 OFFCURVE",
"215 -181 OFFCURVE",
"155 -181 CURVE SMOOTH",
"134 -181 OFFCURVE",
"112 -178 OFFCURVE",
"95 -173 CURVE",
"82 -232 LINE",
"96 -236 OFFCURVE",
"131 -240 OFFCURVE",
"153 -240 CURVE SMOOTH"
);
}
);
width = 555;
}
);
leftKerningGroup = S;
note = Scedilla;
rightKerningGroup = S;
unicode = 015E;
},
{
glyphname = Scircumflex;
lastChange = "2015-10-24 17:50:52 +0000";
layers = (
{
layerId = "51D8E656-CCF3-4A73-A171-84F1BD8DE29C";
name = "Regular Italic";
paths = (
{
closed = 1;
nodes = (
"403 -10 OFFCURVE",
"484 59 OFFCURVE",
"508 172 CURVE SMOOTH",
"528 264 OFFCURVE",
"494 327 OFFCURVE",
"348 366 CURVE SMOOTH",
"232 397 OFFCURVE",
"201 415 OFFCURVE",
"213 473 CURVE SMOOTH",
"227 540 OFFCURVE",
"288 561 OFFCURVE",
"384 561 CURVE SMOOTH",
"443 561 OFFCURVE",
"500 551 OFFCURVE",
"546 532 CURVE",
"566 628 LINE",
"531 641 OFFCURVE",
"464 654 OFFCURVE",
"389 654 CURVE SMOOTH",
"214 654 OFFCURVE",
"127 586 OFFCURVE",
"103 473 CURVE SMOOTH",
"82 376 OFFCURVE",
"126 324 OFFCURVE",
"252 290 CURVE SMOOTH",
"374 257 OFFCURVE",
"412 238 OFFCURVE",
"398 172 CURVE SMOOTH",
"383 100 OFFCURVE",
"328 82 OFFCURVE",
"225 82 CURVE SMOOTH",
"159 82 OFFCURVE",
"94 96 OFFCURVE",
"42 118 CURVE",
"21 22 LINE",
"67 1 OFFCURVE",
"133 -10 OFFCURVE",
"215 -10 CURVE SMOOTH"
);
},
{
closed = 1;
nodes = (
"311 695 LINE",
"406 796 LINE",
"461 695 LINE",
"545 695 LINE",
"454 856 LINE",
"378 856 LINE",
"220 695 LINE"
);
}
);
width = 555;
}
);
leftKerningGroup = S;
note = Scircumflex;
rightKerningGroup = S;
unicode = 015C;
},
{
glyphname = Scommaaccent;
lastChange = "2015-10-24 17:50:52 +0000";
layers = (
{
layerId = "51D8E656-CCF3-4A73-A171-84F1BD8DE29C";
name = "Regular Italic";
paths = (
{
closed = 1;
nodes = (
"403 -10 OFFCURVE",
"484 59 OFFCURVE",
"508 172 CURVE SMOOTH",
"528 264 OFFCURVE",
"494 327 OFFCURVE",
"348 366 CURVE SMOOTH",
"232 397 OFFCURVE",
"201 415 OFFCURVE",
"213 473 CURVE SMOOTH",
"227 540 OFFCURVE",
"288 561 OFFCURVE",
"384 561 CURVE SMOOTH",
"443 561 OFFCURVE",
"500 551 OFFCURVE",
"546 532 CURVE",
"566 628 LINE",
"531 641 OFFCURVE",
"464 654 OFFCURVE",
"389 654 CURVE SMOOTH",
"214 654 OFFCURVE",
"127 586 OFFCURVE",
"103 473 CURVE SMOOTH",
"82 376 OFFCURVE",
"126 324 OFFCURVE",
"252 290 CURVE SMOOTH",
"374 257 OFFCURVE",
"412 238 OFFCURVE",
"398 172 CURVE SMOOTH",
"383 100 OFFCURVE",
"328 82 OFFCURVE",
"225 82 CURVE SMOOTH",
"159 82 OFFCURVE",
"94 96 OFFCURVE",
"42 118 CURVE",
"21 22 LINE",
"67 1 OFFCURVE",
"133 -10 OFFCURVE",
"215 -10 CURVE SMOOTH"
);
},
{
closed = 1;
nodes = (
"196 -223 LINE",
"273 -50 LINE",
"178 -50 LINE",
"113 -223 LINE"
);
}
);
width = 555;
}
);
leftKerningGroup = S;
note = Scommaaccent;
rightKerningGroup = S;
unicode = 0218;
},
{
glyphname = Sdotaccent;
lastChange = "2015-10-24 17:50:52 +0000";
layers = (
{
layerId = "51D8E656-CCF3-4A73-A171-84F1BD8DE29C";
name = "Regular Italic";
paths = (
{
closed = 1;
nodes = (
"403 -10 OFFCURVE",
"484 59 OFFCURVE",
"508 172 CURVE SMOOTH",
"528 264 OFFCURVE",
"494 327 OFFCURVE",
"348 366 CURVE SMOOTH",
"232 397 OFFCURVE",
"201 415 OFFCURVE",
"213 473 CURVE SMOOTH",
"227 540 OFFCURVE",
"288 561 OFFCURVE",
"384 561 CURVE SMOOTH",
"443 561 OFFCURVE",
"500 551 OFFCURVE",
"546 532 CURVE",
"566 628 LINE",
"531 641 OFFCURVE",
"464 654 OFFCURVE",
"389 654 CURVE SMOOTH",
"214 654 OFFCURVE",
"127 586 OFFCURVE",
"103 473 CURVE SMOOTH",
"82 376 OFFCURVE",
"126 324 OFFCURVE",
"252 290 CURVE SMOOTH",
"374 257 OFFCURVE",
"412 238 OFFCURVE",
"398 172 CURVE SMOOTH",
"383 100 OFFCURVE",
"328 82 OFFCURVE",
"225 82 CURVE SMOOTH",
"159 82 OFFCURVE",
"94 96 OFFCURVE",
"42 118 CURVE",
"21 22 LINE",
"67 1 OFFCURVE",
"133 -10 OFFCURVE",
"215 -10 CURVE SMOOTH"
);
},
{
closed = 1;
nodes = (
"431 711 LINE",
"450 799 LINE",
"358 799 LINE",
"339 711 LINE"
);
}
);
width = 555;
}
);
leftKerningGroup = S;
note = Sdotaccent;
rightKerningGroup = S;
unicode = 1E60;
},
{
glyphname = Sdotbelow;
lastChange = "2015-10-24 17:50:51 +0000";
layers = (
{
layerId = "51D8E656-CCF3-4A73-A171-84F1BD8DE29C";
name = "Regular Italic";
paths = (
{
closed = 1;
nodes = (
"403 -10 OFFCURVE",
"484 59 OFFCURVE",
"508 172 CURVE SMOOTH",
"528 264 OFFCURVE",
"494 327 OFFCURVE",
"348 366 CURVE SMOOTH",
"232 397 OFFCURVE",
"201 415 OFFCURVE",
"213 473 CURVE SMOOTH",
"227 540 OFFCURVE",
"288 561 OFFCURVE",
"384 561 CURVE SMOOTH",
"443 561 OFFCURVE",
"500 551 OFFCURVE",
"546 532 CURVE",
"566 628 LINE",
"531 641 OFFCURVE",
"464 654 OFFCURVE",
"389 654 CURVE SMOOTH",
"214 654 OFFCURVE",
"127 586 OFFCURVE",
"103 473 CURVE SMOOTH",
"82 376 OFFCURVE",
"126 324 OFFCURVE",
"252 290 CURVE SMOOTH",
"374 257 OFFCURVE",
"412 238 OFFCURVE",
"398 172 CURVE SMOOTH",
"383 100 OFFCURVE",
"328 82 OFFCURVE",
"225 82 CURVE SMOOTH",
"159 82 OFFCURVE",
"94 96 OFFCURVE",
"42 118 CURVE",
"21 22 LINE",
"67 1 OFFCURVE",
"133 -10 OFFCURVE",
"215 -10 CURVE SMOOTH"
);
},
{
closed = 1;
nodes = (
"240 -173 LINE",
"258 -85 LINE",
"164 -85 LINE",
"146 -173 LINE"
);
}
);
width = 555;
}
);
leftKerningGroup = S;
note = Sdotbelow;
rightKerningGroup = S;
unicode = 1E62;
},
{
glyphname = Germandbls;
lastChange = "2015-10-24 17:50:52 +0000";
layers = (
{
layerId = "51D8E656-CCF3-4A73-A171-84F1BD8DE29C";
name = "Regular Italic";
paths = (
{
closed = 1;
nodes = (
"480 -10 OFFCURVE",
"555 69 OFFCURVE",
"579 183 CURVE SMOOTH",
"599 277 OFFCURVE",
"545 341 OFFCURVE",
"454 341 CURVE SMOOTH",
"418 341 LINE",
"610 444 LINE",
"634 559 OFFCURVE",
"583 654 OFFCURVE",
"410 654 CURVE SMOOTH",
"234 654 OFFCURVE",
"139 571 OFFCURVE",
"108 426 CURVE SMOOTH",
"18 0 LINE",
"123 0 LINE",
"214 429 LINE SMOOTH",
"233 520 OFFCURVE",
"281 564 OFFCURVE",
"390 564 CURVE SMOOTH",
"490 564 OFFCURVE",
"524 523 OFFCURVE",
"513 472 CURVE",
"311 361 LINE",
"292 269 LINE",
"388 269 LINE SMOOTH",
"469 269 OFFCURVE",
"489 247 OFFCURVE",
"476 184 CURVE SMOOTH",
"461 117 OFFCURVE",
"417 82 OFFCURVE",
"342 82 CURVE SMOOTH",
"300 82 OFFCURVE",
"253 89 OFFCURVE",
"223 104 CURVE",
"203 12 LINE",
"240 -3 OFFCURVE",
"288 -10 OFFCURVE",
"342 -10 CURVE SMOOTH"
);
}
);
width = 625;
}
);
note = uni1E9E;
unicode = 1E9E;
},
{
glyphname = Schwa;
lastChange = "2015-10-24 17:50:51 +0000";
layers = (
{
layerId = "51D8E656-CCF3-4A73-A171-84F1BD8DE29C";
name = "Regular Italic";
paths = (
{
closed = 1;
nodes = (
"498 -10 OFFCURVE",
"615 114 OFFCURVE",
"657 314 CURVE SMOOTH",
"705 537 OFFCURVE",
"621 654 OFFCURVE",
"394 654 CURVE SMOOTH",
"317 654 OFFCURVE",
"234 637 OFFCURVE",
"172 615 CURVE",
"155 532 LINE",
"211 555 OFFCURVE",
"293 570 OFFCURVE",
"353 570 CURVE SMOOTH",
"535 570 OFFCURVE",
"592 514 OFFCURVE",
"569 370 CURVE",
"81 370 LINE",
"58 259 LINE SMOOTH",
"24 99 OFFCURVE",
"92 -10 OFFCURVE",
"282 -10 CURVE SMOOTH"
);
},
{
closed = 1;
nodes = (
"183 71 OFFCURVE",
"126 130 OFFCURVE",
"149 238 CURVE SMOOTH",
"161 292 LINE",
"553 292 LINE",
"521 145 OFFCURVE",
"440 71 OFFCURVE",
"300 71 CURVE SMOOTH"
);
}
);
width = 674;
}
);
note = uni018F;
unicode = 018F;
},
{
glyphname = T;
lastChange = "2015-10-24 17:50:50 +0000";
layers = (
{
layerId = "51D8E656-CCF3-4A73-A171-84F1BD8DE29C";
name = "Regular Italic";
paths = (
{
closed = 1;
nodes = (
"298 0 LINE",
"416 559 LINE",
"621 559 LINE",
"639 644 LINE",
"119 644 LINE",
"101 559 LINE",
"307 559 LINE",
"189 0 LINE"
);
}
);
width = 567;
}
);
leftKerningGroup = T;
note = T;
rightKerningGroup = T;
unicode = 0054;
},
{
glyphname = Tbar;
lastChange = "2015-10-24 17:50:52 +0000";
layers = (
{
layerId = "51D8E656-CCF3-4A73-A171-84F1BD8DE29C";
name = "Regular Italic";
paths = (
{
closed = 1;
nodes = (
"298 0 LINE",
"362 306 LINE",
"492 306 LINE",
"509 387 LINE",
"379 387 LINE",
"416 559 LINE",
"621 559 LINE",
"639 644 LINE",
"119 644 LINE",
"101 559 LINE",
"307 559 LINE",
"270 387 LINE",
"143 387 LINE",
"126 306 LINE",
"253 306 LINE",
"189 0 LINE"
);
}
);
width = 567;
}
);
leftKerningGroup = T;
note = Tbar;
rightKerningGroup = T;
unicode = 0166;
},
{
glyphname = Tcaron;
lastChange = "2015-10-24 17:50:51 +0000";
layers = (
{
layerId = "51D8E656-CCF3-4A73-A171-84F1BD8DE29C";
name = "Regular Italic";
paths = (
{
closed = 1;
nodes = (
"298 0 LINE",
"416 559 LINE",
"621 559 LINE",
"639 644 LINE",
"119 644 LINE",
"101 559 LINE",
"307 559 LINE",
"189 0 LINE"
);
},
{
closed = 1;
nodes = (
"428 695 LINE",
"587 856 LINE",
"497 856 LINE",
"400 755 LINE",
"347 856 LINE",
"262 856 LINE",
"352 695 LINE"
);
}
);
width = 567;
}
);
leftKerningGroup = T;
note = Tcaron;
rightKerningGroup = T;
unicode = 0164;
},
{
glyphname = Tcedilla;
lastChange = "2015-10-24 17:50:52 +0000";
layers = (
{
layerId = "51D8E656-CCF3-4A73-A171-84F1BD8DE29C";
name = "Regular Italic";
paths = (
{
closed = 1;
nodes = (
"273 -240 OFFCURVE",
"327 -203 OFFCURVE",
"341 -137 CURVE SMOOTH",
"353 -81 OFFCURVE",
"324 -47 OFFCURVE",
"253 -47 CURVE",
"278 0 LINE",
"298 0 LINE",
"416 559 LINE",
"621 559 LINE",
"639 644 LINE",
"119 644 LINE",
"101 559 LINE",
"307 559 LINE",
"189 0 LINE",
"205 0 LINE",
"156 -95 LINE",
"196 -95 LINE SMOOTH",
"248 -95 OFFCURVE",
"275 -99 OFFCURVE",
"268 -136 CURVE SMOOTH",
"260 -173 OFFCURVE",
"234 -181 OFFCURVE",
"174 -181 CURVE SMOOTH",
"153 -181 OFFCURVE",
"131 -178 OFFCURVE",
"114 -173 CURVE",
"101 -232 LINE",
"115 -236 OFFCURVE",
"150 -240 OFFCURVE",
"172 -240 CURVE SMOOTH"
);
}
);
width = 567;
}
);
leftKerningGroup = T;
note = Tcedilla;
rightKerningGroup = T;
unicode = 0162;
},
{
glyphname = Tcommaaccent;
lastChange = "2015-10-24 17:50:53 +0000";
layers = (
{
layerId = "51D8E656-CCF3-4A73-A171-84F1BD8DE29C";
name = "Regular Italic";
paths = (
{
closed = 1;
nodes = (
"292 0 LINE",
"410 559 LINE",
"615 559 LINE",
"633 644 LINE",
"113 644 LINE",
"95 559 LINE",
"301 559 LINE",
"183 0 LINE"
);
},
{
closed = 1;
nodes = (
"188 -234 LINE",
"275 -45 LINE",
"185 -45 LINE",
"116 -234 LINE"
);
}
);
width = 561;
}
);
leftKerningGroup = T;
note = Tcommaaccent;
rightKerningGroup = T;
unicode = 021A;
},
{
glyphname = Tdotbelow;
lastChange = "2015-10-24 17:50:54 +0000";
layers = (
{
layerId = "51D8E656-CCF3-4A73-A171-84F1BD8DE29C";
name = "Regular Italic";
paths = (
{
closed = 1;
nodes = (
"298 0 LINE",
"416 559 LINE",
"621 559 LINE",
"639 644 LINE",
"119 644 LINE",
"101 559 LINE",
"307 559 LINE",
"189 0 LINE"
);
},
{
closed = 1;
nodes = (
"255 -166 LINE",
"273 -78 LINE",
"179 -78 LINE",
"161 -166 LINE"
);
}
);
width = 567;
}
);
leftKerningGroup = T;
note = Tdotbelow;
rightKerningGroup = T;
unicode = 1E6C;
},
{
glyphname = Tlinebelow;
lastChange = "2015-10-24 17:50:52 +0000";
layers = (
{
layerId = "51D8E656-CCF3-4A73-A171-84F1BD8DE29C";
name = "Regular Italic";
paths = (
{
closed = 1;
nodes = (
"298 0 LINE",
"416 559 LINE",
"621 559 LINE",
"639 644 LINE",
"119 644 LINE",
"101 559 LINE",
"307 559 LINE",
"189 0 LINE"
);
},
{
closed = 1;
nodes = (
"362 -136 LINE",
"377 -65 LINE",
"80 -65 LINE",
"65 -136 LINE"
);
}
);
width = 567;
}
);
leftKerningGroup = T;
note = Tlinebelow;
rightKerningGroup = T;
unicode = 1E6E;
},
{
glyphname = U;
lastChange = "2015-10-24 17:50:51 +0000";
layers = (
{
layerId = "51D8E656-CCF3-4A73-A171-84F1BD8DE29C";
name = "Regular Italic";
paths = (
{
closed = 1;
nodes = (
"488 -10 OFFCURVE",
"592 77 OFFCURVE",
"626 239 CURVE SMOOTH",
"712 644 LINE",
"604 644 LINE",
"519 243 LINE SMOOTH",
"495 130 OFFCURVE",
"430 82 OFFCURVE",
"315 82 CURVE SMOOTH",
"183 82 OFFCURVE",
"154 131 OFFCURVE",
"178 243 CURVE SMOOTH",
"263 644 LINE",
"154 644 LINE",
"68 239 LINE SMOOTH",
"36 90 OFFCURVE",
"124 -10 OFFCURVE",
"295 -10 CURVE SMOOTH"
);
}
);
width = 675;
}
);
leftKerningGroup = U;
note = U;
rightKerningGroup = U;
unicode = 0055;
},
{
glyphname = Uacute;
lastChange = "2015-10-24 17:50:51 +0000";
layers = (
{
layerId = "51D8E656-CCF3-4A73-A171-84F1BD8DE29C";
name = "Regular Italic";
paths = (
{
closed = 1;
nodes = (
"488 -10 OFFCURVE",
"592 77 OFFCURVE",
"626 239 CURVE SMOOTH",
"712 644 LINE",
"604 644 LINE",
"519 243 LINE SMOOTH",
"495 130 OFFCURVE",
"430 82 OFFCURVE",
"315 82 CURVE SMOOTH",
"183 82 OFFCURVE",
"154 131 OFFCURVE",
"178 243 CURVE SMOOTH",
"263 644 LINE",
"154 644 LINE",
"68 239 LINE SMOOTH",
"36 90 OFFCURVE",
"124 -10 OFFCURVE",
"295 -10 CURVE SMOOTH"
);
},
{
closed = 1;
nodes = (
"481 688 LINE",
"603 865 LINE",
"507 865 LINE",
"394 688 LINE"
);
}
);
width = 675;
}
);
leftKerningGroup = U;
note = Uacute;
rightKerningGroup = U;
unicode = 00DA;
},
{
glyphname = Ubreve;
lastChange = "2015-10-24 17:50:53 +0000";
layers = (
{
layerId = "51D8E656-CCF3-4A73-A171-84F1BD8DE29C";
name = "Regular Italic";
paths = (
{
closed = 1;
nodes = (
"488 -10 OFFCURVE",
"592 77 OFFCURVE",
"626 239 CURVE SMOOTH",
"712 644 LINE",
"604 644 LINE",
"519 243 LINE SMOOTH",
"495 130 OFFCURVE",
"430 82 OFFCURVE",
"315 82 CURVE SMOOTH",
"183 82 OFFCURVE",
"154 131 OFFCURVE",
"178 243 CURVE SMOOTH",
"263 644 LINE",
"154 644 LINE",
"68 239 LINE SMOOTH",
"36 90 OFFCURVE",
"124 -10 OFFCURVE",
"295 -10 CURVE SMOOTH"
);
},
{
closed = 1;
nodes = (
"518 688 OFFCURVE",
"585 743 OFFCURVE",
"603 829 CURVE",
"526 829 LINE",
"516 783 OFFCURVE",
"485 753 OFFCURVE",
"440 753 CURVE SMOOTH",
"389 753 OFFCURVE",
"379 783 OFFCURVE",
"389 829 CURVE",
"319 829 LINE",
"301 743 OFFCURVE",
"341 688 OFFCURVE",
"429 688 CURVE SMOOTH"
);
}
);
width = 675;
}
);
leftKerningGroup = U;
note = Ubreve;
rightKerningGroup = U;
unicode = 016C;
},
{
glyphname = Ucaron;
lastChange = "2015-10-24 17:50:52 +0000";
layers = (
{
layerId = "51D8E656-CCF3-4A73-A171-84F1BD8DE29C";
name = "Regular Italic";
paths = (
{
closed = 1;
nodes = (
"488 -10 OFFCURVE",
"592 77 OFFCURVE",
"626 239 CURVE SMOOTH",
"712 644 LINE",
"604 644 LINE",
"519 243 LINE SMOOTH",
"495 130 OFFCURVE",
"430 82 OFFCURVE",
"315 82 CURVE SMOOTH",
"183 82 OFFCURVE",
"154 131 OFFCURVE",
"178 243 CURVE SMOOTH",
"263 644 LINE",
"154 644 LINE",
"68 239 LINE SMOOTH",
"36 90 OFFCURVE",
"124 -10 OFFCURVE",
"295 -10 CURVE SMOOTH"
);
},
{
closed = 1;
nodes = (
"480 687 LINE",
"639 848 LINE",
"549 848 LINE",
"452 747 LINE",
"399 848 LINE",
"314 848 LINE",
"404 687 LINE"
);
}
);
width = 675;
}
);
leftKerningGroup = U;
note = Ucaron;
rightKerningGroup = U;
unicode = 01D3;
},
{
glyphname = Ucircumflex;
lastChange = "2015-10-24 17:50:51 +0000";
layers = (
{
layerId = "51D8E656-CCF3-4A73-A171-84F1BD8DE29C";
name = "Regular Italic";
paths = (
{
closed = 1;
nodes = (
"488 -10 OFFCURVE",
"592 77 OFFCURVE",
"626 239 CURVE SMOOTH",
"712 644 LINE",
"604 644 LINE",
"519 243 LINE SMOOTH",
"495 130 OFFCURVE",
"430 82 OFFCURVE",
"315 82 CURVE SMOOTH",
"183 82 OFFCURVE",
"154 131 OFFCURVE",
"178 243 CURVE SMOOTH",
"263 644 LINE",
"154 644 LINE",
"68 239 LINE SMOOTH",
"36 90 OFFCURVE",
"124 -10 OFFCURVE",
"295 -10 CURVE SMOOTH"
);
},
{
closed = 1;
nodes = (
"371 687 LINE",
"466 788 LINE",
"521 687 LINE",
"605 687 LINE",
"514 848 LINE",
"438 848 LINE",
"280 687 LINE"
);
}
);
width = 675;
}
);
leftKerningGroup = U;
note = Ucircumflex;
rightKerningGroup = U;
unicode = 00DB;
},
{
glyphname = Udieresis;
lastChange = "2015-10-24 17:50:50 +0000";
layers = (
{
layerId = "51D8E656-CCF3-4A73-A171-84F1BD8DE29C";
name = "Regular Italic";
paths = (
{
closed = 1;
nodes = (
"488 -10 OFFCURVE",
"592 77 OFFCURVE",
"626 239 CURVE SMOOTH",
"712 644 LINE",
"604 644 LINE",
"519 243 LINE SMOOTH",
"495 130 OFFCURVE",
"430 82 OFFCURVE",
"315 82 CURVE SMOOTH",
"183 82 OFFCURVE",
"154 131 OFFCURVE",
"178 243 CURVE SMOOTH",
"263 644 LINE",
"154 644 LINE",
"68 239 LINE SMOOTH",
"36 90 OFFCURVE",
"124 -10 OFFCURVE",
"295 -10 CURVE SMOOTH"
);
},
{
closed = 1;
nodes = (
"394 712 LINE",
"413 798 LINE",
"322 798 LINE",
"303 712 LINE"
);
},
{
closed = 1;
nodes = (
"580 712 LINE",
"599 798 LINE",
"507 798 LINE",
"488 712 LINE"
);
}
);
width = 675;
}
);
leftKerningGroup = U;
note = Udieresis;
rightKerningGroup = U;
unicode = 00DC;
},
{
glyphname = Udieresisacute;
lastChange = "2015-10-24 17:50:51 +0000";
layers = (
{
layerId = "51D8E656-CCF3-4A73-A171-84F1BD8DE29C";
name = "Regular Italic";
paths = (
{
closed = 1;
nodes = (
"488 -10 OFFCURVE",
"592 77 OFFCURVE",
"626 239 CURVE SMOOTH",
"712 644 LINE",
"604 644 LINE",
"519 243 LINE SMOOTH",
"495 130 OFFCURVE",
"430 82 OFFCURVE",
"315 82 CURVE SMOOTH",
"183 82 OFFCURVE",
"154 131 OFFCURVE",
"178 243 CURVE SMOOTH",
"263 644 LINE",
"154 644 LINE",
"68 239 LINE SMOOTH",
"36 90 OFFCURVE",
"124 -10 OFFCURVE",
"295 -10 CURVE SMOOTH"
);
},
{
closed = 1;
nodes = (
"388 688 LINE",
"406 772 LINE",
"317 772 LINE",
"299 688 LINE"
);
},
{
closed = 1;
nodes = (
"586 688 LINE",
"604 772 LINE",
"515 772 LINE",
"497 688 LINE"
);
},
{
closed = 1;
nodes = (
"499 786 LINE",
"593 913 LINE",
"510 913 LINE",
"422 786 LINE"
);
}
);
width = 675;
}
);
leftKerningGroup = U;
note = Udieresisacute;
rightKerningGroup = U;
unicode = 01D7;
},
{
glyphname = Udieresiscaron;
lastChange = "2015-10-24 17:50:52 +0000";
layers = (
{
layerId = "51D8E656-CCF3-4A73-A171-84F1BD8DE29C";
name = "Regular Italic";
paths = (
{
closed = 1;
nodes = (
"488 -10 OFFCURVE",
"592 77 OFFCURVE",
"626 239 CURVE SMOOTH",
"712 644 LINE",
"604 644 LINE",
"519 243 LINE SMOOTH",
"495 130 OFFCURVE",
"430 82 OFFCURVE",
"315 82 CURVE SMOOTH",
"183 82 OFFCURVE",
"154 131 OFFCURVE",
"178 243 CURVE SMOOTH",
"263 644 LINE",
"154 644 LINE",
"68 239 LINE SMOOTH",
"36 90 OFFCURVE",
"124 -10 OFFCURVE",
"295 -10 CURVE SMOOTH"
);
},
{
closed = 1;
nodes = (
"387 688 LINE",
"405 772 LINE",
"315 772 LINE",
"297 688 LINE"
);
},
{
closed = 1;
nodes = (
"584 688 LINE",
"602 772 LINE",
"514 772 LINE",
"496 688 LINE"
);
},
{
closed = 1;
nodes = (
"504 784 LINE",
"640 904 LINE",
"554 904 LINE",
"471 826 LINE",
"420 904 LINE",
"338 904 LINE",
"425 784 LINE"
);
}
);
width = 675;
}
);
leftKerningGroup = U;
note = Udieresiscaron;
rightKerningGroup = U;
unicode = 01D9;
},
{
glyphname = Udieresisgrave;
lastChange = "2015-10-24 17:50:52 +0000";
layers = (
{
layerId = "51D8E656-CCF3-4A73-A171-84F1BD8DE29C";
name = "Regular Italic";
paths = (
{
closed = 1;
nodes = (
"488 -10 OFFCURVE",
"592 77 OFFCURVE",
"626 239 CURVE SMOOTH",
"712 644 LINE",
"604 644 LINE",
"519 243 LINE SMOOTH",
"495 130 OFFCURVE",
"430 82 OFFCURVE",
"315 82 CURVE SMOOTH",
"183 82 OFFCURVE",
"154 131 OFFCURVE",
"178 243 CURVE SMOOTH",
"263 644 LINE",
"154 644 LINE",
"68 239 LINE SMOOTH",
"36 90 OFFCURVE",
"124 -10 OFFCURVE",
"295 -10 CURVE SMOOTH"
);
},
{
closed = 1;
nodes = (
"386 688 LINE",
"404 772 LINE",
"315 772 LINE",
"297 688 LINE"
);
},
{
closed = 1;
nodes = (
"584 688 LINE",
"602 772 LINE",
"513 772 LINE",
"495 688 LINE"
);
},
{
closed = 1;
nodes = (
"502 786 LINE",
"469 913 LINE",
"385 913 LINE",
"425 786 LINE"
);
}
);
width = 675;
}
);
leftKerningGroup = U;
note = Udieresisgrave;
rightKerningGroup = U;
unicode = 01DB;
},
{
glyphname = Udieresismacron;
lastChange = "2015-10-24 17:50:51 +0000";
layers = (
{
layerId = "51D8E656-CCF3-4A73-A171-84F1BD8DE29C";
name = "Regular Italic";
paths = (
{
closed = 1;
nodes = (
"488 -10 OFFCURVE",
"592 77 OFFCURVE",
"626 239 CURVE SMOOTH",
"712 644 LINE",
"604 644 LINE",
"519 243 LINE SMOOTH",
"495 130 OFFCURVE",
"430 82 OFFCURVE",
"315 82 CURVE SMOOTH",
"183 82 OFFCURVE",
"154 131 OFFCURVE",
"178 243 CURVE SMOOTH",
"263 644 LINE",
"154 644 LINE",
"68 239 LINE SMOOTH",
"36 90 OFFCURVE",
"124 -10 OFFCURVE",
"295 -10 CURVE SMOOTH"
);
},
{
closed = 1;
nodes = (
"398 703 LINE",
"417 789 LINE",
"326 789 LINE",
"307 703 LINE"
);
},
{
closed = 1;
nodes = (
"584 703 LINE",
"603 789 LINE",
"511 789 LINE",
"492 703 LINE"
);
},
{
closed = 1;
nodes = (
"626 853 LINE",
"641 924 LINE",
"344 924 LINE",
"329 853 LINE"
);
}
);
width = 675;
}
);
leftKerningGroup = U;
note = Udieresismacron;
rightKerningGroup = U;
unicode = 01D5;
},
{
glyphname = Udotbelow;
lastChange = "2015-10-24 17:50:52 +0000";
layers = (
{
layerId = "51D8E656-CCF3-4A73-A171-84F1BD8DE29C";
name = "Regular Italic";
paths = (
{
closed = 1;
nodes = (
"488 -10 OFFCURVE",
"592 77 OFFCURVE",
"626 239 CURVE SMOOTH",
"712 644 LINE",
"604 644 LINE",
"519 243 LINE SMOOTH",
"495 130 OFFCURVE",
"430 82 OFFCURVE",
"315 82 CURVE SMOOTH",
"183 82 OFFCURVE",
"154 131 OFFCURVE",
"178 243 CURVE SMOOTH",
"263 644 LINE",
"154 644 LINE",
"68 239 LINE SMOOTH",
"36 90 OFFCURVE",
"124 -10 OFFCURVE",
"295 -10 CURVE SMOOTH"
);
},
{
closed = 1;
nodes = (
"308 -173 LINE",
"326 -85 LINE",
"232 -85 LINE",
"214 -173 LINE"
);
}
);
width = 675;
}
);
leftKerningGroup = U;
note = Udotbelow;
rightKerningGroup = U;
unicode = 1EE4;
},
{
glyphname = Ugrave;
lastChange = "2015-10-24 17:50:51 +0000";
layers = (
{
layerId = "51D8E656-CCF3-4A73-A171-84F1BD8DE29C";
name = "Regular Italic";
paths = (
{
closed = 1;
nodes = (
"488 -10 OFFCURVE",
"592 77 OFFCURVE",
"626 239 CURVE SMOOTH",
"712 644 LINE",
"604 644 LINE",
"519 243 LINE SMOOTH",
"495 130 OFFCURVE",
"430 82 OFFCURVE",
"315 82 CURVE SMOOTH",
"183 82 OFFCURVE",
"154 131 OFFCURVE",
"178 243 CURVE SMOOTH",
"263 644 LINE",
"154 644 LINE",
"68 239 LINE SMOOTH",
"36 90 OFFCURVE",
"124 -10 OFFCURVE",
"295 -10 CURVE SMOOTH"
);
},
{
closed = 1;
nodes = (
"501 688 LINE",
"463 865 LINE",
"368 865 LINE",
"413 688 LINE"
);
}
);
width = 675;
}
);
leftKerningGroup = U;
note = Ugrave;
rightKerningGroup = U;
unicode = 00D9;
},
{
glyphname = Uhookabove;
lastChange = "2015-10-24 17:50:54 +0000";
layers = (
{
layerId = "51D8E656-CCF3-4A73-A171-84F1BD8DE29C";
name = "Regular Italic";
paths = (
{
closed = 1;
nodes = (
"488 -10 OFFCURVE",
"592 77 OFFCURVE",
"626 239 CURVE SMOOTH",
"712 644 LINE",
"604 644 LINE",
"519 243 LINE SMOOTH",
"495 130 OFFCURVE",
"430 82 OFFCURVE",
"315 82 CURVE SMOOTH",
"183 82 OFFCURVE",
"154 131 OFFCURVE",
"178 243 CURVE SMOOTH",
"263 644 LINE",
"154 644 LINE",
"68 239 LINE SMOOTH",
"36 90 OFFCURVE",
"124 -10 OFFCURVE",
"295 -10 CURVE SMOOTH"
);
},
{
closed = 1;
nodes = (
"483 687 LINE",
"493 734 LINE",
"561 744 OFFCURVE",
"590 773 OFFCURVE",
"601 828 CURVE SMOOTH",
"614 885 OFFCURVE",
"577 921 OFFCURVE",
"495 921 CURVE SMOOTH",
"461 921 OFFCURVE",
"423 916 OFFCURVE",
"399 908 CURVE",
"387 849 LINE",
"405 856 OFFCURVE",
"433 861 OFFCURVE",
"453 861 CURVE SMOOTH",
"501 861 OFFCURVE",
"525 849 OFFCURVE",
"519 819 CURVE SMOOTH",
"512 786 OFFCURVE",
"493 773 OFFCURVE",
"416 769 CURVE",
"398 687 LINE"
);
}
);
width = 675;
}
);
leftKerningGroup = U;
note = Uhookabove;
rightKerningGroup = U;
unicode = 1EE6;
},
{
glyphname = Uhorn;
lastChange = "2015-10-24 17:50:51 +0000";
layers = (
{
layerId = "51D8E656-CCF3-4A73-A171-84F1BD8DE29C";
name = "Regular Italic";
paths = (
{
closed = 1;
nodes = (
"471 -10 OFFCURVE",
"592 77 OFFCURVE",
"626 239 CURVE SMOOTH",
"681 497 LINE",
"806 499 OFFCURVE",
"872 545 OFFCURVE",
"903 688 CURVE",
"819 688 LINE",
"801 603 OFFCURVE",
"771 576 OFFCURVE",
"698 574 CURVE",
"712 644 LINE",
"604 644 LINE",
"519 243 LINE SMOOTH",
"496 135 OFFCURVE",
"423 82 OFFCURVE",
"315 82 CURVE SMOOTH",
"206 82 OFFCURVE",
"155 135 OFFCURVE",
"178 243 CURVE SMOOTH",
"263 644 LINE",
"154 644 LINE",
"68 239 LINE SMOOTH",
"34 77 OFFCURVE",
"118 -10 OFFCURVE",
"295 -10 CURVE SMOOTH"
);
}
);
width = 821;
}
);
leftKerningGroup = U;
note = Uhorn;
rightKerningGroup = U;
unicode = 01AF;
},
{
glyphname = Uhornacute;
lastChange = "2015-10-24 17:50:52 +0000";
layers = (
{
layerId = "51D8E656-CCF3-4A73-A171-84F1BD8DE29C";
name = "Regular Italic";
paths = (
{
closed = 1;
nodes = (
"471 -10 OFFCURVE",
"592 77 OFFCURVE",
"626 239 CURVE SMOOTH",
"681 497 LINE",
"806 499 OFFCURVE",
"872 545 OFFCURVE",
"903 688 CURVE",
"819 688 LINE",
"801 603 OFFCURVE",
"771 576 OFFCURVE",
"698 574 CURVE",
"712 644 LINE",
"604 644 LINE",
"519 243 LINE SMOOTH",
"496 135 OFFCURVE",
"423 82 OFFCURVE",
"315 82 CURVE SMOOTH",
"206 82 OFFCURVE",
"155 135 OFFCURVE",
"178 243 CURVE SMOOTH",
"263 644 LINE",
"154 644 LINE",
"68 239 LINE SMOOTH",
"34 77 OFFCURVE",
"118 -10 OFFCURVE",
"295 -10 CURVE SMOOTH"
);
},
{
closed = 1;
nodes = (
"494 688 LINE",
"616 865 LINE",
"520 865 LINE",
"407 688 LINE"
);
}
);
width = 821;
}
);
leftKerningGroup = U;
note = Uhornacute;
rightKerningGroup = U;
unicode = 1EE8;
},
{
glyphname = Uhorndotbelow;
lastChange = "2015-10-24 17:50:53 +0000";
layers = (
{
layerId = "51D8E656-CCF3-4A73-A171-84F1BD8DE29C";
name = "Regular Italic";
paths = (
{
closed = 1;
nodes = (
"471 -10 OFFCURVE",
"592 77 OFFCURVE",
"626 239 CURVE SMOOTH",
"681 497 LINE",
"806 499 OFFCURVE",
"872 545 OFFCURVE",
"903 688 CURVE",
"819 688 LINE",
"801 603 OFFCURVE",
"771 576 OFFCURVE",
"698 574 CURVE",
"712 644 LINE",
"604 644 LINE",
"519 243 LINE SMOOTH",
"496 135 OFFCURVE",
"423 82 OFFCURVE",
"315 82 CURVE SMOOTH",
"206 82 OFFCURVE",
"155 135 OFFCURVE",
"178 243 CURVE SMOOTH",
"263 644 LINE",
"154 644 LINE",
"68 239 LINE SMOOTH",
"34 77 OFFCURVE",
"118 -10 OFFCURVE",
"295 -10 CURVE SMOOTH"
);
},
{
closed = 1;
nodes = (
"306 -173 LINE",
"324 -85 LINE",
"230 -85 LINE",
"212 -173 LINE"
);
}
);
width = 821;
}
);
leftKerningGroup = U;
note = Uhorndotbelow;
rightKerningGroup = U;
unicode = 1EF0;
},
{
glyphname = Uhorngrave;
lastChange = "2015-10-24 17:50:53 +0000";
layers = (
{
layerId = "51D8E656-CCF3-4A73-A171-84F1BD8DE29C";
name = "Regular Italic";
paths = (
{
closed = 1;
nodes = (
"471 -10 OFFCURVE",
"592 77 OFFCURVE",
"626 239 CURVE SMOOTH",
"681 497 LINE",
"806 499 OFFCURVE",
"872 545 OFFCURVE",
"903 688 CURVE",
"819 688 LINE",
"801 603 OFFCURVE",
"771 576 OFFCURVE",
"698 574 CURVE",
"712 644 LINE",
"604 644 LINE",
"519 243 LINE SMOOTH",
"496 135 OFFCURVE",
"423 82 OFFCURVE",
"315 82 CURVE SMOOTH",
"206 82 OFFCURVE",
"155 135 OFFCURVE",
"178 243 CURVE SMOOTH",
"263 644 LINE",
"154 644 LINE",
"68 239 LINE SMOOTH",
"34 77 OFFCURVE",
"118 -10 OFFCURVE",
"295 -10 CURVE SMOOTH"
);
},
{
closed = 1;
nodes = (
"497 688 LINE",
"459 865 LINE",
"364 865 LINE",
"409 688 LINE"
);
}
);
width = 821;
}
);
leftKerningGroup = U;
note = Uhorngrave;
rightKerningGroup = U;
unicode = 1EEA;
},
{
glyphname = Uhornhookabove;
lastChange = "2015-10-24 17:50:54 +0000";
layers = (
{
layerId = "51D8E656-CCF3-4A73-A171-84F1BD8DE29C";
name = "Regular Italic";
paths = (
{
closed = 1;
nodes = (
"471 -10 OFFCURVE",
"592 77 OFFCURVE",
"626 239 CURVE SMOOTH",
"681 497 LINE",
"806 499 OFFCURVE",
"872 545 OFFCURVE",
"903 688 CURVE",
"819 688 LINE",
"801 603 OFFCURVE",
"771 576 OFFCURVE",
"698 574 CURVE",
"712 644 LINE",
"604 644 LINE",
"519 243 LINE SMOOTH",
"496 135 OFFCURVE",
"423 82 OFFCURVE",
"315 82 CURVE SMOOTH",
"206 82 OFFCURVE",
"155 135 OFFCURVE",
"178 243 CURVE SMOOTH",
"263 644 LINE",
"154 644 LINE",
"68 239 LINE SMOOTH",
"34 77 OFFCURVE",
"118 -10 OFFCURVE",
"295 -10 CURVE SMOOTH"
);
},
{
closed = 1;
nodes = (
"491 687 LINE",
"501 734 LINE",
"569 744 OFFCURVE",
"598 773 OFFCURVE",
"609 828 CURVE SMOOTH",
"622 885 OFFCURVE",
"585 921 OFFCURVE",
"503 921 CURVE SMOOTH",
"469 921 OFFCURVE",
"431 916 OFFCURVE",
"407 908 CURVE",
"395 849 LINE",
"413 856 OFFCURVE",
"441 861 OFFCURVE",
"461 861 CURVE SMOOTH",
"509 861 OFFCURVE",
"533 849 OFFCURVE",
"527 819 CURVE SMOOTH",
"520 786 OFFCURVE",
"501 773 OFFCURVE",
"424 769 CURVE",
"406 687 LINE"
);
}
);
width = 821;
}
);
leftKerningGroup = U;
note = Uhornhookabove;
rightKerningGroup = U;
unicode = 1EEC;
},
{
glyphname = Uhorntilde;
lastChange = "2015-10-24 17:50:54 +0000";
layers = (
{
layerId = "51D8E656-CCF3-4A73-A171-84F1BD8DE29C";
name = "Regular Italic";
paths = (
{
closed = 1;
nodes = (
"471 -10 OFFCURVE",
"592 77 OFFCURVE",
"626 239 CURVE SMOOTH",
"681 497 LINE",
"806 499 OFFCURVE",
"872 545 OFFCURVE",
"903 688 CURVE",
"819 688 LINE",
"801 603 OFFCURVE",
"771 576 OFFCURVE",
"698 574 CURVE",
"712 644 LINE",
"604 644 LINE",
"519 243 LINE SMOOTH",
"496 135 OFFCURVE",
"423 82 OFFCURVE",
"315 82 CURVE SMOOTH",
"206 82 OFFCURVE",
"155 135 OFFCURVE",
"178 243 CURVE SMOOTH",
"263 644 LINE",
"154 644 LINE",
"68 239 LINE SMOOTH",
"34 77 OFFCURVE",
"118 -10 OFFCURVE",
"295 -10 CURVE SMOOTH"
);
},
{
closed = 1;
nodes = (
"562 701 OFFCURVE",
"595 714 OFFCURVE",
"612 732 CURVE",
"629 812 LINE",
"606 788 OFFCURVE",
"577 775 OFFCURVE",
"541 775 CURVE SMOOTH",
"488 775 OFFCURVE",
"454 814 OFFCURVE",
"396 814 CURVE SMOOTH",
"363 814 OFFCURVE",
"326 802 OFFCURVE",
"305 784 CURVE",
"288 704 LINE",
"317 730 OFFCURVE",
"348 740 OFFCURVE",
"383 740 CURVE SMOOTH",
"429 740 OFFCURVE",
"471 701 OFFCURVE",
"526 701 CURVE SMOOTH"
);
}
);
width = 821;
}
);
leftKerningGroup = U;
note = Uhorntilde;
rightKerningGroup = U;
unicode = 1EEE;
},
{
glyphname = Uhungarumlaut;
lastChange = "2015-10-24 17:50:54 +0000";
layers = (
{
layerId = "51D8E656-CCF3-4A73-A171-84F1BD8DE29C";
name = "Regular Italic";
paths = (
{
closed = 1;
nodes = (
"488 -10 OFFCURVE",
"592 77 OFFCURVE",
"626 239 CURVE SMOOTH",
"712 644 LINE",
"604 644 LINE",
"519 243 LINE SMOOTH",
"495 130 OFFCURVE",
"430 82 OFFCURVE",
"315 82 CURVE SMOOTH",
"183 82 OFFCURVE",
"154 131 OFFCURVE",
"178 243 CURVE SMOOTH",
"263 644 LINE",
"154 644 LINE",
"68 239 LINE SMOOTH",
"36 90 OFFCURVE",
"124 -10 OFFCURVE",
"295 -10 CURVE SMOOTH"
);
},
{
closed = 1;
nodes = (
"348 687 LINE",
"468 851 LINE",
"370 851 LINE",
"260 687 LINE"
);
},
{
closed = 1;
nodes = (
"564 687 LINE",
"685 851 LINE",
"586 851 LINE",
"476 687 LINE"
);
}
);
width = 675;
}
);
leftKerningGroup = U;
note = Uhungarumlaut;
rightKerningGroup = U;
unicode = 0170;
},
{
glyphname = Umacron;
lastChange = "2015-10-24 17:50:54 +0000";
layers = (
{
layerId = "51D8E656-CCF3-4A73-A171-84F1BD8DE29C";
name = "Regular Italic";
paths = (
{
closed = 1;
nodes = (
"488 -10 OFFCURVE",
"592 77 OFFCURVE",
"626 239 CURVE SMOOTH",
"712 644 LINE",
"604 644 LINE",
"519 243 LINE SMOOTH",
"495 130 OFFCURVE",
"430 82 OFFCURVE",
"315 82 CURVE SMOOTH",
"183 82 OFFCURVE",
"154 131 OFFCURVE",
"178 243 CURVE SMOOTH",
"263 644 LINE",
"154 644 LINE",
"68 239 LINE SMOOTH",
"36 90 OFFCURVE",
"124 -10 OFFCURVE",
"295 -10 CURVE SMOOTH"
);
},
{
closed = 1;
nodes = (
"592 721 LINE",
"607 792 LINE",
"310 792 LINE",
"295 721 LINE"
);
}
);
width = 675;
}
);
leftKerningGroup = U;
note = Umacron;
rightKerningGroup = U;
unicode = 016A;
},
{
glyphname = Uogonek;
lastChange = "2015-10-24 17:50:51 +0000";
layers = (
{
layerId = "51D8E656-CCF3-4A73-A171-84F1BD8DE29C";
name = "Regular Italic";
paths = (
{
closed = 1;
nodes = (
"301 -220 OFFCURVE",
"332 -215 OFFCURVE",
"351 -207 CURVE",
"365 -141 LINE",
"351 -148 OFFCURVE",
"329 -152 OFFCURVE",
"313 -152 CURVE SMOOTH",
"283 -152 OFFCURVE",
"268 -143 OFFCURVE",
"275 -112 CURVE",
"282 -74 OFFCURVE",
"312 -38 OFFCURVE",
"357 -6 CURVE",
"510 11 OFFCURVE",
"596 95 OFFCURVE",
"626 239 CURVE SMOOTH",
"712 644 LINE",
"604 644 LINE",
"519 243 LINE SMOOTH",
"495 130 OFFCURVE",
"430 82 OFFCURVE",
"315 82 CURVE SMOOTH",
"183 82 OFFCURVE",
"154 131 OFFCURVE",
"178 243 CURVE SMOOTH",
"263 644 LINE",
"154 644 LINE",
"68 239 LINE SMOOTH",
"38 97 OFFCURVE",
"115 0 OFFCURVE",
"270 -9 CURVE",
"226 -40 OFFCURVE",
"194 -85 OFFCURVE",
"184 -131 CURVE SMOOTH",
"171 -193 OFFCURVE",
"215 -220 OFFCURVE",
"272 -220 CURVE SMOOTH"
);
}
);
width = 675;
}
);
leftKerningGroup = U;
note = Uogonek;
rightKerningGroup = U;
unicode = 0172;
},
{
glyphname = Uring;
lastChange = "2015-10-24 17:50:52 +0000";
layers = (
{
layerId = "51D8E656-CCF3-4A73-A171-84F1BD8DE29C";
name = "Regular Italic";
paths = (
{
closed = 1;
nodes = (
"488 -10 OFFCURVE",
"592 77 OFFCURVE",
"626 239 CURVE SMOOTH",
"712 644 LINE",
"604 644 LINE",
"519 243 LINE SMOOTH",
"495 130 OFFCURVE",
"430 82 OFFCURVE",
"315 82 CURVE SMOOTH",
"183 82 OFFCURVE",
"154 131 OFFCURVE",
"178 243 CURVE SMOOTH",
"263 644 LINE",
"154 644 LINE",
"68 239 LINE SMOOTH",
"36 90 OFFCURVE",
"124 -10 OFFCURVE",
"295 -10 CURVE SMOOTH"
);
},
{
closed = 1;
nodes = (
"511 687 OFFCURVE",
"564 737 OFFCURVE",
"577 800 CURVE SMOOTH",
"591 864 OFFCURVE",
"555 914 OFFCURVE",
"483 914 CURVE SMOOTH",
"407 914 OFFCURVE",
"357 864 OFFCURVE",
"343 800 CURVE SMOOTH",
"331 737 OFFCURVE",
"365 687 OFFCURVE",
"435 687 CURVE SMOOTH"
);
},
{
closed = 1;
nodes = (
"406 741 OFFCURVE",
"393 767 OFFCURVE",
"400 800 CURVE SMOOTH",
"407 833 OFFCURVE",
"437 859 OFFCURVE",
"472 859 CURVE SMOOTH",
"514 859 OFFCURVE",
"527 833 OFFCURVE",
"520 800 CURVE SMOOTH",
"513 767 OFFCURVE",
"484 741 OFFCURVE",
"447 741 CURVE SMOOTH"
);
}
);
width = 675;
}
);
leftKerningGroup = U;
note = Uring;
rightKerningGroup = U;
unicode = 016E;
},
{
glyphname = Utilde;
lastChange = "2015-10-24 17:50:52 +0000";
layers = (
{
layerId = "51D8E656-CCF3-4A73-A171-84F1BD8DE29C";
name = "Regular Italic";
paths = (
{
closed = 1;
nodes = (
"488 -10 OFFCURVE",
"592 77 OFFCURVE",
"626 239 CURVE SMOOTH",
"712 644 LINE",
"604 644 LINE",
"519 243 LINE SMOOTH",
"495 130 OFFCURVE",
"430 82 OFFCURVE",
"315 82 CURVE SMOOTH",
"183 82 OFFCURVE",
"154 131 OFFCURVE",
"178 243 CURVE SMOOTH",
"263 644 LINE",
"154 644 LINE",
"68 239 LINE SMOOTH",
"36 90 OFFCURVE",
"124 -10 OFFCURVE",
"295 -10 CURVE SMOOTH"
);
},
{
closed = 1;
nodes = (
"556 703 OFFCURVE",
"589 716 OFFCURVE",
"606 734 CURVE",
"623 814 LINE",
"600 790 OFFCURVE",
"571 777 OFFCURVE",
"535 777 CURVE SMOOTH",
"482 777 OFFCURVE",
"448 816 OFFCURVE",
"390 816 CURVE SMOOTH",
"357 816 OFFCURVE",
"320 804 OFFCURVE",
"299 786 CURVE",
"282 706 LINE",
"311 732 OFFCURVE",
"342 742 OFFCURVE",
"377 742 CURVE SMOOTH",
"423 742 OFFCURVE",
"465 703 OFFCURVE",
"520 703 CURVE SMOOTH"
);
}
);
width = 675;
}
);
leftKerningGroup = U;
note = Utilde;
rightKerningGroup = U;
unicode = 0168;
},
{
glyphname = V;
lastChange = "2015-10-24 17:50:53 +0000";
layers = (
{
layerId = "51D8E656-CCF3-4A73-A171-84F1BD8DE29C";
name = "Regular Italic";
paths = (
{
closed = 1;
nodes = (
"371 0 LINE",
"751 644 LINE",
"636 644 LINE",
"331 117 LINE",
"250 644 LINE",
"139 644 LINE",
"249 0 LINE"
);
}
);
width = 699;
}
);
note = V;
unicode = 0056;
},
{
glyphname = W;
lastChange = "2015-10-24 17:50:51 +0000";
layers = (
{
layerId = "51D8E656-CCF3-4A73-A171-84F1BD8DE29C";
name = "Regular Italic";
paths = (
{
closed = 1;
nodes = (
"264 0 LINE",
"496 451 LINE",
"530 0 LINE",
"635 0 LINE",
"920 644 LINE",
"814 644 LINE",
"601 161 LINE",
"566 644 LINE",
"477 644 LINE",
"461 566 LINE",
"253 161 LINE",
"246 644 LINE",
"139 644 LINE",
"153 0 LINE"
);
}
);
width = 868;
}
);
leftKerningGroup = W;
note = W;
rightKerningGroup = W;
unicode = 0057;
},
{
glyphname = Wacute;
lastChange = "2015-10-24 17:50:51 +0000";
layers = (
{
layerId = "51D8E656-CCF3-4A73-A171-84F1BD8DE29C";
name = "Regular Italic";
paths = (
{
closed = 1;
nodes = (
"264 0 LINE",
"496 451 LINE",
"530 0 LINE",
"635 0 LINE",
"920 644 LINE",
"814 644 LINE",
"601 161 LINE",
"566 644 LINE",
"477 644 LINE",
"461 566 LINE",
"253 161 LINE",
"246 644 LINE",
"139 644 LINE",
"153 0 LINE"
);
},
{
closed = 1;
nodes = (
"580 688 LINE",
"702 865 LINE",
"606 865 LINE",
"493 688 LINE"
);
}
);
width = 868;
}
);
leftKerningGroup = W;
note = Wacute;
rightKerningGroup = W;
unicode = 1E82;
},
{
glyphname = Wcircumflex;
lastChange = "2015-10-24 17:50:53 +0000";
layers = (
{
layerId = "51D8E656-CCF3-4A73-A171-84F1BD8DE29C";
name = "Regular Italic";
paths = (
{
closed = 1;
nodes = (
"264 0 LINE",
"496 451 LINE",
"530 0 LINE",
"635 0 LINE",
"920 644 LINE",
"814 644 LINE",
"601 161 LINE",
"566 644 LINE",
"477 644 LINE",
"461 566 LINE",
"253 161 LINE",
"246 644 LINE",
"139 644 LINE",
"153 0 LINE"
);
},
{
closed = 1;
nodes = (
"472 687 LINE",
"567 788 LINE",
"622 687 LINE",
"706 687 LINE",
"615 848 LINE",
"539 848 LINE",
"381 687 LINE"
);
}
);
width = 868;
}
);
leftKerningGroup = W;
note = Wcircumflex;
rightKerningGroup = W;
unicode = 0174;
},
{
glyphname = Wdieresis;
lastChange = "2015-10-24 17:50:52 +0000";
layers = (
{
layerId = "51D8E656-CCF3-4A73-A171-84F1BD8DE29C";
name = "Regular Italic";
paths = (
{
closed = 1;
nodes = (
"264 0 LINE",
"496 451 LINE",
"530 0 LINE",
"635 0 LINE",
"920 644 LINE",
"814 644 LINE",
"601 161 LINE",
"566 644 LINE",
"477 644 LINE",
"461 566 LINE",
"253 161 LINE",
"246 644 LINE",
"139 644 LINE",
"153 0 LINE"
);
},
{
closed = 1;
nodes = (
"502 710 LINE",
"521 796 LINE",
"430 796 LINE",
"411 710 LINE"
);
},
{
closed = 1;
nodes = (
"688 710 LINE",
"707 796 LINE",
"615 796 LINE",
"596 710 LINE"
);
}
);
width = 868;
}
);
leftKerningGroup = W;
note = Wdieresis;
rightKerningGroup = W;
unicode = 1E84;
},
{
glyphname = Wgrave;
lastChange = "2015-10-24 17:50:52 +0000";
layers = (
{
layerId = "51D8E656-CCF3-4A73-A171-84F1BD8DE29C";
name = "Regular Italic";
paths = (
{
closed = 1;
nodes = (
"264 0 LINE",
"496 451 LINE",
"530 0 LINE",
"635 0 LINE",
"920 644 LINE",
"814 644 LINE",
"601 161 LINE",
"566 644 LINE",
"477 644 LINE",
"461 566 LINE",
"253 161 LINE",
"246 644 LINE",
"139 644 LINE",
"153 0 LINE"
);
},
{
closed = 1;
nodes = (
"569 688 LINE",
"531 865 LINE",
"436 865 LINE",
"481 688 LINE"
);
}
);
width = 868;
}
);
leftKerningGroup = W;
note = Wgrave;
rightKerningGroup = W;
unicode = 1E80;
},
{
glyphname = X;
lastChange = "2015-10-24 17:50:51 +0000";
layers = (
{
layerId = "51D8E656-CCF3-4A73-A171-84F1BD8DE29C";
name = "Regular Italic";
paths = (
{
closed = 1;
nodes = (
"131 0 LINE",
"348 236 LINE",
"465 0 LINE",
"593 0 LINE",
"431 321 LINE",
"725 644 LINE",
"598 644 LINE",
"384 405 LINE",
"270 644 LINE",
"144 644 LINE",
"301 321 LINE",
"3 0 LINE"
);
}
);
width = 677;
}
);
note = X;
unicode = 0058;
},
{
glyphname = Y;
lastChange = "2015-10-24 17:50:50 +0000";
layers = (
{
layerId = "51D8E656-CCF3-4A73-A171-84F1BD8DE29C";
name = "Regular Italic";
paths = (
{
closed = 1;
nodes = (
"342 0 LINE",
"392 239 LINE",
"709 644 LINE",
"592 644 LINE",
"354 331 LINE",
"248 644 LINE",
"139 644 LINE",
"284 239 LINE",
"234 0 LINE"
);
}
);
width = 656;
}
);
leftKerningGroup = Y;
note = Y;
rightKerningGroup = Y;
unicode = 0059;
},
{
glyphname = Yacute;
lastChange = "2015-10-24 17:50:52 +0000";
layers = (
{
layerId = "51D8E656-CCF3-4A73-A171-84F1BD8DE29C";
name = "Regular Italic";
paths = (
{
closed = 1;
nodes = (
"342 0 LINE",
"392 239 LINE",
"709 644 LINE",
"592 644 LINE",
"354 331 LINE",
"248 644 LINE",
"139 644 LINE",
"284 239 LINE",
"234 0 LINE"
);
},
{
closed = 1;
nodes = (
"467 688 LINE",
"589 865 LINE",
"493 865 LINE",
"380 688 LINE"
);
}
);
width = 656;
}
);
leftKerningGroup = Y;
note = Yacute;
rightKerningGroup = Y;
unicode = 00DD;
},
{
glyphname = Ycircumflex;
lastChange = "2015-10-24 17:50:52 +0000";
layers = (
{
layerId = "51D8E656-CCF3-4A73-A171-84F1BD8DE29C";
name = "Regular Italic";
paths = (
{
closed = 1;
nodes = (
"342 0 LINE",
"392 239 LINE",
"709 644 LINE",
"592 644 LINE",
"354 331 LINE",
"248 644 LINE",
"139 644 LINE",
"284 239 LINE",
"234 0 LINE"
);
},
{
closed = 1;
nodes = (
"362 687 LINE",
"457 788 LINE",
"512 687 LINE",
"596 687 LINE",
"505 848 LINE",
"429 848 LINE",
"271 687 LINE"
);
}
);
width = 656;
}
);
leftKerningGroup = Y;
note = Ycircumflex;
rightKerningGroup = Y;
unicode = 0176;
},
{
glyphname = Ydieresis;
lastChange = "2015-10-24 17:50:53 +0000";
layers = (
{
layerId = "51D8E656-CCF3-4A73-A171-84F1BD8DE29C";
name = "Regular Italic";
paths = (
{
closed = 1;
nodes = (
"342 0 LINE",
"392 239 LINE",
"709 644 LINE",
"592 644 LINE",
"354 331 LINE",
"248 644 LINE",
"139 644 LINE",
"284 239 LINE",
"234 0 LINE"
);
},
{
closed = 1;
nodes = (
"391 712 LINE",
"410 798 LINE",
"319 798 LINE",
"300 712 LINE"
);
},
{
closed = 1;
nodes = (
"577 712 LINE",
"596 798 LINE",
"504 798 LINE",
"485 712 LINE"
);
}
);
width = 656;
}
);
leftKerningGroup = Y;
note = Ydieresis;
rightKerningGroup = Y;
unicode = 0178;
},
{
glyphname = Ydotaccent;
lastChange = "2015-10-24 17:50:53 +0000";
layers = (
{
layerId = "51D8E656-CCF3-4A73-A171-84F1BD8DE29C";
name = "Regular Italic";
paths = (
{
closed = 1;
nodes = (
"342 0 LINE",
"392 239 LINE",
"709 644 LINE",
"592 644 LINE",
"354 331 LINE",
"248 644 LINE",
"139 644 LINE",
"284 239 LINE",
"234 0 LINE"
);
},
{
closed = 1;
nodes = (
"484 711 LINE",
"503 799 LINE",
"411 799 LINE",
"392 711 LINE"
);
}
);
width = 656;
}
);
leftKerningGroup = Y;
note = Ydotaccent;
rightKerningGroup = Y;
unicode = 1E8E;
},
{
glyphname = Ydotbelow;
lastChange = "2015-10-24 17:50:53 +0000";
layers = (
{
layerId = "51D8E656-CCF3-4A73-A171-84F1BD8DE29C";
name = "Regular Italic";
paths = (
{
closed = 1;
nodes = (
"342 0 LINE",
"392 239 LINE",
"709 644 LINE",
"592 644 LINE",
"354 331 LINE",
"248 644 LINE",
"139 644 LINE",
"284 239 LINE",
"234 0 LINE"
);
},
{
closed = 1;
nodes = (
"301 -161 LINE",
"319 -73 LINE",
"225 -73 LINE",
"207 -161 LINE"
);
}
);
width = 656;
}
);
leftKerningGroup = Y;
note = Ydotbelow;
rightKerningGroup = Y;
unicode = 1EF4;
},
{
glyphname = Ygrave;
lastChange = "2015-10-24 17:50:51 +0000";
layers = (
{
layerId = "51D8E656-CCF3-4A73-A171-84F1BD8DE29C";
name = "Regular Italic";
paths = (
{
closed = 1;
nodes = (
"342 0 LINE",
"392 239 LINE",
"709 644 LINE",
"592 644 LINE",
"354 331 LINE",
"248 644 LINE",
"139 644 LINE",
"284 239 LINE",
"234 0 LINE"
);
},
{
closed = 1;
nodes = (
"489 688 LINE",
"451 865 LINE",
"356 865 LINE",
"401 688 LINE"
);
}
);
width = 656;
}
);
leftKerningGroup = Y;
note = Ygrave;
rightKerningGroup = Y;
unicode = 1EF2;
},
{
glyphname = Yhookabove;
lastChange = "2015-10-24 17:50:53 +0000";
layers = (
{
layerId = "51D8E656-CCF3-4A73-A171-84F1BD8DE29C";
name = "Regular Italic";
paths = (
{
closed = 1;
nodes = (
"342 0 LINE",
"392 239 LINE",
"709 644 LINE",
"592 644 LINE",
"354 331 LINE",
"248 644 LINE",
"139 644 LINE",
"284 239 LINE",
"234 0 LINE"
);
},
{
closed = 1;
nodes = (
"469 687 LINE",
"479 734 LINE",
"547 744 OFFCURVE",
"576 773 OFFCURVE",
"587 828 CURVE SMOOTH",
"600 885 OFFCURVE",
"563 921 OFFCURVE",
"481 921 CURVE SMOOTH",
"447 921 OFFCURVE",
"409 916 OFFCURVE",
"385 908 CURVE",
"373 849 LINE",
"391 856 OFFCURVE",
"419 861 OFFCURVE",
"439 861 CURVE SMOOTH",
"487 861 OFFCURVE",
"511 849 OFFCURVE",
"505 819 CURVE SMOOTH",
"498 786 OFFCURVE",
"479 773 OFFCURVE",
"402 769 CURVE",
"384 687 LINE"
);
}
);
width = 656;
}
);
leftKerningGroup = Y;
note = Yhookabove;
rightKerningGroup = Y;
unicode = 1EF6;
},
{
glyphname = Ytilde;
lastChange = "2015-10-24 17:50:53 +0000";
layers = (
{
layerId = "51D8E656-CCF3-4A73-A171-84F1BD8DE29C";
name = "Regular Italic";
paths = (
{
closed = 1;
nodes = (
"342 0 LINE",
"392 239 LINE",
"709 644 LINE",
"592 644 LINE",
"354 331 LINE",
"248 644 LINE",
"139 644 LINE",
"284 239 LINE",
"234 0 LINE"
);
},
{
closed = 1;
nodes = (
"553 703 OFFCURVE",
"586 716 OFFCURVE",
"603 734 CURVE",
"620 814 LINE",
"597 790 OFFCURVE",
"568 777 OFFCURVE",
"532 777 CURVE SMOOTH",
"479 777 OFFCURVE",
"445 816 OFFCURVE",
"387 816 CURVE SMOOTH",
"354 816 OFFCURVE",
"317 804 OFFCURVE",
"296 786 CURVE",
"279 706 LINE",
"308 732 OFFCURVE",
"339 742 OFFCURVE",
"374 742 CURVE SMOOTH",
"420 742 OFFCURVE",
"462 703 OFFCURVE",
"517 703 CURVE SMOOTH"
);
}
);
width = 656;
}
);
leftKerningGroup = Y;
note = Ytilde;
rightKerningGroup = Y;
unicode = 1EF8;
},
{
glyphname = Z;
lastChange = "2015-10-24 17:50:51 +0000";
layers = (
{
layerId = "51D8E656-CCF3-4A73-A171-84F1BD8DE29C";
name = "Regular Italic";
paths = (
{
closed = 1;
nodes = (
"494 0 LINE",
"511 84 LINE",
"163 84 LINE",
"611 577 LINE",
"625 644 LINE",
"156 644 LINE",
"137 555 LINE",
"466 555 LINE",
"15 58 LINE",
"3 0 LINE"
);
}
);
width = 575;
}
);
leftKerningGroup = Z;
note = Z;
rightKerningGroup = Z;
unicode = 005A;
},
{
glyphname = Zacute;
lastChange = "2015-10-24 17:50:53 +0000";
layers = (
{
layerId = "51D8E656-CCF3-4A73-A171-84F1BD8DE29C";
name = "Regular Italic";
paths = (
{
closed = 1;
nodes = (
"494 0 LINE",
"511 84 LINE",
"163 84 LINE",
"611 577 LINE",
"625 644 LINE",
"156 644 LINE",
"137 555 LINE",
"466 555 LINE",
"15 58 LINE",
"3 0 LINE"
);
},
{
closed = 1;
nodes = (
"443 688 LINE",
"565 865 LINE",
"469 865 LINE",
"356 688 LINE"
);
}
);
width = 575;
}
);
leftKerningGroup = Z;
note = Zacute;
rightKerningGroup = Z;
unicode = 0179;
},
{
glyphname = Zcaron;
lastChange = "2015-10-24 17:50:52 +0000";
layers = (
{
layerId = "51D8E656-CCF3-4A73-A171-84F1BD8DE29C";
name = "Regular Italic";
paths = (
{
closed = 1;
nodes = (
"494 0 LINE",
"511 84 LINE",
"163 84 LINE",
"611 577 LINE",
"625 644 LINE",
"156 644 LINE",
"137 555 LINE",
"466 555 LINE",
"15 58 LINE",
"3 0 LINE"
);
},
{
closed = 1;
nodes = (
"450 687 LINE",
"609 848 LINE",
"519 848 LINE",
"422 747 LINE",
"369 848 LINE",
"284 848 LINE",
"374 687 LINE"
);
}
);
width = 575;
}
);
leftKerningGroup = Z;
note = Zcaron;
rightKerningGroup = Z;
unicode = 017D;
},
{
glyphname = Zdotaccent;
lastChange = "2015-10-24 17:50:52 +0000";
layers = (
{
layerId = "51D8E656-CCF3-4A73-A171-84F1BD8DE29C";
name = "Regular Italic";
paths = (
{
closed = 1;
nodes = (
"494 0 LINE",
"511 84 LINE",
"163 84 LINE",
"611 577 LINE",
"625 644 LINE",
"156 644 LINE",
"137 555 LINE",
"466 555 LINE",
"15 58 LINE",
"3 0 LINE"
);
},
{
closed = 1;
nodes = (
"455 711 LINE",
"474 799 LINE",
"382 799 LINE",
"363 711 LINE"
);
}
);
width = 575;
}
);
leftKerningGroup = Z;
note = Zdotaccent;
rightKerningGroup = Z;
unicode = 017B;
},
{
glyphname = Zdotbelow;
lastChange = "2015-10-24 17:50:53 +0000";
layers = (
{
layerId = "51D8E656-CCF3-4A73-A171-84F1BD8DE29C";
name = "Regular Italic";
paths = (
{
closed = 1;
nodes = (
"494 0 LINE",
"511 84 LINE",
"163 84 LINE",
"611 577 LINE",
"625 644 LINE",
"156 644 LINE",
"137 555 LINE",
"466 555 LINE",
"15 58 LINE",
"3 0 LINE"
);
},
{
closed = 1;
nodes = (
"274 -173 LINE",
"292 -85 LINE",
"198 -85 LINE",
"180 -173 LINE"
);
}
);
width = 575;
}
);
leftKerningGroup = Z;
note = Zdotbelow;
rightKerningGroup = Z;
unicode = 1E92;
},
{
glyphname = a;
lastChange = "2015-10-24 17:50:53 +0000";
layers = (
{
layerId = "51D8E656-CCF3-4A73-A171-84F1BD8DE29C";
name = "Regular Italic";
paths = (
{
closed = 1;
nodes = (
"285 -10 OFFCURVE",
"337 8 OFFCURVE",
"388 47 CURVE",
"386 0 LINE",
"479 0 LINE",
"579 474 LINE",
"470 474 LINE",
"463 441 LINE",
"428 472 OFFCURVE",
"391 484 OFFCURVE",
"334 484 CURVE SMOOTH",
"203 484 OFFCURVE",
"82 384 OFFCURVE",
"49 218 CURVE SMOOTH",
"16 53 OFFCURVE",
"87 -10 OFFCURVE",
"216 -10 CURVE SMOOTH"
);
},
{
closed = 1;
nodes = (
"159 72 OFFCURVE",
"135 105 OFFCURVE",
"159 217 CURVE SMOOTH",
"184 335 OFFCURVE",
"250 401 OFFCURVE",
"346 401 CURVE SMOOTH",
"394 401 OFFCURVE",
"421 385 OFFCURVE",
"445 357 CURVE",
"395 122 LINE",
"355 88 OFFCURVE",
"313 72 OFFCURVE",
"263 72 CURVE SMOOTH"
);
}
);
width = 583;
}
);
leftKerningGroup = a;
note = a;
rightKerningGroup = a;
unicode = 0061;
},
{
glyphname = aacute;
lastChange = "2015-10-24 17:50:53 +0000";
layers = (
{
layerId = "51D8E656-CCF3-4A73-A171-84F1BD8DE29C";
name = "Regular Italic";
paths = (
{
closed = 1;
nodes = (
"285 -10 OFFCURVE",
"337 8 OFFCURVE",
"388 47 CURVE",
"386 0 LINE",
"479 0 LINE",
"579 474 LINE",
"470 474 LINE",
"463 441 LINE",
"428 472 OFFCURVE",
"391 484 OFFCURVE",
"334 484 CURVE SMOOTH",
"203 484 OFFCURVE",
"82 384 OFFCURVE",
"49 218 CURVE SMOOTH",
"16 53 OFFCURVE",
"87 -10 OFFCURVE",
"216 -10 CURVE SMOOTH"
);
},
{
closed = 1;
nodes = (
"159 72 OFFCURVE",
"135 105 OFFCURVE",
"159 217 CURVE SMOOTH",
"184 335 OFFCURVE",
"250 401 OFFCURVE",
"346 401 CURVE SMOOTH",
"394 401 OFFCURVE",
"421 385 OFFCURVE",
"445 357 CURVE",
"395 122 LINE",
"355 88 OFFCURVE",
"313 72 OFFCURVE",
"263 72 CURVE SMOOTH"
);
},
{
closed = 1;
nodes = (
"394 522 LINE",
"516 699 LINE",
"420 699 LINE",
"307 522 LINE"
);
}
);
width = 549;
}
);
leftKerningGroup = a;
note = aacute;
rightKerningGroup = a;
unicode = 00E1;
},
{
glyphname = abreve;
lastChange = "2015-10-24 17:50:52 +0000";
layers = (
{
layerId = "51D8E656-CCF3-4A73-A171-84F1BD8DE29C";
name = "Regular Italic";
paths = (
{
closed = 1;
nodes = (
"285 -10 OFFCURVE",
"337 8 OFFCURVE",
"388 47 CURVE",
"386 0 LINE",
"479 0 LINE",
"579 474 LINE",
"470 474 LINE",
"463 441 LINE",
"428 472 OFFCURVE",
"391 484 OFFCURVE",
"334 484 CURVE SMOOTH",
"203 484 OFFCURVE",
"82 384 OFFCURVE",
"49 218 CURVE SMOOTH",
"16 53 OFFCURVE",
"87 -10 OFFCURVE",
"216 -10 CURVE SMOOTH"
);
},
{
closed = 1;
nodes = (
"159 72 OFFCURVE",
"135 105 OFFCURVE",
"159 217 CURVE SMOOTH",
"184 335 OFFCURVE",
"250 401 OFFCURVE",
"346 401 CURVE SMOOTH",
"394 401 OFFCURVE",
"421 385 OFFCURVE",
"445 357 CURVE",
"395 122 LINE",
"355 88 OFFCURVE",
"313 72 OFFCURVE",
"263 72 CURVE SMOOTH"
);
},
{
closed = 1;
nodes = (
"450 522 OFFCURVE",
"517 577 OFFCURVE",
"535 663 CURVE",
"458 663 LINE",
"448 617 OFFCURVE",
"417 587 OFFCURVE",
"372 587 CURVE SMOOTH",
"321 587 OFFCURVE",
"311 617 OFFCURVE",
"321 663 CURVE",
"251 663 LINE",
"233 577 OFFCURVE",
"273 522 OFFCURVE",
"361 522 CURVE SMOOTH"
);
}
);
width = 547;
}
);
leftKerningGroup = a;
note = abreve;
rightKerningGroup = a;
unicode = 0103;
},
{
glyphname = abreveacute;
lastChange = "2015-10-24 17:50:53 +0000";
layers = (
{
layerId = "51D8E656-CCF3-4A73-A171-84F1BD8DE29C";
name = "Regular Italic";
paths = (
{
closed = 1;
nodes = (
"285 -10 OFFCURVE",
"337 8 OFFCURVE",
"388 47 CURVE",
"386 0 LINE",
"479 0 LINE",
"579 474 LINE",
"470 474 LINE",
"463 441 LINE",
"428 472 OFFCURVE",
"391 484 OFFCURVE",
"334 484 CURVE SMOOTH",
"203 484 OFFCURVE",
"82 384 OFFCURVE",
"49 218 CURVE SMOOTH",
"16 53 OFFCURVE",
"87 -10 OFFCURVE",
"216 -10 CURVE SMOOTH"
);
},
{
closed = 1;
nodes = (
"159 72 OFFCURVE",
"135 105 OFFCURVE",
"159 217 CURVE SMOOTH",
"184 335 OFFCURVE",
"250 401 OFFCURVE",
"346 401 CURVE SMOOTH",
"394 401 OFFCURVE",
"421 385 OFFCURVE",
"445 357 CURVE",
"395 122 LINE",
"355 88 OFFCURVE",
"313 72 OFFCURVE",
"263 72 CURVE SMOOTH"
);
},
{
closed = 1;
nodes = (
"460 522 OFFCURVE",
"530 563 OFFCURVE",
"552 670 CURVE",
"484 670 LINE",
"472 611 OFFCURVE",
"431 581 OFFCURVE",
"376 581 CURVE SMOOTH",
"311 581 OFFCURVE",
"292 611 OFFCURVE",
"304 670 CURVE",
"240 670 LINE",
"218 563 OFFCURVE",
"278 522 OFFCURVE",
"365 522 CURVE SMOOTH"
);
},
{
closed = 1;
nodes = (
"420 639 LINE",
"519 772 LINE",
"435 772 LINE",
"343 639 LINE"
);
}
);
width = 547;
}
);
leftKerningGroup = a;
note = abreveacute;
rightKerningGroup = a;
unicode = 1EAF;
},
{
glyphname = abrevedotbelow;
lastChange = "2015-10-24 17:50:51 +0000";
layers = (
{
layerId = "51D8E656-CCF3-4A73-A171-84F1BD8DE29C";
name = "Regular Italic";
paths = (
{
closed = 1;
nodes = (
"285 -10 OFFCURVE",
"337 8 OFFCURVE",
"388 47 CURVE",
"386 0 LINE",
"479 0 LINE",
"579 474 LINE",
"470 474 LINE",
"463 441 LINE",
"428 472 OFFCURVE",
"391 484 OFFCURVE",
"334 484 CURVE SMOOTH",
"203 484 OFFCURVE",
"82 384 OFFCURVE",
"49 218 CURVE SMOOTH",
"16 53 OFFCURVE",
"87 -10 OFFCURVE",
"216 -10 CURVE SMOOTH"
);
},
{
closed = 1;
nodes = (
"261 -173 LINE",
"279 -85 LINE",
"185 -85 LINE",
"167 -173 LINE"
);
},
{
closed = 1;
nodes = (
"159 72 OFFCURVE",
"135 105 OFFCURVE",
"159 217 CURVE SMOOTH",
"184 335 OFFCURVE",
"250 401 OFFCURVE",
"346 401 CURVE SMOOTH",
"394 401 OFFCURVE",
"421 385 OFFCURVE",
"445 357 CURVE",
"395 122 LINE",
"355 88 OFFCURVE",
"313 72 OFFCURVE",
"263 72 CURVE SMOOTH"
);
},
{
closed = 1;
nodes = (
"448 522 OFFCURVE",
"515 577 OFFCURVE",
"533 663 CURVE",
"456 663 LINE",
"446 617 OFFCURVE",
"415 587 OFFCURVE",
"370 587 CURVE SMOOTH",
"319 587 OFFCURVE",
"309 617 OFFCURVE",
"319 663 CURVE",
"249 663 LINE",
"231 577 OFFCURVE",
"271 522 OFFCURVE",
"359 522 CURVE SMOOTH"
);
}
);
width = 547;
}
);
leftKerningGroup = a;
note = abrevedotbelow;
rightKerningGroup = a;
unicode = 1EB7;
},
{
glyphname = abrevegrave;
lastChange = "2015-10-24 17:50:52 +0000";
layers = (
{
layerId = "51D8E656-CCF3-4A73-A171-84F1BD8DE29C";
name = "Regular Italic";
paths = (
{
closed = 1;
nodes = (
"285 -10 OFFCURVE",
"337 8 OFFCURVE",
"388 47 CURVE",
"386 0 LINE",
"479 0 LINE",
"579 474 LINE",
"470 474 LINE",
"463 441 LINE",
"428 472 OFFCURVE",
"391 484 OFFCURVE",
"334 484 CURVE SMOOTH",
"203 484 OFFCURVE",
"82 384 OFFCURVE",
"49 218 CURVE SMOOTH",
"16 53 OFFCURVE",
"87 -10 OFFCURVE",
"216 -10 CURVE SMOOTH"
);
},
{
closed = 1;
nodes = (
"159 72 OFFCURVE",
"135 105 OFFCURVE",
"159 217 CURVE SMOOTH",
"184 335 OFFCURVE",
"250 401 OFFCURVE",
"346 401 CURVE SMOOTH",
"394 401 OFFCURVE",
"421 385 OFFCURVE",
"445 357 CURVE",
"395 122 LINE",
"355 88 OFFCURVE",
"313 72 OFFCURVE",
"263 72 CURVE SMOOTH"
);
},
{
closed = 1;
nodes = (
"456 522 OFFCURVE",
"526 563 OFFCURVE",
"548 670 CURVE",
"480 670 LINE",
"468 611 OFFCURVE",
"427 581 OFFCURVE",
"372 581 CURVE SMOOTH",
"307 581 OFFCURVE",
"288 611 OFFCURVE",
"300 670 CURVE",
"236 670 LINE",
"214 563 OFFCURVE",
"274 522 OFFCURVE",
"361 522 CURVE SMOOTH"
);
},
{
closed = 1;
nodes = (
"433 639 LINE",
"397 772 LINE",
"313 772 LINE",
"356 639 LINE"
);
}
);
width = 547;
}
);
leftKerningGroup = a;
note = abrevegrave;
rightKerningGroup = a;
unicode = 1EB1;
},
{
glyphname = abrevehookabove;
lastChange = "2015-10-24 17:50:51 +0000";
layers = (
{
layerId = "51D8E656-CCF3-4A73-A171-84F1BD8DE29C";
name = "Regular Italic";
paths = (
{
closed = 1;
nodes = (
"285 -10 OFFCURVE",
"337 8 OFFCURVE",
"388 47 CURVE",
"386 0 LINE",
"479 0 LINE",
"579 474 LINE",
"470 474 LINE",
"463 441 LINE",
"428 472 OFFCURVE",
"391 484 OFFCURVE",
"334 484 CURVE SMOOTH",
"203 484 OFFCURVE",
"82 384 OFFCURVE",
"49 218 CURVE SMOOTH",
"16 53 OFFCURVE",
"87 -10 OFFCURVE",
"216 -10 CURVE SMOOTH"
);
},
{
closed = 1;
nodes = (
"159 72 OFFCURVE",
"135 105 OFFCURVE",
"159 217 CURVE SMOOTH",
"184 335 OFFCURVE",
"250 401 OFFCURVE",
"346 401 CURVE SMOOTH",
"394 401 OFFCURVE",
"421 385 OFFCURVE",
"445 357 CURVE",
"395 122 LINE",
"355 88 OFFCURVE",
"313 72 OFFCURVE",
"263 72 CURVE SMOOTH"
);
},
{
closed = 1;
nodes = (
"458 522 OFFCURVE",
"528 563 OFFCURVE",
"550 670 CURVE",
"482 670 LINE",
"470 611 OFFCURVE",
"429 581 OFFCURVE",
"374 581 CURVE SMOOTH",
"309 581 OFFCURVE",
"290 611 OFFCURVE",
"302 670 CURVE",
"238 670 LINE",
"216 563 OFFCURVE",
"276 522 OFFCURVE",
"363 522 CURVE SMOOTH"
);
},
{
closed = 1;
nodes = (
"421 644 LINE",
"428 677 LINE",
"486 687 OFFCURVE",
"513 709 OFFCURVE",
"522 753 CURVE SMOOTH",
"532 800 OFFCURVE",
"502 830 OFFCURVE",
"439 830 CURVE SMOOTH",
"408 830 OFFCURVE",
"377 825 OFFCURVE",
"356 818 CURVE",
"345 767 LINE",
"363 774 OFFCURVE",
"382 779 OFFCURVE",
"403 779 CURVE SMOOTH",
"438 779 OFFCURVE",
"453 772 OFFCURVE",
"448 746 CURVE",
"442 720 OFFCURVE",
"422 706 OFFCURVE",
"357 703 CURVE",
"345 644 LINE"
);
}
);
width = 547;
}
);
leftKerningGroup = a;
note = abrevehookabove;
rightKerningGroup = a;
unicode = 1EB3;
},
{
glyphname = abrevetilde;
lastChange = "2015-10-24 17:50:53 +0000";
layers = (
{
layerId = "51D8E656-CCF3-4A73-A171-84F1BD8DE29C";
name = "Regular Italic";
paths = (
{
closed = 1;
nodes = (
"285 -10 OFFCURVE",
"337 8 OFFCURVE",
"388 47 CURVE",
"386 0 LINE",
"479 0 LINE",
"579 474 LINE",
"470 474 LINE",
"463 441 LINE",
"428 472 OFFCURVE",
"391 484 OFFCURVE",
"334 484 CURVE SMOOTH",
"203 484 OFFCURVE",
"82 384 OFFCURVE",
"49 218 CURVE SMOOTH",
"16 53 OFFCURVE",
"87 -10 OFFCURVE",
"216 -10 CURVE SMOOTH"
);
},
{
closed = 1;
nodes = (
"159 72 OFFCURVE",
"135 105 OFFCURVE",
"159 217 CURVE SMOOTH",
"184 335 OFFCURVE",
"250 401 OFFCURVE",
"346 401 CURVE SMOOTH",
"394 401 OFFCURVE",
"421 385 OFFCURVE",
"445 357 CURVE",
"395 122 LINE",
"355 88 OFFCURVE",
"313 72 OFFCURVE",
"263 72 CURVE SMOOTH"
);
},
{
closed = 1;
nodes = (
"463 522 OFFCURVE",
"533 563 OFFCURVE",
"555 670 CURVE",
"487 670 LINE",
"475 611 OFFCURVE",
"434 581 OFFCURVE",
"379 581 CURVE SMOOTH",
"314 581 OFFCURVE",
"295 611 OFFCURVE",
"307 670 CURVE",
"243 670 LINE",
"221 563 OFFCURVE",
"281 522 OFFCURVE",
"368 522 CURVE SMOOTH"
);
},
{
closed = 1;
nodes = (
"516 691 OFFCURVE",
"547 703 OFFCURVE",
"564 720 CURVE",
"578 792 LINE",
"557 768 OFFCURVE",
"529 756 OFFCURVE",
"495 756 CURVE SMOOTH",
"444 756 OFFCURVE",
"412 794 OFFCURVE",
"356 794 CURVE SMOOTH",
"324 794 OFFCURVE",
"288 782 OFFCURVE",
"268 765 CURVE",
"253 694 LINE",
"280 718 OFFCURVE",
"310 728 OFFCURVE",
"343 728 CURVE SMOOTH",
"388 728 OFFCURVE",
"429 691 OFFCURVE",
"482 691 CURVE SMOOTH"
);
}
);
width = 547;
}
);
leftKerningGroup = a;
note = abrevetilde;
rightKerningGroup = a;
unicode = 1EB5;
},
{
glyphname = acaron;
lastChange = "2015-10-24 17:50:53 +0000";
layers = (
{
layerId = "51D8E656-CCF3-4A73-A171-84F1BD8DE29C";
name = "Regular Italic";
paths = (
{
closed = 1;
nodes = (
"285 -10 OFFCURVE",
"337 8 OFFCURVE",
"388 47 CURVE",
"386 0 LINE",
"479 0 LINE",
"579 474 LINE",
"470 474 LINE",
"463 441 LINE",
"428 472 OFFCURVE",
"391 484 OFFCURVE",
"334 484 CURVE SMOOTH",
"203 484 OFFCURVE",
"82 384 OFFCURVE",
"49 218 CURVE SMOOTH",
"16 53 OFFCURVE",
"87 -10 OFFCURVE",
"216 -10 CURVE SMOOTH"
);
},
{
closed = 1;
nodes = (
"159 72 OFFCURVE",
"135 105 OFFCURVE",
"159 217 CURVE SMOOTH",
"184 335 OFFCURVE",
"250 401 OFFCURVE",
"346 401 CURVE SMOOTH",
"394 401 OFFCURVE",
"421 385 OFFCURVE",
"445 357 CURVE",
"395 122 LINE",
"355 88 OFFCURVE",
"313 72 OFFCURVE",
"263 72 CURVE SMOOTH"
);
},
{
closed = 1;
nodes = (
"391 521 LINE",
"550 682 LINE",
"460 682 LINE",
"363 581 LINE",
"310 682 LINE",
"225 682 LINE",
"315 521 LINE"
);
}
);
width = 547;
}
);
leftKerningGroup = a;
note = acaron;
rightKerningGroup = a;
unicode = 01CE;
},
{
glyphname = acircumflex;
lastChange = "2015-10-24 17:50:51 +0000";
layers = (
{
layerId = "51D8E656-CCF3-4A73-A171-84F1BD8DE29C";
name = "Regular Italic";
paths = (
{
closed = 1;
nodes = (
"289 -10 OFFCURVE",
"341 8 OFFCURVE",
"392 47 CURVE",
"390 0 LINE",
"483 0 LINE",
"583 474 LINE",
"474 474 LINE",
"467 441 LINE",
"432 472 OFFCURVE",
"395 484 OFFCURVE",
"338 484 CURVE SMOOTH",
"207 484 OFFCURVE",
"86 384 OFFCURVE",
"53 218 CURVE SMOOTH",
"20 53 OFFCURVE",
"91 -10 OFFCURVE",
"220 -10 CURVE SMOOTH"
);
},
{
closed = 1;
nodes = (
"163 72 OFFCURVE",
"139 105 OFFCURVE",
"163 217 CURVE SMOOTH",
"188 335 OFFCURVE",
"254 401 OFFCURVE",
"350 401 CURVE SMOOTH",
"398 401 OFFCURVE",
"425 385 OFFCURVE",
"449 357 CURVE",
"399 122 LINE",
"359 88 OFFCURVE",
"317 72 OFFCURVE",
"267 72 CURVE SMOOTH"
);
},
{
closed = 1;
nodes = (
"288 521 LINE",
"383 622 LINE",
"438 521 LINE",
"522 521 LINE",
"431 682 LINE",
"355 682 LINE",
"197 521 LINE"
);
}
);
width = 551;
}
);
leftKerningGroup = a;
note = acircumflex;
rightKerningGroup = a;
unicode = 00E2;
},
{
glyphname = acircumflexacute;
lastChange = "2015-10-24 17:50:52 +0000";
layers = (
{
layerId = "51D8E656-CCF3-4A73-A171-84F1BD8DE29C";
name = "Regular Italic";
paths = (
{
closed = 1;
nodes = (
"285 -10 OFFCURVE",
"337 8 OFFCURVE",
"388 47 CURVE",
"386 0 LINE",
"479 0 LINE",
"579 474 LINE",
"470 474 LINE",
"463 441 LINE",
"428 472 OFFCURVE",
"391 484 OFFCURVE",
"334 484 CURVE SMOOTH",
"203 484 OFFCURVE",
"82 384 OFFCURVE",
"49 218 CURVE SMOOTH",
"16 53 OFFCURVE",
"87 -10 OFFCURVE",
"216 -10 CURVE SMOOTH"
);
},
{
closed = 1;
nodes = (
"159 72 OFFCURVE",
"135 105 OFFCURVE",
"159 217 CURVE SMOOTH",
"184 335 OFFCURVE",
"250 401 OFFCURVE",
"346 401 CURVE SMOOTH",
"394 401 OFFCURVE",
"421 385 OFFCURVE",
"445 357 CURVE",
"395 122 LINE",
"355 88 OFFCURVE",
"313 72 OFFCURVE",
"263 72 CURVE SMOOTH"
);
},
{
closed = 1;
nodes = (
"290 521 LINE",
"378 603 LINE",
"432 521 LINE",
"518 521 LINE",
"426 648 LINE",
"342 648 LINE",
"196 521 LINE"
);
},
{
closed = 1;
nodes = (
"549 634 LINE",
"647 767 LINE",
"564 767 LINE",
"472 634 LINE"
);
}
);
width = 552;
}
);
leftKerningGroup = a;
note = acircumflexacute;
rightKerningGroup = a;
unicode = 1EA5;
},
{
glyphname = acircumflexdotbelow;
lastChange = "2015-10-24 17:50:52 +0000";
layers = (
{
layerId = "51D8E656-CCF3-4A73-A171-84F1BD8DE29C";
name = "Regular Italic";
paths = (
{
closed = 1;
nodes = (
"285 -10 OFFCURVE",
"337 8 OFFCURVE",
"388 47 CURVE",
"386 0 LINE",
"479 0 LINE",
"579 474 LINE",
"470 474 LINE",
"463 441 LINE",
"428 472 OFFCURVE",
"391 484 OFFCURVE",
"334 484 CURVE SMOOTH",
"203 484 OFFCURVE",
"82 384 OFFCURVE",
"49 218 CURVE SMOOTH",
"16 53 OFFCURVE",
"87 -10 OFFCURVE",
"216 -10 CURVE SMOOTH"
);
},
{
closed = 1;
nodes = (
"254 -173 LINE",
"272 -85 LINE",
"178 -85 LINE",
"160 -173 LINE"
);
},
{
closed = 1;
nodes = (
"159 72 OFFCURVE",
"135 105 OFFCURVE",
"159 217 CURVE SMOOTH",
"184 335 OFFCURVE",
"250 401 OFFCURVE",
"346 401 CURVE SMOOTH",
"394 401 OFFCURVE",
"421 385 OFFCURVE",
"445 357 CURVE",
"395 122 LINE",
"355 88 OFFCURVE",
"313 72 OFFCURVE",
"263 72 CURVE SMOOTH"
);
},
{
closed = 1;
nodes = (
"282 521 LINE",
"377 622 LINE",
"432 521 LINE",
"516 521 LINE",
"425 682 LINE",
"349 682 LINE",
"191 521 LINE"
);
}
);
width = 547;
}
);
leftKerningGroup = a;
note = acircumflexdotbelow;
rightKerningGroup = a;
unicode = 1EAD;
},
{
glyphname = acircumflexgrave;
lastChange = "2015-10-24 17:50:51 +0000";
layers = (
{
layerId = "51D8E656-CCF3-4A73-A171-84F1BD8DE29C";
name = "Regular Italic";
paths = (
{
closed = 1;
nodes = (
"285 -10 OFFCURVE",
"337 8 OFFCURVE",
"388 47 CURVE",
"386 0 LINE",
"479 0 LINE",
"579 474 LINE",
"470 474 LINE",
"463 441 LINE",
"428 472 OFFCURVE",
"391 484 OFFCURVE",
"334 484 CURVE SMOOTH",
"203 484 OFFCURVE",
"82 384 OFFCURVE",
"49 218 CURVE SMOOTH",
"16 53 OFFCURVE",
"87 -10 OFFCURVE",
"216 -10 CURVE SMOOTH"
);
},
{
closed = 1;
nodes = (
"159 72 OFFCURVE",
"135 105 OFFCURVE",
"159 217 CURVE SMOOTH",
"184 335 OFFCURVE",
"250 401 OFFCURVE",
"346 401 CURVE SMOOTH",
"394 401 OFFCURVE",
"421 385 OFFCURVE",
"445 357 CURVE",
"395 122 LINE",
"355 88 OFFCURVE",
"313 72 OFFCURVE",
"263 72 CURVE SMOOTH"
);
},
{
closed = 1;
nodes = (
"280 634 LINE",
"245 767 LINE",
"161 767 LINE",
"203 634 LINE"
);
},
{
closed = 1;
nodes = (
"278 521 LINE",
"367 603 LINE",
"420 521 LINE",
"506 521 LINE",
"416 648 LINE",
"331 648 LINE",
"186 521 LINE"
);
}
);
width = 547;
}
);
leftKerningGroup = a;
note = acircumflexgrave;
rightKerningGroup = a;
unicode = 1EA7;
},
{
glyphname = acircumflexhookabove;
lastChange = "2015-10-24 17:50:52 +0000";
layers = (
{
layerId = "51D8E656-CCF3-4A73-A171-84F1BD8DE29C";
name = "Regular Italic";
paths = (
{
closed = 1;
nodes = (
"285 -10 OFFCURVE",
"337 8 OFFCURVE",
"388 47 CURVE",
"386 0 LINE",
"479 0 LINE",
"579 474 LINE",
"470 474 LINE",
"463 441 LINE",
"428 472 OFFCURVE",
"391 484 OFFCURVE",
"334 484 CURVE SMOOTH",
"203 484 OFFCURVE",
"82 384 OFFCURVE",
"49 218 CURVE SMOOTH",
"16 53 OFFCURVE",
"87 -10 OFFCURVE",
"216 -10 CURVE SMOOTH"
);
},
{
closed = 1;
nodes = (
"159 72 OFFCURVE",
"135 105 OFFCURVE",
"159 217 CURVE SMOOTH",
"184 335 OFFCURVE",
"250 401 OFFCURVE",
"346 401 CURVE SMOOTH",
"394 401 OFFCURVE",
"421 385 OFFCURVE",
"445 357 CURVE",
"395 122 LINE",
"355 88 OFFCURVE",
"313 72 OFFCURVE",
"263 72 CURVE SMOOTH"
);
},
{
closed = 1;
nodes = (
"282 520 LINE",
"371 602 LINE",
"424 520 LINE",
"510 520 LINE",
"419 647 LINE",
"334 647 LINE",
"189 520 LINE"
);
},
{
closed = 1;
nodes = (
"545 612 LINE",
"552 646 LINE",
"608 654 OFFCURVE",
"636 679 OFFCURVE",
"646 723 CURVE SMOOTH",
"656 770 OFFCURVE",
"624 801 OFFCURVE",
"559 801 CURVE SMOOTH",
"526 801 OFFCURVE",
"502 796 OFFCURVE",
"481 789 CURVE",
"469 736 LINE",
"487 743 OFFCURVE",
"506 748 OFFCURVE",
"527 748 CURVE SMOOTH",
"559 748 OFFCURVE",
"572 739 OFFCURVE",
"567 717 CURVE SMOOTH",
"562 693 OFFCURVE",
"547 681 OFFCURVE",
"483 678 CURVE",
"469 612 LINE"
);
}
);
width = 567;
}
);
leftKerningGroup = a;
note = acircumflexhookabove;
rightKerningGroup = a;
unicode = 1EA9;
},
{
glyphname = acircumflextilde;
lastChange = "2015-10-24 17:50:53 +0000";
layers = (
{
layerId = "51D8E656-CCF3-4A73-A171-84F1BD8DE29C";
name = "Regular Italic";
paths = (
{
closed = 1;
nodes = (
"285 -10 OFFCURVE",
"337 8 OFFCURVE",
"388 47 CURVE",
"386 0 LINE",
"479 0 LINE",
"579 474 LINE",
"470 474 LINE",
"463 441 LINE",
"428 472 OFFCURVE",
"391 484 OFFCURVE",
"334 484 CURVE SMOOTH",
"203 484 OFFCURVE",
"82 384 OFFCURVE",
"49 218 CURVE SMOOTH",
"16 53 OFFCURVE",
"87 -10 OFFCURVE",
"216 -10 CURVE SMOOTH"
);
},
{
closed = 1;
nodes = (
"159 72 OFFCURVE",
"135 105 OFFCURVE",
"159 217 CURVE SMOOTH",
"184 335 OFFCURVE",
"250 401 OFFCURVE",
"346 401 CURVE SMOOTH",
"394 401 OFFCURVE",
"421 385 OFFCURVE",
"445 357 CURVE",
"395 122 LINE",
"355 88 OFFCURVE",
"313 72 OFFCURVE",
"263 72 CURVE SMOOTH"
);
},
{
closed = 1;
nodes = (
"287 521 LINE",
"376 603 LINE",
"429 521 LINE",
"515 521 LINE",
"424 648 LINE",
"339 648 LINE",
"194 521 LINE"
);
},
{
closed = 1;
nodes = (
"500 656 OFFCURVE",
"531 669 OFFCURVE",
"547 686 CURVE",
"563 757 LINE",
"541 734 OFFCURVE",
"513 722 OFFCURVE",
"479 722 CURVE SMOOTH",
"428 722 OFFCURVE",
"396 759 OFFCURVE",
"340 759 CURVE SMOOTH",
"308 759 OFFCURVE",
"272 747 OFFCURVE",
"252 730 CURVE",
"237 659 LINE",
"264 684 OFFCURVE",
"294 694 OFFCURVE",
"327 694 CURVE SMOOTH",
"372 694 OFFCURVE",
"413 656 OFFCURVE",
"466 656 CURVE SMOOTH"
);
}
);
width = 547;
}
);
leftKerningGroup = a;
note = acircumflextilde;
rightKerningGroup = a;
unicode = 1EAB;
},
{
glyphname = adieresis;
lastChange = "2015-10-24 17:50:53 +0000";
layers = (
{
layerId = "51D8E656-CCF3-4A73-A171-84F1BD8DE29C";
name = "Regular Italic";
paths = (
{
closed = 1;
nodes = (
"285 -10 OFFCURVE",
"337 8 OFFCURVE",
"388 47 CURVE",
"386 0 LINE",
"479 0 LINE",
"579 474 LINE",
"470 474 LINE",
"463 441 LINE",
"428 472 OFFCURVE",
"391 484 OFFCURVE",
"334 484 CURVE SMOOTH",
"203 484 OFFCURVE",
"82 384 OFFCURVE",
"49 218 CURVE SMOOTH",
"16 53 OFFCURVE",
"87 -10 OFFCURVE",
"216 -10 CURVE SMOOTH"
);
},
{
closed = 1;
nodes = (
"159 72 OFFCURVE",
"135 105 OFFCURVE",
"159 217 CURVE SMOOTH",
"184 335 OFFCURVE",
"250 401 OFFCURVE",
"346 401 CURVE SMOOTH",
"394 401 OFFCURVE",
"421 385 OFFCURVE",
"445 357 CURVE",
"395 122 LINE",
"355 88 OFFCURVE",
"313 72 OFFCURVE",
"263 72 CURVE SMOOTH"
);
},
{
closed = 1;
nodes = (
"319 546 LINE",
"338 632 LINE",
"247 632 LINE",
"228 546 LINE"
);
},
{
closed = 1;
nodes = (
"505 546 LINE",
"524 632 LINE",
"432 632 LINE",
"413 546 LINE"
);
}
);
width = 547;
}
);
leftKerningGroup = a;
note = adieresis;
rightKerningGroup = a;
unicode = 00E4;
},
{
glyphname = adotbelow;
lastChange = "2015-10-24 17:50:54 +0000";
layers = (
{
layerId = "51D8E656-CCF3-4A73-A171-84F1BD8DE29C";
name = "Regular Italic";
paths = (
{
closed = 1;
nodes = (
"285 -10 OFFCURVE",
"337 8 OFFCURVE",
"388 47 CURVE",
"386 0 LINE",
"479 0 LINE",
"579 474 LINE",
"470 474 LINE",
"463 441 LINE",
"428 472 OFFCURVE",
"391 484 OFFCURVE",
"334 484 CURVE SMOOTH",
"203 484 OFFCURVE",
"82 384 OFFCURVE",
"49 218 CURVE SMOOTH",
"16 53 OFFCURVE",
"87 -10 OFFCURVE",
"216 -10 CURVE SMOOTH"
);
},
{
closed = 1;
nodes = (
"259 -173 LINE",
"277 -85 LINE",
"183 -85 LINE",
"165 -173 LINE"
);
},
{
closed = 1;
nodes = (
"159 72 OFFCURVE",
"135 105 OFFCURVE",
"159 217 CURVE SMOOTH",
"184 335 OFFCURVE",
"250 401 OFFCURVE",
"346 401 CURVE SMOOTH",
"394 401 OFFCURVE",
"421 385 OFFCURVE",
"445 357 CURVE",
"395 122 LINE",
"355 88 OFFCURVE",
"313 72 OFFCURVE",
"263 72 CURVE SMOOTH"
);
}
);
width = 547;
}
);
leftKerningGroup = a;
note = adotbelow;
rightKerningGroup = a;
unicode = 1EA1;
},
{
glyphname = agrave;
lastChange = "2015-10-24 17:50:51 +0000";
layers = (
{
layerId = "51D8E656-CCF3-4A73-A171-84F1BD8DE29C";
name = "Regular Italic";
paths = (
{
closed = 1;
nodes = (
"285 -10 OFFCURVE",
"337 8 OFFCURVE",
"388 47 CURVE",
"386 0 LINE",
"479 0 LINE",
"579 474 LINE",
"470 474 LINE",
"463 441 LINE",
"428 472 OFFCURVE",
"391 484 OFFCURVE",
"334 484 CURVE SMOOTH",
"203 484 OFFCURVE",
"82 384 OFFCURVE",
"49 218 CURVE SMOOTH",
"16 53 OFFCURVE",
"87 -10 OFFCURVE",
"216 -10 CURVE SMOOTH"
);
},
{
closed = 1;
nodes = (
"159 72 OFFCURVE",
"135 105 OFFCURVE",
"159 217 CURVE SMOOTH",
"184 335 OFFCURVE",
"250 401 OFFCURVE",
"346 401 CURVE SMOOTH",
"394 401 OFFCURVE",
"421 385 OFFCURVE",
"445 357 CURVE",
"395 122 LINE",
"355 88 OFFCURVE",
"313 72 OFFCURVE",
"263 72 CURVE SMOOTH"
);
},
{
closed = 1;
nodes = (
"410 522 LINE",
"372 699 LINE",
"277 699 LINE",
"322 522 LINE"
);
}
);
width = 547;
}
);
leftKerningGroup = a;
note = agrave;
rightKerningGroup = a;
unicode = 00E0;
},
{
glyphname = ahookabove;
lastChange = "2015-10-24 17:50:51 +0000";
layers = (
{
layerId = "51D8E656-CCF3-4A73-A171-84F1BD8DE29C";
name = "Regular Italic";
paths = (
{
closed = 1;
nodes = (
"285 -10 OFFCURVE",
"337 8 OFFCURVE",
"388 47 CURVE",
"386 0 LINE",
"479 0 LINE",
"579 474 LINE",
"470 474 LINE",
"463 441 LINE",
"428 472 OFFCURVE",
"391 484 OFFCURVE",
"334 484 CURVE SMOOTH",
"203 484 OFFCURVE",
"82 384 OFFCURVE",
"49 218 CURVE SMOOTH",
"16 53 OFFCURVE",
"87 -10 OFFCURVE",
"216 -10 CURVE SMOOTH"
);
},
{
closed = 1;
nodes = (
"159 72 OFFCURVE",
"135 105 OFFCURVE",
"159 217 CURVE SMOOTH",
"184 335 OFFCURVE",
"250 401 OFFCURVE",
"346 401 CURVE SMOOTH",
"394 401 OFFCURVE",
"421 385 OFFCURVE",
"445 357 CURVE",
"395 122 LINE",
"355 88 OFFCURVE",
"313 72 OFFCURVE",
"263 72 CURVE SMOOTH"
);
},
{
closed = 1;
nodes = (
"389 521 LINE",
"399 568 LINE",
"467 578 OFFCURVE",
"496 607 OFFCURVE",
"507 662 CURVE SMOOTH",
"520 719 OFFCURVE",
"483 755 OFFCURVE",
"401 755 CURVE SMOOTH",
"367 755 OFFCURVE",
"329 750 OFFCURVE",
"305 742 CURVE",
"293 683 LINE",
"311 690 OFFCURVE",
"339 695 OFFCURVE",
"359 695 CURVE SMOOTH",
"407 695 OFFCURVE",
"431 683 OFFCURVE",
"425 653 CURVE SMOOTH",
"418 620 OFFCURVE",
"399 607 OFFCURVE",
"322 603 CURVE",
"304 521 LINE"
);
}
);
width = 547;
}
);
leftKerningGroup = a;
note = ahookabove;
rightKerningGroup = a;
unicode = 1EA3;
},
{
glyphname = "alpha-latin";
lastChange = "2015-10-24 17:50:51 +0000";
layers = (
{
layerId = "51D8E656-CCF3-4A73-A171-84F1BD8DE29C";
name = "Regular Italic";
paths = (
{
closed = 1;
nodes = (
"285 -10 OFFCURVE",
"337 8 OFFCURVE",
"388 47 CURVE",
"386 0 LINE",
"479 0 LINE",
"579 474 LINE",
"470 474 LINE",
"463 441 LINE",
"428 472 OFFCURVE",
"391 484 OFFCURVE",
"334 484 CURVE SMOOTH",
"203 484 OFFCURVE",
"82 384 OFFCURVE",
"49 218 CURVE SMOOTH",
"16 53 OFFCURVE",
"87 -10 OFFCURVE",
"216 -10 CURVE SMOOTH"
);
},
{
closed = 1;
nodes = (
"159 72 OFFCURVE",
"135 105 OFFCURVE",
"159 217 CURVE SMOOTH",
"184 335 OFFCURVE",
"250 401 OFFCURVE",
"346 401 CURVE SMOOTH",
"394 401 OFFCURVE",
"421 385 OFFCURVE",
"445 357 CURVE",
"395 122 LINE",
"355 88 OFFCURVE",
"313 72 OFFCURVE",
"263 72 CURVE SMOOTH"
);
}
);
width = 583;
}
);
leftKerningGroup = a;
note = ascript;
rightKerningGroup = a;
unicode = 0251;
},
{
glyphname = amacron;
lastChange = "2015-10-24 17:50:51 +0000";
layers = (
{
layerId = "51D8E656-CCF3-4A73-A171-84F1BD8DE29C";
name = "Regular Italic";
paths = (
{
closed = 1;
nodes = (
"285 -10 OFFCURVE",
"337 8 OFFCURVE",
"388 47 CURVE",
"386 0 LINE",
"479 0 LINE",
"579 474 LINE",
"470 474 LINE",
"463 441 LINE",
"428 472 OFFCURVE",
"391 484 OFFCURVE",
"334 484 CURVE SMOOTH",
"203 484 OFFCURVE",
"82 384 OFFCURVE",
"49 218 CURVE SMOOTH",
"16 53 OFFCURVE",
"87 -10 OFFCURVE",
"216 -10 CURVE SMOOTH"
);
},
{
closed = 1;
nodes = (
"159 72 OFFCURVE",
"135 105 OFFCURVE",
"159 217 CURVE SMOOTH",
"184 335 OFFCURVE",
"250 401 OFFCURVE",
"346 401 CURVE SMOOTH",
"394 401 OFFCURVE",
"421 385 OFFCURVE",
"445 357 CURVE",
"395 122 LINE",
"355 88 OFFCURVE",
"313 72 OFFCURVE",
"263 72 CURVE SMOOTH"
);
},
{
closed = 1;
nodes = (
"510 543 LINE",
"525 614 LINE",
"228 614 LINE",
"213 543 LINE"
);
}
);
width = 547;
}
);
leftKerningGroup = a;
note = amacron;
rightKerningGroup = a;
unicode = 0101;
},
{
glyphname = aogonek;
lastChange = "2015-10-24 17:50:51 +0000";
layers = (
{
layerId = "51D8E656-CCF3-4A73-A171-84F1BD8DE29C";
name = "Regular Italic";
paths = (
{
closed = 1;
nodes = (
"413 -220 OFFCURVE",
"444 -215 OFFCURVE",
"463 -207 CURVE",
"477 -141 LINE",
"463 -148 OFFCURVE",
"441 -152 OFFCURVE",
"425 -152 CURVE SMOOTH",
"395 -152 OFFCURVE",
"380 -143 OFFCURVE",
"387 -112 CURVE SMOOTH",
"395 -72 OFFCURVE",
"429 -33 OFFCURVE",
"479 0 CURVE",
"579 474 LINE",
"470 474 LINE",
"463 441 LINE",
"428 472 OFFCURVE",
"391 484 OFFCURVE",
"334 484 CURVE SMOOTH",
"203 484 OFFCURVE",
"82 384 OFFCURVE",
"49 218 CURVE SMOOTH",
"16 53 OFFCURVE",
"87 -10 OFFCURVE",
"216 -10 CURVE SMOOTH",
"285 -10 OFFCURVE",
"337 8 OFFCURVE",
"388 47 CURVE",
"386 0 LINE",
"346 -31 OFFCURVE",
"307 -80 OFFCURVE",
"296 -131 CURVE SMOOTH",
"283 -193 OFFCURVE",
"327 -220 OFFCURVE",
"384 -220 CURVE SMOOTH"
);
},
{
closed = 1;
nodes = (
"159 72 OFFCURVE",
"135 105 OFFCURVE",
"159 217 CURVE SMOOTH",
"184 335 OFFCURVE",
"250 401 OFFCURVE",
"346 401 CURVE SMOOTH",
"394 401 OFFCURVE",
"421 385 OFFCURVE",
"445 357 CURVE",
"395 122 LINE",
"355 88 OFFCURVE",
"313 72 OFFCURVE",
"263 72 CURVE SMOOTH"
);
}
);
width = 556;
}
);
leftKerningGroup = a;
note = aogonek;
rightKerningGroup = a;
unicode = 0105;
},
{
glyphname = aring;
lastChange = "2015-10-24 17:50:51 +0000";
layers = (
{
layerId = "51D8E656-CCF3-4A73-A171-84F1BD8DE29C";
name = "Regular Italic";
paths = (
{
closed = 1;
nodes = (
"285 -10 OFFCURVE",
"337 8 OFFCURVE",
"388 47 CURVE",
"386 0 LINE",
"479 0 LINE",
"579 474 LINE",
"470 474 LINE",
"463 441 LINE",
"428 472 OFFCURVE",
"391 484 OFFCURVE",
"334 484 CURVE SMOOTH",
"203 484 OFFCURVE",
"82 384 OFFCURVE",
"49 218 CURVE SMOOTH",
"16 53 OFFCURVE",
"87 -10 OFFCURVE",
"216 -10 CURVE SMOOTH"
);
},
{
closed = 1;
nodes = (
"159 72 OFFCURVE",
"135 105 OFFCURVE",
"159 217 CURVE SMOOTH",
"184 335 OFFCURVE",
"250 401 OFFCURVE",
"346 401 CURVE SMOOTH",
"394 401 OFFCURVE",
"421 385 OFFCURVE",
"445 357 CURVE",
"395 122 LINE",
"355 88 OFFCURVE",
"313 72 OFFCURVE",
"263 72 CURVE SMOOTH"
);
},
{
closed = 1;
nodes = (
"437 521 OFFCURVE",
"490 571 OFFCURVE",
"503 634 CURVE SMOOTH",
"517 698 OFFCURVE",
"481 748 OFFCURVE",
"409 748 CURVE SMOOTH",
"333 748 OFFCURVE",
"283 698 OFFCURVE",
"269 634 CURVE SMOOTH",
"257 571 OFFCURVE",
"291 521 OFFCURVE",
"361 521 CURVE SMOOTH"
);
},
{
closed = 1;
nodes = (
"332 575 OFFCURVE",
"319 601 OFFCURVE",
"326 634 CURVE SMOOTH",
"333 667 OFFCURVE",
"363 693 OFFCURVE",
"398 693 CURVE SMOOTH",
"440 693 OFFCURVE",
"453 667 OFFCURVE",
"446 634 CURVE SMOOTH",
"439 601 OFFCURVE",
"410 575 OFFCURVE",
"373 575 CURVE SMOOTH"
);
}
);
width = 547;
}
);
leftKerningGroup = a;
note = aring;
rightKerningGroup = a;
unicode = 00E5;
},
{
glyphname = aringacute;
lastChange = "2015-10-24 17:50:53 +0000";
layers = (
{
layerId = "51D8E656-CCF3-4A73-A171-84F1BD8DE29C";
name = "Regular Italic";
paths = (
{
closed = 1;
nodes = (
"285 -10 OFFCURVE",
"337 8 OFFCURVE",
"388 47 CURVE",
"386 0 LINE",
"479 0 LINE",
"579 474 LINE",
"470 474 LINE",
"463 441 LINE",
"428 472 OFFCURVE",
"391 484 OFFCURVE",
"334 484 CURVE SMOOTH",
"203 484 OFFCURVE",
"82 384 OFFCURVE",
"49 218 CURVE SMOOTH",
"16 53 OFFCURVE",
"87 -10 OFFCURVE",
"216 -10 CURVE SMOOTH"
);
},
{
closed = 1;
nodes = (
"159 72 OFFCURVE",
"135 105 OFFCURVE",
"159 217 CURVE SMOOTH",
"184 335 OFFCURVE",
"250 401 OFFCURVE",
"346 401 CURVE SMOOTH",
"394 401 OFFCURVE",
"421 385 OFFCURVE",
"445 357 CURVE",
"395 122 LINE",
"355 88 OFFCURVE",
"313 72 OFFCURVE",
"263 72 CURVE SMOOTH"
);
},
{
closed = 1;
nodes = (
"427 517 OFFCURVE",
"480 567 OFFCURVE",
"493 630 CURVE SMOOTH",
"507 694 OFFCURVE",
"471 744 OFFCURVE",
"399 744 CURVE SMOOTH",
"323 744 OFFCURVE",
"273 694 OFFCURVE",
"259 630 CURVE SMOOTH",
"247 567 OFFCURVE",
"281 517 OFFCURVE",
"351 517 CURVE SMOOTH"
);
},
{
closed = 1;
nodes = (
"322 571 OFFCURVE",
"309 597 OFFCURVE",
"316 630 CURVE SMOOTH",
"323 663 OFFCURVE",
"353 689 OFFCURVE",
"388 689 CURVE SMOOTH",
"430 689 OFFCURVE",
"443 663 OFFCURVE",
"436 630 CURVE SMOOTH",
"429 597 OFFCURVE",
"400 571 OFFCURVE",
"363 571 CURVE SMOOTH"
);
},
{
closed = 1;
nodes = (
"470 784 LINE",
"592 925 LINE",
"496 925 LINE",
"383 784 LINE"
);
}
);
width = 547;
}
);
leftKerningGroup = a;
note = aringacute;
rightKerningGroup = a;
unicode = 01FB;
},
{
glyphname = atilde;
lastChange = "2015-10-24 17:50:53 +0000";
layers = (
{
layerId = "51D8E656-CCF3-4A73-A171-84F1BD8DE29C";
name = "Regular Italic";
paths = (
{
closed = 1;
nodes = (
"285 -10 OFFCURVE",
"337 8 OFFCURVE",
"388 47 CURVE",
"386 0 LINE",
"479 0 LINE",
"579 474 LINE",
"470 474 LINE",
"463 441 LINE",
"428 472 OFFCURVE",
"391 484 OFFCURVE",
"334 484 CURVE SMOOTH",
"203 484 OFFCURVE",
"82 384 OFFCURVE",
"49 218 CURVE SMOOTH",
"16 53 OFFCURVE",
"87 -10 OFFCURVE",
"216 -10 CURVE SMOOTH"
);
},
{
closed = 1;
nodes = (
"159 72 OFFCURVE",
"135 105 OFFCURVE",
"159 217 CURVE SMOOTH",
"184 335 OFFCURVE",
"250 401 OFFCURVE",
"346 401 CURVE SMOOTH",
"394 401 OFFCURVE",
"421 385 OFFCURVE",
"445 357 CURVE",
"395 122 LINE",
"355 88 OFFCURVE",
"313 72 OFFCURVE",
"263 72 CURVE SMOOTH"
);
},
{
closed = 1;
nodes = (
"478 537 OFFCURVE",
"511 550 OFFCURVE",
"528 568 CURVE",
"545 648 LINE",
"522 624 OFFCURVE",
"493 611 OFFCURVE",
"457 611 CURVE SMOOTH",
"404 611 OFFCURVE",
"370 650 OFFCURVE",
"312 650 CURVE SMOOTH",
"279 650 OFFCURVE",
"242 638 OFFCURVE",
"221 620 CURVE",
"204 540 LINE",
"233 566 OFFCURVE",
"264 576 OFFCURVE",
"299 576 CURVE SMOOTH",
"345 576 OFFCURVE",
"387 537 OFFCURVE",
"442 537 CURVE SMOOTH"
);
}
);
width = 547;
}
);
leftKerningGroup = a;
note = atilde;
rightKerningGroup = a;
unicode = 00E3;
},
{
glyphname = ae;
lastChange = "2015-10-24 17:50:52 +0000";
layers = (
{
layerId = "51D8E656-CCF3-4A73-A171-84F1BD8DE29C";
name = "Regular Italic";
paths = (
{
closed = 1;
nodes = (
"296 -10 OFFCURVE",
"363 26 OFFCURVE",
"421 73 CURVE",
"450 17 OFFCURVE",
"517 -10 OFFCURVE",
"604 -10 CURVE SMOOTH",
"667 -10 OFFCURVE",
"725 -1 OFFCURVE",
"772 18 CURVE",
"789 97 LINE",
"748 81 OFFCURVE",
"692 72 OFFCURVE",
"644 72 CURVE SMOOTH",
"529 72 OFFCURVE",
"483 102 OFFCURVE",
"492 194 CURVE",
"839 194 LINE",
"857 282 LINE SMOOTH",
"883 400 OFFCURVE",
"827 484 OFFCURVE",
"683 484 CURVE SMOOTH",
"608 484 OFFCURVE",
"540 460 OFFCURVE",
"494 421 CURVE",
"469 463 OFFCURVE",
"419 484 OFFCURVE",
"338 484 CURVE SMOOTH",
"267 484 OFFCURVE",
"202 472 OFFCURVE",
"155 455 CURVE",
"138 374 LINE",
"188 390 OFFCURVE",
"245 399 OFFCURVE",
"300 399 CURVE SMOOTH",
"405 399 OFFCURVE",
"424 374 OFFCURVE",
"410 307 CURVE SMOOTH",
"405 286 LINE",
"253 286 LINE SMOOTH",
"123 286 OFFCURVE",
"50 225 OFFCURVE",
"31 135 CURVE SMOOTH",
"11 38 OFFCURVE",
"79 -10 OFFCURVE",
"174 -10 CURVE SMOOTH"
);
},
{
closed = 1;
nodes = (
"152 68 OFFCURVE",
"122 88 OFFCURVE",
"133 137 CURVE SMOOTH",
"143 188 OFFCURVE",
"176 212 OFFCURVE",
"240 212 CURVE SMOOTH",
"390 212 LINE",
"371 127 LINE",
"331 90 OFFCURVE",
"283 68 OFFCURVE",
"214 68 CURVE SMOOTH"
);
},
{
closed = 1;
nodes = (
"527 359 OFFCURVE",
"568 402 OFFCURVE",
"669 402 CURVE SMOOTH",
"754 402 OFFCURVE",
"779 363 OFFCURVE",
"765 298 CURVE SMOOTH",
"758 265 LINE",
"507 265 LINE"
);
}
);
width = 881;
}
);
leftKerningGroup = a;
note = ae;
rightKerningGroup = e;
unicode = 00E6;
},
{
glyphname = aeacute;
lastChange = "2015-10-24 17:50:50 +0000";
layers = (
{
layerId = "51D8E656-CCF3-4A73-A171-84F1BD8DE29C";
name = "Regular Italic";
paths = (
{
closed = 1;
nodes = (
"296 -10 OFFCURVE",
"363 26 OFFCURVE",
"421 73 CURVE",
"450 17 OFFCURVE",
"517 -10 OFFCURVE",
"604 -10 CURVE SMOOTH",
"667 -10 OFFCURVE",
"725 -1 OFFCURVE",
"772 18 CURVE",
"789 97 LINE",
"748 81 OFFCURVE",
"692 72 OFFCURVE",
"644 72 CURVE SMOOTH",
"529 72 OFFCURVE",
"483 102 OFFCURVE",
"492 194 CURVE",
"839 194 LINE",
"857 282 LINE SMOOTH",
"883 400 OFFCURVE",
"827 484 OFFCURVE",
"683 484 CURVE SMOOTH",
"608 484 OFFCURVE",
"540 460 OFFCURVE",
"494 421 CURVE",
"469 463 OFFCURVE",
"419 484 OFFCURVE",
"338 484 CURVE SMOOTH",
"267 484 OFFCURVE",
"202 472 OFFCURVE",
"155 455 CURVE",
"138 374 LINE",
"188 390 OFFCURVE",
"245 399 OFFCURVE",
"300 399 CURVE SMOOTH",
"405 399 OFFCURVE",
"424 374 OFFCURVE",
"410 307 CURVE SMOOTH",
"405 286 LINE",
"253 286 LINE SMOOTH",
"123 286 OFFCURVE",
"50 225 OFFCURVE",
"31 135 CURVE SMOOTH",
"11 38 OFFCURVE",
"79 -10 OFFCURVE",
"174 -10 CURVE SMOOTH"
);
},
{
closed = 1;
nodes = (
"152 68 OFFCURVE",
"122 88 OFFCURVE",
"133 137 CURVE SMOOTH",
"143 188 OFFCURVE",
"176 212 OFFCURVE",
"240 212 CURVE SMOOTH",
"390 212 LINE",
"371 127 LINE",
"331 90 OFFCURVE",
"283 68 OFFCURVE",
"214 68 CURVE SMOOTH"
);
},
{
closed = 1;
nodes = (
"527 359 OFFCURVE",
"568 402 OFFCURVE",
"669 402 CURVE SMOOTH",
"754 402 OFFCURVE",
"779 363 OFFCURVE",
"765 298 CURVE SMOOTH",
"758 265 LINE",
"507 265 LINE"
);
},
{
closed = 1;
nodes = (
"550 522 LINE",
"672 699 LINE",
"576 699 LINE",
"463 522 LINE"
);
}
);
width = 881;
}
);
leftKerningGroup = a;
note = aeacute;
rightKerningGroup = e;
unicode = 01FD;
},
{
glyphname = b;
lastChange = "2015-10-24 17:50:54 +0000";
layers = (
{
layerId = "51D8E656-CCF3-4A73-A171-84F1BD8DE29C";
name = "Regular Italic";
paths = (
{
closed = 1;
nodes = (
"420 -10 OFFCURVE",
"513 69 OFFCURVE",
"550 241 CURVE SMOOTH",
"586 411 OFFCURVE",
"511 484 OFFCURVE",
"383 484 CURVE SMOOTH",
"326 484 OFFCURVE",
"274 471 OFFCURVE",
"226 443 CURVE",
"275 674 LINE",
"166 674 LINE",
"23 0 LINE",
"117 0 LINE",
"132 47 LINE",
"167 8 OFFCURVE",
"211 -10 OFFCURVE",
"280 -10 CURVE SMOOTH"
);
},
{
closed = 1;
nodes = (
"221 72 OFFCURVE",
"181 89 OFFCURVE",
"157 122 CURVE",
"208 360 LINE",
"243 386 OFFCURVE",
"288 401 OFFCURVE",
"337 401 CURVE SMOOTH",
"438 401 OFFCURVE",
"465 358 OFFCURVE",
"440 241 CURVE SMOOTH",
"416 128 OFFCURVE",
"371 72 OFFCURVE",
"269 72 CURVE SMOOTH"
);
}
);
width = 582;
}
);
note = b;
unicode = 0062;
},
{
glyphname = c;
lastChange = "2015-10-24 17:50:53 +0000";
layers = (
{
layerId = "51D8E656-CCF3-4A73-A171-84F1BD8DE29C";
name = "Regular Italic";
paths = (
{
closed = 1;
nodes = (
"314 -10 OFFCURVE",
"365 -1 OFFCURVE",
"413 17 CURVE",
"431 100 LINE",
"388 82 OFFCURVE",
"341 73 OFFCURVE",
"296 73 CURVE SMOOTH",
"167 73 OFFCURVE",
"139 123 OFFCURVE",
"163 237 CURVE SMOOTH",
"188 357 OFFCURVE",
"258 400 OFFCURVE",
"368 400 CURVE SMOOTH",
"417 400 OFFCURVE",
"458 391 OFFCURVE",
"488 374 CURVE",
"505 455 LINE",
"467 475 OFFCURVE",
"429 484 OFFCURVE",
"364 484 CURVE SMOOTH",
"196 484 OFFCURVE",
"88 403 OFFCURVE",
"53 237 CURVE SMOOTH",
"19 77 OFFCURVE",
"99 -10 OFFCURVE",
"253 -10 CURVE SMOOTH"
);
}
);
width = 493;
}
);
leftKerningGroup = c;
note = c;
rightKerningGroup = c;
unicode = 0063;
},
